<svg xmlns="http://www.w3.org/2000/svg" viewBox="0 0 512 512"><path fill="#FDD835" d="M295.2 390.1c1.2-21.4 15.3-39.9 35.6-46.8 10.6-3.6 20.1-9.4 28.2-17.4 36.1-36.1 26.6-104-21.1-151.7S222.2 117 186.1 153.1c-8 8-13.8 17.6-17.4 28.2-6.9 20.3-25.4 34.4-46.8 35.6-31.6 1.8-61.7 14-84.7 37-54.1 54.1-48.6 147.4 12.5 208.5s154.4 66.6 208.5 12.4c23-23 35.2-53.1 37-84.7z"/><path fill="#E5AB1A" d="M295.2 390.1c1.2-21.4 15.3-39.9 35.6-46.8 10.6-3.6 20.1-9.4 28.2-17.4 36.1-36.1 26.6-104-21.1-151.7L49.7 462.4c61 61 154.4 66.6 208.5 12.4 23-23 35.2-53.1 37-84.7z"/><path fill="#844D00" d="M453.827 13.94l44.193 44.194-202.16 202.16-44.193-44.194z"/><path fill="#704100" d="M475.803 35.854l22.274 22.274-202.16 202.16-22.274-22.274z"/><path fill="#FDD835" d="M498 81.3c18.6-18.6 18.6-48.8 0-67.4s-48.8-18.6-67.4 0l-26.3 26.3c-5.8 5.8-5.8 15.1 0 20.9l46.5 46.5c5.8 5.8 15.1 5.8 20.9 0L498 81.3z"/><path fill="#E5AB1A" d="M498 14l-70.4 70.4 23.2 23.2c5.8 5.8 15.1 5.8 20.9 0L498 81.3c18.7-18.6 18.7-48.8 0-67.3z"/><circle fill="#3E3D41" cx="245.8" cy="266.2" r="52.2"/><path fill="#704100" d="M405.566 62.202l44.193 44.194-15.98 15.98-44.194-44.193z"/></svg>