<svg xmlns="http://www.w3.org/2000/svg" viewBox="0 0 512 512"><style>.st0{display:none}.st1{fill:#096856}.st1,.st2,.st3{display:inline}.st2{fill:#008269}.st3{fill:#0c5144}.st4{fill:#ef5350}.st4,.st5,.st6{display:inline}.st5{fill:#fdd835}.st6{fill:#424a60}.st7{fill:#0a5b4c}.st8{fill:#096856}.st9{fill:#09493d}.st10{fill:#ef5350}.st11{fill:#424a60}.st12{fill:#fdd835}</style><g id="Layer_3_copy" class="st0"><path class="st1" d="M182 497.8H24.2L44 408.3h118.3z"/><path class="st2" d="M459.5 85.5l.2.1v243.2h-411V85.7s.1-.1.2-.1l410.6-.1zm24.7 121.7v-128c0-10.8-9.7-20.4-20.5-20.4h-419c-10.8 0-20.5 9.6-20.5 20.4v256c0 10.8 9.6 20.4 20.5 20.4h419c10.8 0 20.5-9.6 20.5-20.4v-128z"/><path class="st3" d="M159.6 434.9h189.3c2.2 0 3.9 1.8 3.9 3.9v10.4c0 2.2-1.8 3.9-3.9 3.9H159.6c-2.2 0-3.9-1.8-3.9-3.9v-10.4c-.1-2.1 1.7-3.9 3.9-3.9z"/><path class="st4" d="M253.9 145.6c-26.8 0-48.6 21.8-48.6 48.6s21.8 48.6 48.6 48.6 48.6-21.8 48.6-48.6-21.8-48.6-48.6-48.6zm.9 84.4c-25 0-32.5-19.7-32.5-19.7h62.6c-.1.1-6.6 19.8-30.1 19.7zm-49.5 178.1c-1.8-9.7-7-18.5-14.4-25.7-6.8-6.5-15.4-10.4-25.4-12.5-6.4 4.5-16.2 6.1-26.5 6.1-10.2 0-18.8-1.8-24.3-6.3-8.6 1.8-16.2 4.9-22.5 10.3-8.9 7.6-15 17.3-17.1 28.1h130.2z"/><path class="st5" d="M326 550.8H168.2l19.8-89.5h118.3z"/><path class="st6" d="M516.8 534.6H359l19.8-89.5h118.3z"/></g><g id="Layer_3"><path class="st7" d="M333.1 445.1H175.3l19.8-89.5h118.3z"/><path class="st8" d="M484.2 207.2v-128c0-10.8-9.7-20.4-20.5-20.4h-419c-10.8 0-20.5 9.6-20.5 20.4v256c0 10.8 9.6 20.4 20.5 20.4h419c10.8 0 20.5-9.6 20.5-20.4v-128z"/><path class="st9" d="M159.6 434.9h189.3c2.2 0 3.9 1.8 3.9 3.9v10.4c0 2.2-1.8 3.9-3.9 3.9H159.6c-2.2 0-3.9-1.8-3.9-3.9v-10.4c-.1-2.1 1.7-3.9 3.9-3.9z"/><path class="st10" d="M48.7 85.6h411v243.2h-411z"/><circle class="st11" cx="255.5" cy="209.1" r="104"/><path class="st12" d="M255.3 152.5c-21.4 0-38.9 17.4-38.9 38.9s17.4 38.9 38.9 38.9 38.9-17.4 38.9-38.9-17.5-38.9-38.9-38.9zm.7 67.5c-20 0-26-15.8-26-15.8h50.1c-.1.1-5.3 15.9-24.1 15.8zm51.6 45.7c-1.4-7.8-5.6-14.8-11.5-20.6-5.4-5.2-12.3-8.3-20.3-10-5.1 3.6-13 4.9-21.2 4.9s-15-1.4-19.4-5c-6.9 1.4-13 3.9-18 8.2-7.1 6.1-12 13.8-13.7 22.5h104.1z"/></g></svg>