<svg id="Layer_3" xmlns="http://www.w3.org/2000/svg" viewBox="0 0 512 512"><style>.st0{fill:#096856}.st1{fill:#008269}.st2{fill:#0c5144}.st3{fill:#fdd835}.st4{fill:#ef5350}</style><path class="st0" d="M333.1 445.1H175.3l19.8-89.5h118.3z"/><path class="st1" d="M459.5 85.5l.2.1v243.2h-411V85.7s.1-.1.2-.1h410.6v-.1zm24.7 121.7v-128c0-10.8-9.7-20.4-20.5-20.4h-419c-10.8 0-20.5 9.6-20.5 20.4v256c0 10.8 9.6 20.4 20.5 20.4h419c10.8 0 20.5-9.6 20.5-20.4v-128z"/><path class="st2" d="M159.6 434.9h189.3c2.2 0 3.9 1.8 3.9 3.9v10.4c0 2.2-1.8 3.9-3.9 3.9H159.6c-2.2 0-3.9-1.8-3.9-3.9v-10.4c-.1-2.1 1.7-3.9 3.9-3.9z"/><path class="st3" d="M48.8 85.6h411v243.2h-411z"/><path class="st4" d="M253.9 145.6c-26.8 0-48.6 21.8-48.6 48.6s21.8 48.6 48.6 48.6 48.6-21.8 48.6-48.6-21.8-48.6-48.6-48.6zm.9 84.4c-25 0-32.5-19.7-32.5-19.7h62.6c-.1.1-6.6 19.8-30.1 19.7zm64.5 57.1c-1.8-9.7-7-18.5-14.4-25.7-6.8-6.5-15.4-10.4-25.4-12.5-6.4 4.5-16.2 6.1-26.5 6.1-10.2 0-18.8-1.8-24.3-6.3-8.6 1.8-16.2 4.9-22.5 10.3-8.9 7.6-15 17.3-17.1 28.1h130.2z"/></svg>