<svg xmlns="http://www.w3.org/2000/svg" viewBox="0 0 512 512"><path fill="#008269" d="M379.9 151.4l-31-77.4H163.1l-31 77.4H60.8c-16.2 0-29.4 13.2-29.4 29.4v227.4c0 16.4 13.3 29.7 29.7 29.7h389.8c16.4 0 29.7-13.3 29.7-29.7V180.9c0-16.2-13.2-29.4-29.4-29.4h-71.3z"/><circle fill="#424A60" stroke="#2B313D" stroke-width="2" stroke-linecap="round" stroke-miterlimit="10" cx="256" cy="274.7" r="131.7"/><circle fill="#DD4747" cx="256" cy="275.4" r="85.2"/><path fill="#38454F" d="M77.9 112.7h31v38.7h-31z"/><circle fill="#FDD835" cx="426.4" cy="205.7" r="23.2"/><path fill="#EF5350" d="M170.8 275.4c-1.7 27.8 28.9 67 66.9 83-18-16.3-33.2-53-33.1-74 .1-35.3 13-72.3 59.8-94.1-38.7-.1-90.7 38.6-93.6 85.1zm136.3-68.1c.7 14.4-4.6 26.5-11.8 37.6 0 .3-.1.7-.1 1 5.6 2.2 9.6 7.7 9.6 14.2 0 8.4-6.8 15.2-15.2 15.2-5 0-9.3-2.4-12.1-6-6.2 8.5-11.3 17-13.1 26.3-4.7 24.7 13.2 48.8 21.3 57.1 27.3-14.1 55.5-49.6 55.5-77.4 0-27.8-13.4-52.4-34.1-68z"/><path fill="#ED8F3E" d="M289.6 244.9c1.8 0 3.6.3 5.2.9l.6-.9c.1-.8.1-1.5.1-2.3 0-12.8-10.4-23.2-23.2-23.2-12.8 0-23.2 10.4-23.2 23.2 0 12.8 10.4 23.2 23.2 23.2 1.1 0 2.1-.1 3.2-.2-.7-1.7-1-3.6-1-5.5-.2-8.4 6.6-15.2 15.1-15.2z"/><path fill="#855F55" d="M295.2 245.9c0-.3.1-.7.1-1l-.6.9c.2 0 .3.1.5.1zm-19.9 19.7c.5 1.3 1.2 2.6 2.1 3.7 1.3-1.8 2.7-3.6 4-5.4-1.9.8-3.9 1.4-6.1 1.7z"/><path fill="#8F665A" d="M289.6 275.4c8.4 0 15.2-6.8 15.2-15.2 0-6.4-4-11.9-9.6-14.2-1.2 8.1-6.5 14.8-13.7 18-1.4 1.8-2.7 3.6-4 5.4 2.7 3.6 7.1 6 12.1 6z"/><path fill="#8E8A4F" d="M294.8 245.8c-1.6-.6-3.4-.9-5.2-.9-8.4 0-15.2 6.8-15.2 15.2 0 1.9.4 3.8 1 5.5 2.1-.3 4.2-.9 6.1-1.7 4.4-5.9 9.1-11.8 13.3-18.1z"/><path fill="#948D52" d="M281.5 263.9c7.2-3.2 12.6-9.9 13.7-18-.1-.1-.3-.1-.4-.2-4.2 6.4-8.9 12.3-13.3 18.2z"/><path fill="#556080" d="M256 368.3c-51.2 0-92.9-41.7-92.9-92.9s41.7-92.9 92.9-92.9 92.9 41.7 92.9 92.9-41.6 92.9-92.9 92.9zm0-170.4c-42.7 0-77.4 34.7-77.4 77.4s34.7 77.4 77.4 77.4 77.4-34.7 77.4-77.4-34.7-77.4-77.4-77.4z"/></svg>