<svg xmlns="http://www.w3.org/2000/svg" viewBox="0 0 512 512"><circle fill="#008269" cx="245.4" cy="94.5" r="51.5"/><path fill="none" stroke="#008269" stroke-width="8" stroke-linecap="round" stroke-linejoin="round" stroke-miterlimit="10" d="M195.2 53H93.7m-22.5 0H57.6m137.6 83H93.7m-22.5 0H57.6m120.6-41.5H76.7m-22.5 0H40.6"/><circle fill="#EF5350" cx="422.9" cy="249" r="51.5"/><path fill="none" stroke="#EF5350" stroke-width="8" stroke-linecap="round" stroke-linejoin="round" stroke-miterlimit="10" d="M373.3 207.5H271.8m-22.5 0h-13.6m137.6 83H271.8m-22.5 0h-13.6M356.3 249H254.8m-22.5 0h-13.6"/><circle fill="#FDD835" cx="287.9" cy="403.5" r="51.5"/><path fill="none" stroke="#FDD835" stroke-width="8" stroke-linecap="round" stroke-linejoin="round" stroke-miterlimit="10" d="M236.4 362H134.9m-22.5 0H98.8m137.6 83H134.9m-22.5 0H98.8m120.6-41.5H117.9m-22.5 0H81.8"/></svg>