<svg xmlns="http://www.w3.org/2000/svg" viewBox="-307.6 481.7 615.2 620.7"><g><path d="M47.9 875.2h-337.5c-9.9 0-18-8.1-18-18V499.7c0-9.9 8.1-18 18-18H47.9c9.9 0 18 8.1 18 18v357.6c0 9.8-8.1 17.9-18 17.9zm-325.5-30H35.9V511.7h-313.5v333.5z"/></g><g><path d="M289.6 724.6H107.5c-9.9 0-18-8.1-18-18v-207c0-9.9 8.1-18 18-18h182.1c9.9 0 18 8.1 18 18v207c0 10-8.1 18-18 18zm-170.1-30h158.1v-183H119.5v183z"/></g><g><path d="M289.6 1102H107.5c-9.9 0-18-8.1-18-18V761.7c0-9.9 8.1-18 18-18h182.1c9.9 0 18 8.1 18 18V1084c0 9.9-8.1 18-18 18zm-170.1-30h158.1V773.7H119.5V1072z"/></g><g><path d="M47.9 1102.3h-337.5c-9.9 0-18-8.1-18-18V910.2c0-9.9 8.1-18 18-18H47.9c9.9 0 18 8.1 18 18v174.2c0 9.9-8.1 17.9-18 17.9zm-325.5-30H35.9V922.2h-313.5v150.1z"/></g></svg>