<svg xmlns="http://www.w3.org/2000/svg" viewBox="-306 524.2 612 535.6"><path d="M260 524.2h-520c-28.1 0-46 17.9-46 46v342.4c0 28.1 17.9 46 46 46h169.3l-31.2 68.8c-3.2 7.1-2.6 15.4 1.6 21.9 4.2 6.6 11.5 10.5 19.3 10.5h202c12.7 0 23-10.3 23-23 0-3.8-.9-7.4-2.6-10.6l-30.7-67.7H260c28.1 0 46-17.9 46-46V570.2c0-28.1-17.9-46-46-46zm10.1 393.4c0 2.8-2.3 5.1-5.1 5.1h-530c-2.8 0-5.1-2.3-5.1-5.1V565.2c0-2.8 2.3-5.1 5.1-5.1h530c2.8 0 5.1 2.3 5.1 5.1v352.4z"/><g><path d="M103.5 742.7c-2.8 3.7-5.4 7.4-8 10.9-1.2 1.7-1.9 3.5-2.1 5.2v1.1c.1 2 1.1 3.4 2.8 4 2.9 1 5.7 2.5 8.3 4.6 3.3 2.6 5.8 6 7.3 9.9.7 1.8 2.3 2.7 4.4 2.5 2.1-.2 4.3-1.5 6.1-3.5 3.4-3.7 6.8-7.6 10.3-11.6 10.4-12.2 30.8-37.1 40.8-49.6 17.2-21.5 32.1-43 43.8-61.1 8.2-12.8 22.2-35.9 23.4-46.6.2-2-.3-3.6-1.5-4.6-1.2-1-2.9-1.2-4.8-.5-7 2.3-20.1 12.7-37.1 29.3-16.1 15.8-35.2 36.2-53.9 59.3-10.1 12.7-30 38-39.8 50.7zM104.9 807.6c1.4-9.7-1.6-18.7-8.5-26.2-8.3-9-17.9-12.7-27.6-10.7-9.6 2-19.1 9.5-26 20.8-5.9 9.7-8.5 18.4-10.8 26-2.4 8.1-4.8 15.7-10.4 22.6-1.2 1.4-1.9 3.1-2.1 4.7-.2 1.1-.1 2.3.3 3.4.8 2.6 3.1 4.3 6 4.6 21.8 2 42.4-2.8 57.9-13.8 11.8-8.4 19.6-19.9 21.2-31.4z"/></g><path d="M-40.7 836.4l-4.6 20.3c-23.9-2.2-89-11.7-103.1-50.5l4.9.4 2.5-33.4-6.6-.5c5.2-11.8 15.4-21.2 26.1-30.9 11.5-10.5 23.3-21.3 29-35.8l9.9 1 3.4-33.4-11.5-1.2c-5.1-20-20.7-36.1-46.6-47.9-16.6-7.6-33.3-11.5-42.6-13.2l4-17.4-47.2-10.8-10.8 47.2 47.2 10.8 3.5-15.3c8.4 1.6 24.2 5.1 39.7 12.2 19 8.7 31.3 19.7 36.6 32.7l-5.6-.6-3.4 33.4 7.8.8c-5 9.6-14 17.8-23.4 26.4-12.7 11.6-25.8 23.6-31.6 40.8l-11.3-.8-2.5 33.4 12.6.9c5.6 23.1 24.2 40.9 55.1 52.8 9 3.5 18.3 6.1 27.1 8.1 12.9 2.9 24.8 4.5 33.4 5.4l-2.8 12.3 47.2 10.8 10.8-47.2-47.2-10.8zm-153.1-206.5l-29.1-6.6 6.6-29.1 29.1 6.6-6.6 29.1zm104.3 52l-1.5 14.8-14.8-1.5 1.5-14.8 14.8 1.5zm-76.4 98.8l14.9 1.1-1.1 14.9-14.9-1.1 1.1-14.9zm154.6 102.6l-29.1-6.6 6.6-29.1 29.1 6.6-6.6 29.1z"/></svg>