<svg xmlns="http://www.w3.org/2000/svg" viewBox="0 0 953 953"><g><path d="M430.6 953C667.2 953 859 761.2 859 524.6c0-72.8-18.1-141.3-50.1-201.3-3.5.5-7.1.7-10.6.7-2 0-4.1-.1-6.2-.2l-54.5-4.2-39.2 39.2c29.9 48.2 47.2 105 47.2 165.8 0 173.9-141 314.9-314.9 314.9-173.9 0-315-141-315-314.9 0-173.9 141-314.9 314.9-314.9 60.9 0 117.7 17.3 165.8 47.2l35.5-35.5-4.8-62.5c-.4-5-.3-10 .2-14.9-58.9-30.5-125.8-47.8-196.8-47.8C194 96.2 2.2 288 2.2 524.6S194 953 430.6 953z"/><path d="M430.6 413.9c2.8 0 5.6.1 8.4.3l79.1-79.1 1.7-1.7c-27.1-12.7-57.3-19.8-89.2-19.8-116.5 0-210.9 94.4-210.9 210.9s94.4 211 210.9 211 210.9-94.4 210.9-210.9c0-31.9-7.1-62.1-19.8-89.2l-1.7 1.7-79.1 79.1c.2 2.8.3 5.6.3 8.4 0 61.1-49.5 110.7-110.7 110.7s-110.6-49.6-110.6-110.7 49.6-110.7 110.7-110.7z"/><path d="M872.1 142.6l25.4-25.4c11.6-11.6 11.6-30.3 0-41.9l-17.6-17.7c-5.8-5.8-13.4-8.7-20.9-8.7s-15.2 2.9-20.9 8.7L809 86.7l-6-77.5c-.4-5.7-5.1-9.2-10-9.2-2.5 0-5 .9-7 2.9L671.5 117.4c-10.3 10.3-15.6 24.6-14.5 39.2l.3 4.5 5.5 71.7-41.4 41.4-74.5 74.5-1.7 1.7-72.1 72.1-32 32c-4.2 4.2-6.8 9.8-7.2 15.7l-2 25.1c-1.2 14.6 10.4 27 24.9 27h1.3l26.5-1.3c6.2-.3 12.1-2.9 16.4-7.3l31.7-31.7 72.1-72.1 1.7-1.7 74.5-74.5 45-45 65.4 5 2.9.2c1.3.1 2.6.1 3.8.1 13.2 0 25.9-5.2 35.4-14.6L947.9 165c6-6 2.2-16.4-6.3-17l-69.5-5.4z"/></g></svg>