<svg xmlns="http://www.w3.org/2000/svg" viewBox="0 0 480.581 480.581"><g><path d="M419.724 229.743c13.347 0 26.185 6.844 35.21 18.755 3.612 4.787 10.29 6.82 15.912 4.924 5.816-1.957 9.724-7.383 9.724-13.51V115.414c0-7.86-6.4-14.254-14.257-14.254h-93.13c3.25-7.22 4.936-14.86 4.936-22.635 0-38.187-40.934-69.248-91.246-69.248-50.318 0-91.26 31.06-91.26 69.248 0 7.775 1.683 15.416 4.94 22.635h-93.125c-7.86 0-14.25 6.398-14.25 14.254v85.064c-7.577-3.632-15.65-5.503-23.926-5.503C31.06 194.975 0 235.91 0 286.227c0 50.318 31.067 91.25 69.253 91.25 8.275 0 16.35-1.874 23.927-5.503v85.08c0 7.86 6.395 14.25 14.248 14.25h104.686c7.86 0 14.254-6.4 14.254-14.25 0-3.683-1.427-7.212-3.945-9.86-3.88-5.225-5.843-10.615-5.843-16.018 0-23.14 33.766-42.688 73.746-42.688 39.97 0 73.742 19.54 73.742 42.688 0 5.757-2.222 11.484-6.607 17.023-3.374 4.255-4.02 10.165-1.654 15.06 2.364 4.894 7.4 8.044 12.838 8.044h97.682c7.86 0 14.257-6.4 14.257-14.25V332.548c0-6.124-3.913-11.55-9.712-13.5-5.667-1.904-12.322.13-15.916 4.893-9.032 11.935-21.87 18.772-35.223 18.772-26.178 0-47.48-25.345-47.48-56.482-.002-31.14 21.3-56.49 47.474-56.49zm-65.633 56.484c0 41.156 29.448 74.64 65.64 74.64 15.764 0 30.86-6.447 42.693-17.997v110.277h-86.386c4.108-6.993 6.177-14.357 6.177-21.982 0-34.117-40.358-60.846-91.895-60.846-51.54 0-91.905 26.728-91.905 60.845 0 7.62 2.078 14.983 6.18 21.982h-93.27V334.64L96.18 348.237c-8.074 7.246-17.387 11.082-26.938 11.082-28.176 0-51.096-32.787-51.096-73.092 0-40.306 22.92-73.093 51.096-73.093 9.552 0 18.864 3.833 26.938 11.083l15.146 13.595V119.32H236.62l-12.685-14.954c-6.66-7.844-10.176-16.778-10.176-25.845 0-28.17 32.792-51.09 73.1-51.09 40.3 0 73.088 22.92 73.088 51.09 0 9.058-3.518 18-10.173 25.844l-12.685 14.954H462.4v110.274c-11.835-11.55-26.93-18.007-42.694-18.007-36.168 0-65.615 33.484-65.615 74.642z"/></g></svg>