<?xml version="1.0" encoding="utf-8"?>
<!-- Generator: Adobe Illustrator 19.0.0, SVG Export Plug-In . SVG Version: 6.00 Build 0)  -->
<svg version="1.1" id="Layer_1" xmlns="http://www.w3.org/2000/svg" xmlns:xlink="http://www.w3.org/1999/xlink" x="0px" y="0px"
	 viewBox="42 -41.3 595.3 595.3" style="enable-background:new 42 -41.3 595.3 595.3;" xml:space="preserve">
<style type="text/css">
	.st0{display:none;}
	.st1{display:inline;fill:#28AAE2;}
	.st2{display:inline;fill:#FFFFFF;}
	.st3{display:inline;fill:#EA4C89;}
	.st4{display:inline;}
	.st5{fill:#FFFFFF;}
	.st6{fill:#047CB7;}
	.st7{display:inline;fill:#3C5A98;}
	.st8{fill:#0099E5;}
</style>
<g id="twitter" class="st0">
	<path class="st1" d="M69.6-268.1C-95.4-268.1-228-237-228,29.5S-95.4,327.1,69.6,327.1S367.2,296,367.2,29.5
		S234.7-268.1,69.6-268.1z"/>
	<path class="st2" d="M226.6-40.8c0,2.7,0,6.8,0,9.5c0,97.4-74.4,211.1-211.1,211.1c-41.9,0-81.2-12.2-113.6-33.8
		c5.4,0,12.2,1.4,17.6,1.4c35.2,0,66.3-12.2,92-31.1c-32.5,0-59.5-21.6-69-51.4c4.1,1.4,9.5,1.4,13.5,1.4c6.8,0,13.5-1.4,18.9-2.7
		c-33.8-6.8-59.5-36.5-59.5-73.1c0,0,0,0,0-1.4c9.5,5.4,21.6,9.5,33.8,9.5c-20.3-13.5-32.5-36.5-32.5-62.2c0-13.5,4.1-25.7,9.5-37.9
		c36.5,44.6,90.6,74.4,152.9,77.1c-1.4-5.4-1.4-10.8-1.4-16.2c0-40.6,33.8-74.4,74.4-74.4c21.6,0,40.6,9.5,54.1,23
		c16.2-2.7,32.5-9.5,47.4-17.6C248.2-92,236-77.1,221.1-69c14.9-1.4,29.8-5.4,41.9-12.2C253.6-65.2,241.5-51.6,226.6-40.8z"/>
</g>
<g id="dribbble" class="st0">
	<path class="st3" d="M69.6-267.1C-95.4-267.1-228-236-228,30.5S-95.4,328.1,69.6,328.1S367.2,297,367.2,30.5
		S234.7-267.1,69.6-267.1z"/>
	<g id="Dribbble" class="st4">
		<path class="st5" d="M69.7-153.1c-101.4,0-183.5,82.2-183.5,183.5s82.2,183.5,183.5,183.5s183.5-82.2,183.5-183.5
			S171-153.1,69.7-153.1z M190.1-64.2c19.7,25.1,31.8,56.3,32.8,90.4c-41.2-7.2-76.7-7.4-107.4-2.6c-3.9-8.9-7.9-17.6-12-26
			C136.4-15.9,165.9-35.7,190.1-64.2z M169-86.2C147.4-60,120.3-41.9,89.6-29.6c-19.7-36.4-39.9-66.8-56-88.9
			c11.6-2.8,23.7-4.3,36.1-4.3C107.5-122.9,142.2-109,169-86.2z M3.8-107.9c15.6,20.8,36.4,51,56.7,88.1C17.4-8-30.7-4.8-79.5-4.6
			C-68.8-50.3-37.6-88.2,3.8-107.9z M-83.6,30.4l0.1-5h0.8c54.6,0,108.9-3.6,157.5-17.9c3.6,7.4,7.2,14.9,10.7,22.7
			C21.5,49-18.4,91.1-45.7,131.1C-69.3,104.3-83.6,69-83.6,30.4z M-23.4,152.2c25.9-39,61.9-77.5,120.6-93.7
			c13.7,35.1,24.9,73.5,30.8,113.7c-18,7.5-37.7,11.6-58.4,11.6C34.7,183.8,2.4,172-23.4,152.2z M156.3,156.9
			C150,120.1,139.7,85,127.4,52.5c26.8-3.4,57.7-2.6,93.4,4C213.6,98,189.7,133.9,156.3,156.9z"/>
	</g>
</g>
<g id="linkedin" class="st0">
	<g class="st4">
		<path class="st6" d="M69.6-144.9c-165,0-297.6,31.1-297.6,297.6S-95.4,450.3,69.6,450.3s297.6-31.1,297.6-297.6
			S234.7-144.9,69.6-144.9z"/>
		<path class="st6" d="M83.2,120.3L83.2,120.3L83.2,120.3L83.2,120.3z"/>
	</g>
	<g class="st4">
		<rect x="-64.3" y="91.9" class="st5" width="64.9" height="194.8"/>
		<path class="st5" d="M-31.8,59.4c-32.5,0-32.5-12.2-32.5-31.1c0-17.6,0-33.8,32.5-33.8S0.7,8,0.7,27C0.6,45.9,0.6,59.4-31.8,59.4z
			"/>
		<path class="st5" d="M227.9,286.7H163v-97.4c0-27.1-5.4-52.8-28.4-52.8c-17.6,0-28.4,12.2-33.8,24.4c-1.4,4.1-2.7,9.5-2.7,16.2
			v109.6H33.2c0,0,1.4-175.9,0-194.8h64.9v25.7c8.1-13.5,24.4-32.5,59.5-32.5c43.3,0,70.4,27.1,70.4,87.9L227.9,286.7L227.9,286.7z"
			/>
	</g>
</g>
<g id="facebook" class="st0">
	<path class="st7" d="M69.6-144.9c-165,0-297.6,31.1-297.6,297.6S-95.4,450.3,69.6,450.3s297.6-31.1,297.6-297.6
		S234.7-144.9,69.6-144.9z"/>
	<path class="st2" d="M264.5,90.5c0,0-32.5,0-40.6,0c-6.8,0-24.4,0-24.4,17.6v44.6h63.6l-1.4,63.6h-62.2c0,106.9,0,234.1,0,234.1
		h-85.2c0,0,0-127.2,0-234.1H72.4v-63.6h41.9V98.6c0-36.5,17.6-94.7,85.2-94.7h63.6v86.6L264.5,90.5L264.5,90.5z"/>
</g>
<g id="_x35_00px">
	<path class="st8" d="M339.6-41.2C174.6-41.2,42-10.1,42,256.4S174.6,554,339.6,554s297.6-31.1,297.6-297.6S504.8-41.2,339.6-41.2z"
		/>
	<path id="XMLID_458_" class="st5" d="M495.5,199.5c-41.5,0-68.4,32.5-77.3,43.2c-0.1,0.1-0.1,0.2-0.2,0.2c-0.1-0.1-0.1-0.1-0.2-0.2
		c-8.8-10.7-35.7-43.2-77.5-43.2c-27.5,0-48.7,13.9-63.1,41.2c-12.3-22-30.3-33.1-53.8-33.1c-19.6,0-30.1,5.2-36,9.8
		c1.2-7.3,3-18.6,5.5-33.2h79.7c2,0,3.6-1.6,3.6-3.6v-32.3c0-2-1.6-3.6-3.6-3.6H160.8c-1.7,0-3.2,1.2-3.5,3L138.4,256
		c-0.2,1,0.1,2.1,0.8,2.9c0.7,0.8,1.7,1.3,2.7,1.3h36.2c1.3,0,2.5-0.7,3.1-1.9c0.1-0.1,7.5-13.4,27.1-13.4
		c20.8,0,31.7,16.3,31.7,32.4c0,17.1-13.6,36.3-31.7,36.3c-17.9,0-28.9-15.3-28.9-26.3c0-2-1.6-3.6-3.6-3.6h-40.2
		c-2,0-3.6,1.6-3.6,3.6c0,7,2.7,22.7,13,36.7c9.3,12.8,27.9,28,63.3,28c40.8,0,61.9-23.4,69.4-37.7c8,14,28.6,37.7,62.7,37.7
		c41.7,0,66.7-29.5,76.2-40.6c0.5-0.6,1.1-1.3,1.6-1.9c0.7,0.7,1.5,1.5,2.2,2.3c10.3,11,37.7,40.1,75.2,40.1
		c44.9,0,71.7-39,71.7-76.6c0-18.8-6.2-37.4-17-51C537.2,208.1,518.3,199.5,495.5,199.5z M495.8,306.3c-19.9,0-42-22.9-48.6-30.2
		c6.6-7.4,28.7-30.2,48.6-30.2c26.1,0,26.8,29.9,26.8,30.3C522.7,276.4,521.9,306.3,495.8,306.3z M340.6,306.3
		c-26.1,0-26.8-29.9-26.8-30.2l0,0l0,0c0-0.3,0.7-30.2,26.8-30.2c19.8,0,42,22.9,48.6,30.2C382.6,283.5,360.5,306.3,340.6,306.3z"/>
</g>
</svg>
