<?xml version="1.0" encoding="utf-8"?>
<!-- Generator: Adobe Illustrator 19.0.0, SVG Export Plug-In . SVG Version: 6.00 Build 0)  -->
<svg version="1.1" id="Layer_1" xmlns="http://www.w3.org/2000/svg" xmlns:xlink="http://www.w3.org/1999/xlink" x="0px" y="0px"
	 viewBox="-501 303.7 595.3 595.3" style="enable-background:new -501 303.7 595.3 595.3;" xml:space="preserve">
<style type="text/css">
	.st0{fill:#28AAE2;}
	.st1{fill:#FFFFFF;}
	.st2{fill:#EA4C89;}
	.st3{display:none;}
	.st4{display:inline;}
	.st5{fill:#047CB7;}
	.st6{display:inline;fill:#3C5A98;}
	.st7{display:inline;fill:#FFFFFF;}
</style>
<g id="twitter">
	<path class="st0" d="M-203.4,303.8c-165,0-297.6,31.1-297.6,297.6S-368.4,899-203.4,899S94.2,867.9,94.2,601.4
		S-38.3,303.8-203.4,303.8z"/>
	<path class="st1" d="M-46.4,531.1c0,2.7,0,6.8,0,9.5c0,97.4-74.4,211.1-211.1,211.1c-41.9,0-81.2-12.2-113.6-33.8
		c5.4,0,12.2,1.4,17.6,1.4c35.2,0,66.3-12.2,92-31.1c-32.5,0-59.5-21.6-69-51.4c4.1,1.4,9.5,1.4,13.5,1.4c6.8,0,13.5-1.4,18.9-2.7
		c-33.8-6.8-59.5-36.5-59.5-73.1c0,0,0,0,0-1.4c9.5,5.4,21.6,9.5,33.8,9.5c-20.3-13.5-32.5-36.5-32.5-62.2c0-13.5,4.1-25.7,9.5-37.9
		c36.5,44.6,90.6,74.4,152.9,77.1c-1.4-5.4-1.4-10.8-1.4-16.2c0-40.6,33.8-74.4,74.4-74.4c21.6,0,40.6,9.5,54.1,23
		c16.2-2.7,32.5-9.5,47.4-17.6c-5.4,17.6-17.6,32.5-32.5,40.6c14.9-1.4,29.8-5.4,41.9-12.2C-19.4,506.7-31.5,520.3-46.4,531.1z"/>
</g>
<g id="dribbble">
	<path class="st2" d="M-203.4,304.8c-165,0-297.6,31.1-297.6,297.6S-368.4,900-203.4,900S94.2,868.9,94.2,602.4
		S-38.3,304.8-203.4,304.8z"/>
	<g id="Dribbble">
		<path class="st1" d="M-203.3,418.8c-101.4,0-183.5,82.2-183.5,183.5s82.2,183.5,183.5,183.5s183.5-82.2,183.5-183.5
			S-102,418.8-203.3,418.8z M-82.9,507.7c19.7,25.1,31.8,56.3,32.8,90.4c-41.2-7.2-76.7-7.4-107.4-2.6c-3.9-8.9-7.9-17.6-12-26
			C-136.6,556-107.1,536.2-82.9,507.7z M-104,485.7c-21.6,26.2-48.7,44.3-79.4,56.6c-19.7-36.4-39.9-66.8-56-88.9
			c11.6-2.8,23.7-4.3,36.1-4.3C-165.5,449-130.8,462.9-104,485.7z M-269.2,464c15.6,20.8,36.4,51,56.7,88.1
			c-43.1,11.8-91.2,15-140,15.2C-341.8,521.6-310.6,483.7-269.2,464z M-356.6,602.3l0.1-5h0.8c54.6,0,108.9-3.6,157.5-17.9
			c3.6,7.4,7.2,14.9,10.7,22.7c-64,18.8-103.9,60.9-131.2,100.9C-342.3,676.2-356.6,640.9-356.6,602.3z M-296.4,724.1
			c25.9-39,61.9-77.5,120.6-93.7c13.7,35.1,24.9,73.5,30.8,113.7c-18,7.5-37.7,11.6-58.4,11.6C-238.3,755.7-270.6,743.9-296.4,724.1
			z M-116.7,728.8c-6.3-36.8-16.6-71.9-28.9-104.4c26.8-3.4,57.7-2.6,93.4,4C-59.4,669.9-83.3,705.8-116.7,728.8z"/>
	</g>
</g>
<g id="linkedin" class="st3">
	<g class="st4">
		<path class="st5" d="M-203.4,427c-165,0-297.6,31.1-297.6,297.6s132.6,297.6,297.6,297.6S94.2,991.1,94.2,724.6
			S-38.3,427-203.4,427z"/>
		<path class="st5" d="M-189.8,692.2L-189.8,692.2L-189.8,692.2L-189.8,692.2z"/>
	</g>
	<g class="st4">
		<rect x="-337.3" y="663.8" class="st1" width="64.9" height="194.8"/>
		<path class="st1" d="M-304.8,631.3c-32.5,0-32.5-12.2-32.5-31.1c0-17.6,0-33.8,32.5-33.8s32.5,13.5,32.5,32.5
			C-272.4,617.8-272.4,631.3-304.8,631.3z"/>
		<path class="st1" d="M-45.1,858.6H-110v-97.4c0-27.1-5.4-52.8-28.4-52.8c-17.6,0-28.4,12.2-33.8,24.4c-1.4,4.1-2.7,9.5-2.7,16.2
			v109.6h-64.9c0,0,1.4-175.9,0-194.8h64.9v25.7c8.1-13.5,24.4-32.5,59.5-32.5c43.3,0,70.4,27.1,70.4,87.9L-45.1,858.6L-45.1,858.6z
			"/>
	</g>
</g>
<g id="facebook" class="st3">
	<path class="st6" d="M-203.4,427c-165,0-297.6,31.1-297.6,297.6s132.6,297.6,297.6,297.6S94.2,991.1,94.2,724.6
		S-38.3,427-203.4,427z"/>
	<path class="st7" d="M-8.5,662.4c0,0-32.5,0-40.6,0c-6.8,0-24.4,0-24.4,17.6v44.6h63.6l-1.4,63.6h-62.2c0,106.9,0,234.1,0,234.1
		h-85.2c0,0,0-127.2,0-234.1h-41.9v-63.6h41.9v-54.1c0-36.5,17.6-94.7,85.2-94.7h63.6v86.6H-8.5L-8.5,662.4z"/>
</g>
</svg>
