<?xml version="1.0" encoding="utf-8"?>
<!-- Generator: Adobe Illustrator 18.0.0, SVG Export Plug-In . SVG Version: 6.00 Build 0)  -->
<!DOCTYPE svg PUBLIC "-//W3C//DTD SVG 1.1//EN" "http://www.w3.org/Graphics/SVG/1.1/DTD/svg11.dtd">
<svg version="1.1" id="Layer_1" xmlns="http://www.w3.org/2000/svg" xmlns:xlink="http://www.w3.org/1999/xlink" x="0px" y="0px"
	 viewBox="0 123.3 595.2 595.2" enable-background="new 0 123.3 595.2 595.2" xml:space="preserve">
<path fill="#3C5A98" d="M297.6,123.3C132.6,123.3,0,154.4,0,420.9s132.6,297.6,297.6,297.6s297.6-31.1,297.6-297.6
	S462.7,123.3,297.6,123.3z"/>
<path fill="#FFFFFF" d="M388.9,323c0,0-28,0-35,0c-5.8,0-21,0-21,15.2v38.5h54.9l-1.2,54.9h-53.7c0,92.2,0,202,0,202h-73.6
	c0,0,0-109.7,0-202h-36.2v-54.9h36.2V330c0-31.5,15.2-81.7,73.6-81.7h54.9V323H388.9z"/>
</svg>
