<?xml version="1.0" encoding="utf-8"?>
<!-- Generator: Adobe Illustrator 18.0.0, SVG Export Plug-In . SVG Version: 6.00 Build 0)  -->
<!DOCTYPE svg PUBLIC "-//W3C//DTD SVG 1.1//EN" "http://www.w3.org/Graphics/SVG/1.1/DTD/svg11.dtd">
<svg version="1.1" id="Layer_1" xmlns="http://www.w3.org/2000/svg" xmlns:xlink="http://www.w3.org/1999/xlink" x="0px" y="0px"
	 viewBox="0 0 595.3 841.9" enable-background="new 0 0 595.3 841.9" xml:space="preserve">
<g>
	<path fill="#047CB7" d="M297.6,369.9C132.6,369.9,0,401,0,667.5s132.6,297.6,297.6,297.6s297.6-31.1,297.6-297.6
		S462.8,369.9,297.6,369.9z"/>
	<path fill="#047CB7" d="M311.2,635.1L311.2,635.1L311.2,635.1L311.2,635.1z"/>
</g>
<g>
	<rect x="163.7" y="606.7" fill="#FFFFFF" width="64.9" height="194.8"/>
	<path fill="#FFFFFF" d="M196.2,574.2c-32.5,0-32.5-12.2-32.5-31.1c0-17.6,0-33.8,32.5-33.8s32.5,13.5,32.5,32.5
		C228.6,560.7,228.6,574.2,196.2,574.2z"/>
	<path fill="#FFFFFF" d="M456,801.6h-64.9v-97.4c0-27.1-5.4-52.8-28.4-52.8c-17.6,0-28.4,12.2-33.8,24.4c-1.4,4.1-2.7,9.5-2.7,16.2
		v109.6h-64.9c0,0,1.4-175.9,0-194.8h64.9v25.7c8.1-13.5,24.4-32.5,59.5-32.5c43.3,0,70.4,27.1,70.4,87.9L456,801.6L456,801.6z"/>
</g>
</svg>
