<?xml version="1.0" encoding="utf-8"?>
<!-- Generator: Adobe Illustrator 18.0.0, SVG Export Plug-In . SVG Version: 6.00 Build 0)  -->
<!DOCTYPE svg PUBLIC "-//W3C//DTD SVG 1.1//EN" "http://www.w3.org/Graphics/SVG/1.1/DTD/svg11.dtd">
<svg version="1.1" id="Layer_1" xmlns="http://www.w3.org/2000/svg" xmlns:xlink="http://www.w3.org/1999/xlink" x="0px" y="0px"
	 viewBox="0 123.3 595.3 595.3" enable-background="new 0 123.3 595.3 595.3" xml:space="preserve">
<g id="Layer_1_1_" display="none">
	<g display="inline">
		<g>
			<path fill="#FFFFFF" d="M468.1,385.8v143.4c0,8.1-6.8,14.9-14.9,14.9H142.1v-8.1L468.1,385.8 M470.8,381.7L139.3,534.6v12.2
				h312.5c9.5,0,17.6-8.1,17.6-17.6V381.7H470.8z"/>
		</g>
		<g>
			<path fill="#FFFFFF" d="M129.9,545.4c-9.5,0-16.2-8.1-16.2-16.2V389.8c0-2.7,0-5.4,0-6.8c0-10.8,0-10.8,17.6-21.6l5.4-4.1
				l140.7-82.5c4.1-2.7,9.5-4.1,14.9-4.1s10.8,1.4,14.9,4.1l142.1,83.9c18.9,10.8,20.3,12.2,20.3,27.1v143.4
				c0,9.5-8.1,16.2-16.2,16.2L129.9,545.4L129.9,545.4z"/>
			<g>
				<path fill="#DB5249" d="M290.9,270.8L290.9,270.8c5.4,0,9.5,1.4,13.5,4.1l139.3,82.5l2.7,1.4c18.9,10.8,20.3,12.2,20.3,27.1
					v143.4c0,8.1-6.8,14.9-14.9,14.9h-322c-8.1,0-14.9-6.8-14.9-14.9V389.8c0-2.7,0-5.4,0-6.8c0-10.8,0-10.8,16.2-20.3l5.4-4.1
					l140.7-82.5C281.4,272.1,286.8,270.8,290.9,270.8 M290.9,268.1c-5.4,0-10.8,1.4-14.9,4.1L135.3,356c-28.4,17.6-23,13.5-23,33.8
					v139.3c0,9.5,8.1,17.6,17.6,17.6h322c9.5,0,17.6-8.1,17.6-17.6c0-51.4,0-143.4,0-143.4c0-17.6-2.7-17.6-24.4-29.8l-138-83.9
					C301.7,269.4,296.3,268.1,290.9,268.1L290.9,268.1z"/>
			</g>
		</g>
		<g>
			<path fill="#FFFFFF" d="M129.9,545.4c-9.5,0-16.2-8.1-16.2-16.2V383.1c27.1,12.2,316.6,144.8,346.3,161
				c-2.7,1.4-5.4,1.4-13.5,1.4H129.9z"/>
			<path fill="#DB5249" d="M115,385.8c35.2,16.2,301.7,138,342.3,158.3c-2.7,0-5.4,0-10.8,0h-14.9H129.9c-8.1,0-14.9-6.8-14.9-14.9
				V385.8 M112.3,381.7v147.5c0,9.5,8.1,17.6,17.6,17.6h301.7c0,0,2.7,0,14.9,0c9.5,0,12.2,0,16.2-2.7
				C446.5,534.6,112.3,381.7,112.3,381.7L112.3,381.7z"/>
		</g>
		<polygon fill="#DB5249" points="292.2,466.9 290.9,464.2 470.8,381.7 470.8,384.4 		"/>
	</g>
	<g display="inline">
		<g>
			<path fill="#FFFFFF" d="M468.1,385.8v143.4c0,8.1-6.8,14.9-14.9,14.9H142.1v-8.1L468.1,385.8 M470.8,381.7L139.3,534.6v12.2
				h312.5c9.5,0,17.6-8.1,17.6-17.6V381.7H470.8z"/>
		</g>
		<g>
			<path fill="#FFFFFF" d="M129.9,545.4c-9.5,0-16.2-8.1-16.2-16.2V389.8c0-2.7,0-5.4,0-6.8c0-10.8,0-10.8,17.6-21.6l5.4-4.1
				l140.7-82.5c4.1-2.7,9.5-4.1,14.9-4.1s10.8,1.4,14.9,4.1l142.1,83.9c18.9,10.8,20.3,12.2,20.3,27.1v143.4
				c0,9.5-8.1,16.2-16.2,16.2L129.9,545.4L129.9,545.4z"/>
			<g>
				<path fill="#FFFFFF" d="M290.9,270.8L290.9,270.8c5.4,0,9.5,1.4,13.5,4.1l139.3,82.5l2.7,1.4c18.9,10.8,20.3,12.2,20.3,27.1
					v143.4c0,8.1-6.8,14.9-14.9,14.9h-322c-8.1,0-14.9-6.8-14.9-14.9V389.8c0-2.7,0-5.4,0-6.8c0-10.8,0-10.8,16.2-20.3l5.4-4.1
					l140.7-82.5C281.4,272.1,286.8,270.8,290.9,270.8 M290.9,268.1c-5.4,0-10.8,1.4-14.9,4.1L135.3,356c-28.4,17.6-23,13.5-23,33.8
					v139.3c0,9.5,8.1,17.6,17.6,17.6h322c9.5,0,17.6-8.1,17.6-17.6c0-51.4,0-143.4,0-143.4c0-17.6-2.7-17.6-24.4-29.8l-138-83.9
					C301.7,269.4,296.3,268.1,290.9,268.1L290.9,268.1z"/>
			</g>
		</g>
		<g>
			<path fill="#DB5249" d="M129.9,545.4c-9.5,0-16.2-8.1-16.2-16.2V383.1c27.1,12.2,316.6,144.8,346.3,161
				c-2.7,1.4-5.4,1.4-13.5,1.4H129.9z"/>
			<path fill="#FFFFFF" d="M115,385.8c35.2,16.2,301.7,138,342.3,158.3c-2.7,0-5.4,0-10.8,0h-14.9H129.9c-8.1,0-14.9-6.8-14.9-14.9
				V385.8 M112.3,381.7v147.5c0,9.5,8.1,17.6,17.6,17.6h301.7c0,0,2.7,0,14.9,0c9.5,0,12.2,0,16.2-2.7
				C446.5,534.6,112.3,381.7,112.3,381.7L112.3,381.7z"/>
		</g>
		<polygon fill="#DB5249" points="278.7,473.7 277.3,471 470.8,381.7 470.8,384.4 		"/>
	</g>
</g>
<g id="twitter">
	<path fill="#28AAE2" d="M297.6,123.3C132.6,123.3,0,154.4,0,420.9s132.6,297.6,297.6,297.6s297.6-31.1,297.6-297.6
		S462.7,123.3,297.6,123.3z"/>
	<path fill="#FFFFFF" d="M454.6,350.6c0,2.7,0,6.8,0,9.5c0,97.4-74.4,211.1-211.1,211.1c-41.9,0-81.2-12.2-113.6-33.8
		c5.4,0,12.2,1.4,17.6,1.4c35.2,0,66.3-12.2,92-31.1c-32.5,0-59.5-21.6-69-51.4c4.1,1.4,9.5,1.4,13.5,1.4c6.8,0,13.5-1.4,18.9-2.7
		c-33.8-6.8-59.5-36.5-59.5-73.1c0,0,0,0,0-1.4c9.5,5.4,21.6,9.5,33.8,9.5c-20.3-13.5-32.5-36.5-32.5-62.2c0-13.5,4.1-25.7,9.5-37.9
		c36.5,44.6,90.6,74.4,152.9,77.1c-1.4-5.4-1.4-10.8-1.4-16.2c0-40.6,33.8-74.4,74.4-74.4c21.6,0,40.6,9.5,54.1,23
		c16.2-2.7,32.5-9.5,47.4-17.6c-5.4,17.6-17.6,32.5-32.5,40.6c14.9-1.4,29.8-5.4,41.9-12.2C481.6,326.2,469.5,339.8,454.6,350.6z"/>
</g>
<g id="linkedin" display="none">
	<g display="inline">
		<path fill="#047CB7" d="M297.6,123.3C132.6,123.3,0,154.4,0,420.9s132.6,297.6,297.6,297.6s297.6-31.1,297.6-297.6
			S462.7,123.3,297.6,123.3z"/>
		<path fill="#047CB7" d="M311.2,388.5L311.2,388.5L311.2,388.5L311.2,388.5z"/>
	</g>
	<g display="inline">
		<rect x="163.7" y="360.1" fill="#FFFFFF" width="64.9" height="194.8"/>
		<path fill="#FFFFFF" d="M196.2,327.6c-32.5,0-32.5-12.2-32.5-31.1c0-17.6,0-33.8,32.5-33.8s32.5,13.5,32.5,32.5
			C228.6,314.1,228.6,327.6,196.2,327.6z"/>
		<path fill="#FFFFFF" d="M455.9,554.9H391v-97.4c0-27.1-5.4-52.8-28.4-52.8c-17.6,0-28.4,12.2-33.8,24.4c-1.4,4.1-2.7,9.5-2.7,16.2
			v109.6h-64.9c0,0,1.4-175.9,0-194.8h64.9v25.7c8.1-13.5,24.4-32.5,59.5-32.5c43.3,0,70.4,27.1,70.4,87.9L455.9,554.9L455.9,554.9z
			"/>
	</g>
</g>
<g id="facebook" display="none">
	<path display="inline" fill="#3C5A98" d="M297.6,123.3C132.6,123.3,0,154.4,0,420.9s132.6,297.6,297.6,297.6
		s297.6-31.1,297.6-297.6S462.7,123.3,297.6,123.3z"/>
	<path display="inline" fill="#FFFFFF" d="M492.5,358.7c0,0-32.5,0-40.6,0c-6.8,0-24.4,0-24.4,17.6v44.6h63.6l-1.4,63.6h-62.2
		c0,106.9,0,234.1,0,234.1h-85.2c0,0,0-127.2,0-234.1h-41.9v-63.6h41.9v-54.1c0-36.5,17.6-94.7,85.2-94.7h63.6v86.6H492.5z"/>
</g>
</svg>
