<?xml version="1.0" encoding="utf-8"?>
<!-- Generator: Adobe Illustrator 18.0.0, SVG Export Plug-In . SVG Version: 6.00 Build 0)  -->
<!DOCTYPE svg PUBLIC "-//W3C//DTD SVG 1.1//EN" "http://www.w3.org/Graphics/SVG/1.1/DTD/svg11.dtd">
<svg version="1.1" xmlns="http://www.w3.org/2000/svg" xmlns:xlink="http://www.w3.org/1999/xlink" x="0px" y="0px"
	 viewBox="0 0 221.6 222.2" enable-background="new 0 0 221.6 222.2" xml:space="preserve">
<g id="Home">
</g>
<g id="email">
</g>
<g id="Phone">
	<path fill="none" stroke="#000000" stroke-width="4" stroke-linecap="round" stroke-linejoin="round" stroke-miterlimit="10" d="
		M161,167.9c0,0,27.4,20.7,41.4,31.7c-5.9,10.4-20.5,19.2-43.1,18.2s-52.8-18.2-89.7-53.3s-52.1-59.9-62-81.8s-3.7-45,10-58.7
		S37.6,4.1,37.6,4.1l41,55.5c0,0-5.5,5.5-12.7,12.7c-7.2,7.2-7,23.8-3,33.8s10.6,21.3,22,32.4s26,20.6,39.8,23.2
		c13.8,2.6,22.9-3.7,25.7-6.9s11.3-11.8,11.3-11.8l56.5,41.4"/>
	
		<line fill="none" stroke="#000000" stroke-width="4" stroke-linecap="round" stroke-linejoin="round" stroke-miterlimit="10" x1="53.5" y1="61.1" x2="22.4" y2="19.4"/>
	<path fill="none" stroke="#000000" stroke-width="4" stroke-linecap="round" stroke-linejoin="round" stroke-miterlimit="10" d="
		M133.7,66c9.5,3.1,18.4,11.3,22,21.5"/>
	<path fill="none" stroke="#000000" stroke-width="4" stroke-linecap="round" stroke-linejoin="round" stroke-miterlimit="10" d="
		M133.7,44c24.1,8.3,35.9,21.8,43.7,43.6"/>
	<path fill="none" stroke="#000000" stroke-width="4" stroke-linecap="round" stroke-linejoin="round" stroke-miterlimit="10" d="
		M133.7,22.7c26.8,6.5,55.6,24.6,65,64.8"/>
</g>
</svg>
