<svg xmlns="http://www.w3.org/2000/svg" xmlns:xlink="http://www.w3.org/1999/xlink" width="100" height="68" viewBox="0 0 100 68"><path fill="#E9D559" d="M0 33.98l33.04 33.04.096-.045L100 33.98 33.136.985V.982L33.04.938 0 33.983v-.003zM33.132 1.028L33.04.982 0 34.022h33.132V1.028z"/><defs><path id="a" d="M33.132 34.02H0l33.043 33.042.097-.043z"/></defs><clipPath id="b"><use xlink:href="#a" overflow="visible"/></clipPath><linearGradient id="c" gradientUnits="userSpaceOnUse" x1="-36.731" y1="754.188" x2="-34.845" y2="754.188" gradientTransform="scale(12.537) rotate(-78.89 443.646 -397.54)"><stop offset="0" stop-color="#E9D559"/><stop offset=".086" stop-color="#E9D559"/><stop offset=".988" stop-color="#F0EB5B"/><stop offset="1" stop-color="#F0EB5B"/></linearGradient><path clip-path="url(#b)" fill="url(#c)" d="M-6.25 65.835l7.482-38.08 38.15 7.497-7.48 38.08-38.152-7.497z"/><defs><path id="d" d="M33.132 1.028V34.02h66.864z"/></defs><clipPath id="e"><use xlink:href="#d" overflow="visible"/></clipPath><linearGradient id="f" gradientUnits="userSpaceOnUse" x1="46.217" y1="669.268" x2="48.101" y2="669.268" gradientTransform="scale(17.676) rotate(93.367 -290.91 -354.24)"><stop offset="0" stop-color="#E9D559"/><stop offset=".086" stop-color="#E9D559"/><stop offset=".988" stop-color="#F0EB5B"/><stop offset="1" stop-color="#F0EB5B"/></linearGradient><path clip-path="url(#e)" fill="url(#f)" d="M101.935 1.14l-2.168 36.8-68.57-4.03 2.165-36.802 68.573 4.033z"/><defs><path id="g" d="M33.132 34.02v33l66.864-33z"/></defs><clipPath id="h"><use xlink:href="#g" overflow="visible"/></clipPath><linearGradient id="i" gradientUnits="userSpaceOnUse" x1="34.452" y1="721.155" x2="36.334" y2="721.155" gradientTransform="matrix(-35.488 0 0 35.488 1322.594 -25541.813)"><stop offset="0" stop-color="#E9D559"/><stop offset=".086" stop-color="#E9D559"/><stop offset=".988" stop-color="#F0EB5B"/><stop offset="1" stop-color="#F0EB5B"/></linearGradient><path clip-path="url(#h)" fill="url(#i)" d="M99.996 34.02v33H33.132v-33h66.864z"/></svg>