<svg xmlns="http://www.w3.org/2000/svg" width="100" height="100" viewBox="0 0 100 100"><path fill="#DD584A" d="M59.586 75.99C57.03 73.435 53.62 72.158 50 72.158s-7.03 1.49-9.586 3.832c-2.557 2.56-4.048 6.358-4.048 9.98 0 7.456 5.965 14.03 13.42 14.03H50c7.244 0 13.42-6.574 13.633-13.817 0-3.62-1.277-7.633-4.047-10.193zM50 91.115c-2.983 0-5.54-2.555-5.54-5.326 0-1.49.64-2.77 1.706-3.838 1.064-1.064 2.344-1.49 3.834-1.49 1.492 0 2.77.64 3.833 1.49C54.9 83.02 55.54 84.515 55.54 86c-.216 2.56-2.77 5.115-5.54 5.115zM62.356 7.61c-2.77-6.177-8.844-9.157-15.447-7.666C40.513 1.434 37 7.61 37 14.217v1.276c0 2.343.11 5.113.323 7.67.64 11.502 1.12 22.793 1.758 34.298.216 5.965 4.498 10.65 10.46 10.65 5.97 0 10.46-4.685 10.46-10.86v-1.064c0-1.92.754-3.837.754-5.752.428-7.457 1.122-14.696 1.55-22.154.21-4.687.77-9.373.984-14.058.213-2.348-.08-4.688-.93-6.608zM44 14.327v-.75c0-2.982 1.83-5.324 4.172-5.965 2.556-.64 5.28.642 6.56 2.984.425.85.51 1.704.51 2.77-.214 4.687-.556 9.372-.77 14.27l-1.27 22.156c-.212 1.916-.202 3.83-.202 5.963v1.066c0 1.92-1.285 2.98-2.99 2.98-1.705 0-2.775-1.274-2.988-2.764-.638-11.505-1.617-23.06-2.255-34.564L44 14.326z"/></svg>