<svg xmlns="http://www.w3.org/2000/svg" width="100" height="100" viewBox="0 0 100 100"><path fill="#58585A" d="M83.558 83.246H19.255V25.01c0-1.863-1.512-3.375-3.377-3.375-1.864 0-3.377 1.513-3.377 3.376v61.614C12.5 88.49 14.016 90 15.88 90h67.68c1.865 0 3.377-1.51 3.377-3.376s-1.513-3.378-3.377-3.378z"/><path fill="#DD584A" d="M25.05 78.122c.612.47 1.332.698 2.053.698v-.002c1.014 0 2.018-.455 2.68-1.326L46.74 55.36l14.655 8.03c1.43.77 3.208.428 4.245-.83l15.1-18.525.004 8.396c0 1.867 1.515 3.38 3.38 3.38 1.86 0 3.377-1.513 3.377-3.377l-.007-15.604c0-1.866-1.513-3.38-3.38-3.38h-14.92c-1.862 0-3.38 1.514-3.38 3.38 0 1.863 1.516 3.377 3.38 3.377h5.946L62.176 56.113l-14.735-8.07c-1.466-.792-3.293-.42-4.305.91L24.423 73.388c-1.135 1.48-.855 3.6.626 4.734z"/></svg>