<svg xmlns="http://www.w3.org/2000/svg" width="30" height="30" viewBox="0 0 30 30"><path fill="#DFDFDF" d="M26.93 8.88c.013.267.02.532.02.8 0 8.134-6.19 17.515-17.516 17.515-3.47 0-6.71-1.022-9.433-2.768.485.055.974.085 1.47.085 2.886 0 5.538-.983 7.646-2.634-2.694-.047-4.964-1.83-5.75-4.277.375.076.76.11 1.158.11.563 0 1.105-.074 1.618-.216C3.33 16.93 1.21 14.442 1.21 11.46v-.08c.825.464 1.775.736 2.784.773-1.65-1.105-2.737-2.99-2.737-5.128 0-1.123.3-2.186.834-3.092 3.037 3.728 7.573 6.173 12.69 6.433-.11-.453-.164-.925-.164-1.4 0-3.402 2.76-6.16 6.158-6.16 1.77 0 3.37.75 4.493 1.943 1.403-.28 2.72-.787 3.908-1.495-.46 1.438-1.438 2.646-2.707 3.408 1.245-.15 2.43-.483 3.533-.97-.822 1.237-1.86 2.316-3.07 3.187z"/></svg>