<svg xmlns="http://www.w3.org/2000/svg" width="100" height="100" viewBox="0 0 100 100"><path fill="#58585A" d="M46.708 95c-.178 0-.36-.018-.534-.047L15.27 89.65c-1.55-.27-2.667-1.634-2.62-3.206l.766-24.072-4.66-24.246c-.206-1.068.15-2.168.95-2.904.795-.742 1.913-1.02 2.97-.73L33.41 40.13l7.173-3.143c1.582-.684 3.448.03 4.153 1.625.697 1.593-.03 3.45-1.624 4.152L34.92 46.35c-.66.283-1.388.34-2.092.152L15.9 41.9l3.77 19.635c.045.23.063.464.057.692l-.684 21.68 26.984 4.63 17.327-11.295c.77-.505 1.71-.65 2.597-.39l18.853 5.45-.897-19.14.985-19.043-13.585-5.37c-1.618-.64-2.41-2.473-1.772-4.088.636-1.622 2.48-2.418 4.086-1.773l15.69 6.203c1.26.495 2.06 1.744 1.99 3.094l-1.1 20.99 1.1 23.228c.05 1.017-.397 1.988-1.195 2.62-.794.623-1.844.84-2.828.555L65.59 83.307l-17.16 11.18c-.514.337-1.114.513-1.722.513z"/><path fill="#CEC43E" d="M56.22 5c-12.022 0-21.8 9.78-21.8 21.792 0 10.88 16.86 33.695 19.2 36.81.603.928 1.632 1.593 2.74 1.593 5.794 0 21.648-30.073 21.648-38.403C78.008 14.775 68.233 5 56.218 5zm.464 52.128c-6.886-9.574-15.96-24.24-15.96-30.335 0-8.542 6.946-15.49 15.495-15.49 8.536 0 15.485 6.947 15.487 15.49 0 6.602-10.234 23.89-15.024 30.335zM56.22 17.207c-5.21 0-9.453 4.244-9.453 9.455s4.24 9.454 9.452 9.454 9.454-4.243 9.454-9.454c0-5.213-4.244-9.455-9.455-9.455zm0 12.604c-1.735 0-3.15-1.413-3.15-3.15 0-1.733 1.415-3.15 3.15-3.15 1.737 0 3.153 1.417 3.153 3.15 0 1.737-1.42 3.15-3.154 3.15z"/></svg>