<svg xmlns="http://www.w3.org/2000/svg" width="100" height="100" viewBox="0 0 100 100"><path fill="#58585A" d="M58.52 50.038c15.29 0 21.668-12.874 22.9-19.68.27-1.512-.625-2.987-2.097-3.43-3.543-1.063-6.958-1.606-10.08-1.606-7.975 0-14.243 3.534-17.243 7.87v-5.854c6-1.282 11.073-4.11 13.99-8.454 4.9-7.302 2.76-16.026 2.665-16.396C68.273 1 66.82.033 65.325.246c-7.38 1.018-12.768 3.97-16.018 8.766-2.737 4.035-3.318 8.51-3.28 11.778-5.73-8.967-15.21-10.207-19.962-10.207-2.958 0-4.988.433-5.212.48-1.51.334-2.523 1.754-2.35 3.292C20.94 35.805 35.71 38.12 42.168 38.12c1.32 0 2.832-.088 2.832-.19v15.487l-19.48.004c-.87 0-1.44.378-2.015 1.03-.575.65-.71 1.52-.6 2.38L24.6 69.923c.195 1.51 1.542 3.078 3.06 3.078h.404l5.102 24.88c.287 1.408 1.527 2.12 2.962 2.12h27.655c1.438 0 2.677-.71 2.964-2.12l5.1-24.88h.4c1.52 0 2.802-1.575 3-3.08l1.627-12.877c.11-.86-.156-1.837-.73-2.49-.57-.653-1.436-1.083-2.304-1.083L52 53.415V49.32c1 .46 4.47.718 6.52.718zm10.763-18.674c1.7 0 3.517.205 5.435.61-1.542 4.262-5.773 12.02-16.164 12.02-1.722 0-3.57-.207-5.516-.624 1.555-4.263 5.817-12.007 16.245-12.006zM61.313 95H38.6l-4.368-22.22 31.447.328L61.31 95zm8.28-28.935l-39.275.01-.85-6.61 40.975-.01-.85 6.61zm-15.28-53.663c1.826-2.695 4.797-4.567 8.85-5.595.102 2.354-.19 5.78-2.155 8.708-1.82 2.714-4.815 4.604-8.92 5.642-.084-2.372.235-5.818 2.225-8.755zm-11.63 19.673c-6.83 0-15.2-2.765-17.713-15.423.342-.015.708-.027 1.097-.03 6.917 0 15.388 2.77 17.906 15.418-.397.022-.83.035-1.29.035z"/></svg>