<svg xmlns="http://www.w3.org/2000/svg" width="100" height="100" viewBox="0 0 100 100"><path fill="#58585A" d="M61.34 81.088H40.856c-8.423 0-8.52-6.063-8.587-8.98-.068-1.835-.13-3.016-.756-3.802-6.13-7.538-9.833-12.782-9.833-21.796 0-17.273 14.587-26.582 28.288-26.582 13.765 0 27.695 8.194 27.695 26.582 0 9.014-3.736 14.258-9.865 21.796-1.147 1.442-3.212 1.64-4.654.49-1.41-1.145-1.64-3.243-.492-4.653 5.966-7.342 8.392-10.98 8.392-17.633 0-14.75-11.374-19.96-21.076-19.96-10.75 0-21.665 6.85-21.665 19.96 0 6.653 2.425 10.29 8.358 17.633 2.1 2.59 2.165 5.605 2.23 7.834 0 .787.034 1.967.198 2.294 0 0 .426.2 1.77.2h20.485c1.803 0 3.31 1.475 3.31 3.31s-1.508 3.31-3.31 3.31zM42.56 61.26c-.917 0-1.802-.395-2.49-1.115-8.555-9.734-3.835-21.305-.1-26.024 1.115-1.44 3.18-1.7 4.622-.59 1.442 1.15 1.705 3.215.59 4.657-.327.426-7.178 9.57-.13 17.567 1.212 1.377 1.08 3.475-.296 4.654-.623.558-1.41.853-2.196.853zm18.19 29.498H38.563c-1.836 0-3.31-1.442-3.31-3.278 0-1.835 1.474-3.343 3.31-3.343h22.19c1.834 0 3.31 1.508 3.31 3.343s-1.476 3.278-3.31 3.278zM58.883 100h-18.42c-1.836 0-3.31-1.508-3.31-3.343 0-1.836 1.474-3.278 3.31-3.278h18.42c1.835 0 3.31 1.44 3.31 3.275s-1.475 3.343-3.31 3.343zm-9.21-85.283c-1.836 0-3.31-1.475-3.31-3.31V3.31c0-1.834 1.474-3.31 3.31-3.31s3.31 1.475 3.31 3.31v8.097c0 1.835-1.475 3.31-3.31 3.31zm-24.19 9.505c-.852 0-1.704-.328-2.36-.95l-5.703-5.736c-1.312-1.31-1.312-3.408 0-4.687 1.278-1.315 3.376-1.28 4.654 0l5.736 5.732c1.31 1.278 1.31 3.376 0 4.688-.655.623-1.507.95-2.327.95zm49.034 0c-.82 0-1.672-.328-2.327-.95-1.31-1.312-1.31-3.41 0-4.688l5.736-5.735c1.277-1.28 3.375-1.315 4.654 0 1.31 1.275 1.31 3.373 0 4.684l-5.703 5.736c-.656.623-1.508.95-2.36.95z"/></svg>