<svg xmlns="http://www.w3.org/2000/svg" width="100" height="100" viewBox="0 0 100 100"><path fill="#58585A" d="M10.157 92.982c0 1.12.896 2.018 2.017 2.018h75.653c1.12 0 2.017-.896 2.017-2.018 0-14.457-11.432-26.34-25.665-27.01 6.387-3.588 11.206-9.415 13.446-16.478 4.482-.337 8.07-4.147 8.07-8.742C85.696 21.03 69.67 5 49.946 5 30.217 5 14.19 21.03 14.19 40.754V58.35c0 1.12.898 2.018 2.02 2.018h12.44c2.017 2.24 4.48 4.148 7.06 5.605-14.233.67-25.553 12.55-25.553 27.01zm55.03-2.128V83.57h7.286v7.284h-7.285zm20.51 0H76.62V81.55c0-1.12-.898-2.017-2.017-2.017h-11.32c-1.122 0-2.02.896-2.02 2.018v9.305h-9.187v-20.96h10.758c11.88 0 21.855 9.3 22.864 20.96zm-7.06-45.84c.224-1.458.336-2.916.336-4.373 0-1.454-.112-2.912-.335-4.37 1.793.673 3.024 2.355 3.024 4.37 0 2.02-1.343 3.7-3.026 4.375zM49.943 9.034c14.683 0 27.125 10.087 30.6 23.76-.897-.447-1.906-.672-3.025-.784-3.702-11.767-14.685-20.286-27.575-20.286-12.89 0-23.873 8.52-27.57 20.286-1.122.114-2.13.337-3.027.785 3.475-13.673 15.916-23.76 30.598-23.76h-.002zm-28.58 35.98c-1.793-.675-3.026-2.355-3.026-4.373 0-2.016 1.233-3.697 3.026-4.37-.225 1.46-.336 2.915-.336 4.37 0 1.46.112 2.917.337 4.375zM18.34 56.22v-8.182c1.233.783 2.578 1.233 4.034 1.345.785 2.467 1.905 4.707 3.25 6.836H18.34zm23.537 0h-11.32c-3.474-4.26-5.492-9.64-5.492-15.58 0-13.79 11.208-24.882 24.88-24.882 13.787 0 24.882 11.208 24.882 24.882 0 13.673-11.207 24.88-24.88 24.88-5.718 0-11.098-2.017-15.355-5.268h7.285c1.12 0 2.018-.896 2.018-2.018 0-1.12-.897-2.014-2.018-2.015zM37.17 69.89h10.758v20.96H14.304c1.008-11.66 10.872-20.96 22.865-20.96zm6.947-18.49h5.605l-1.57 3.36c-.45 1.01 0 2.242 1.008 2.692.336.11.56.223.897.223.783 0 1.458-.448 1.793-1.12l2.914-6.277c0-.112 0-.112.112-.223V48.82c0-.112 0-.112-.112-.225 0-.112 0-.112-.11-.225 0-.113-.115-.113-.115-.225l-.114-.112-.112-.11-.112-.114-.11-.114c-.114 0-.114-.113-.227-.113 0 0-.11 0-.11-.112-.113 0-.113 0-.227-.11H47.7l4.037-8.52c.45-1.008 0-2.24-1.007-2.69-1.01-.45-2.242 0-2.692 1.01l-5.38 11.32c0 .11 0 .11-.11.224v1.234c0 .11 0 .11.11.224 0 .11 0 .11.113.225 0 .11.114.11.114.223l.113.112.112.113.112.11.113.112c.112 0 .112.112.225.112 0 0 .11 0 .11.11.112.007.224.007.45.12-.115-.113-.002 0 0 0z"/><circle fill="#58585A" cx="63.171" cy="37.952" r="2.017"/><circle fill="#58585A" cx="36.72" cy="37.952" r="2.017"/></svg>