<svg xmlns="http://www.w3.org/2000/svg" width="100" height="100" viewBox="0 0 100 100"><path fill="#58585A" d="M44.89 83.195c-11.115 0-21.564-4.32-29.423-12.172C-.726 54.796-.73 28.403 15.454 12.18 23.322 4.327 33.78 0 44.894 0s21.554 4.322 29.413 12.172c16.22 16.225 16.21 42.624-.01 58.844-7.85 7.86-18.298 12.18-29.407 12.18zm.004-75.72c-9.122 0-17.7 3.55-24.152 9.994-13.28 13.304-13.275 34.963.013 48.263 6.44 6.447 15.012 9.994 24.134 9.994 9.115 0 17.68-3.55 24.126-9.994 13.312-13.3 13.312-34.965.01-48.28-6.447-6.437-15.012-9.98-24.134-9.98v.002zM56.464 100c-10.216 0-20.446-3.855-28.278-11.588-4.44-4.413-7.718-9.61-9.747-15.473-.68-1.945.36-4.078 2.31-4.75 1.95-.678 4.074.36 4.75 2.304 1.654 4.776 4.325 9.017 7.94 12.61 12.855 12.672 33.625 12.562 46.316-.285 12.7-12.837 12.59-33.634-.255-46.343-1.47-1.45-1.485-3.817-.036-5.285 1.45-1.468 3.82-1.48 5.288-.032 15.772 15.614 15.92 41.138.32 56.91-7.85 7.953-18.225 11.93-28.61 11.93z"/><path fill="#71A8BE" d="M42.02 56.2c-.523 0-1.057-.037-1.603-.12-2.576-.4-5.138-1.764-7.203-3.828-2.91-2.876-4.012-7.14-2.868-11.105.575-1.974 2.635-3.114 4.627-2.553 1.983.574 3.127 2.644 2.553 4.623-.388 1.345-.023 2.776.953 3.738.95.953 2.07 1.586 3.083 1.742.99.15 1.56-.232 1.915-.593 1.11-1.112 2.26-2.266-.794-5.32-1.46-1.463-1.46-3.825 0-5.288 1.458-1.46 3.825-1.46 5.283 0 5.214 5.215 5.517 11.16.8 15.887-1.84 1.85-4.192 2.817-6.75 2.817zM46.266 44.9c-.957 0-1.915-.37-2.644-1.1-5.037-5.056-5.338-11.037-.797-15.623 4.198-4.176 10.667-3.774 15.417.97 2.9 2.887 4.003 7.113 2.89 11.033-.563 1.987-2.614 3.15-4.612 2.576-1.982-.565-3.137-2.63-2.576-4.614.38-1.312 0-2.726-.976-3.702-.305-.31-2.98-2.867-4.85-.98-.89.894-2.125 2.138.793 5.07 1.457 1.458 1.457 3.828-.006 5.283-.73.716-1.683 1.086-2.637 1.087zm-16.23 15.293c-.952 0-1.91-.365-2.64-1.094-1.457-1.463-1.457-3.82 0-5.283l6.065-6.067c1.457-1.457 3.818-1.457 5.28 0 1.46 1.46 1.46 3.826 0 5.285L32.68 59.1c-.728.728-1.68 1.093-2.643 1.093zM55.37 34.86c-.953 0-1.91-.365-2.64-1.094-1.46-1.46-1.46-3.83 0-5.284l5.302-5.297c1.458-1.463 3.83-1.454 5.278 0 1.46 1.46 1.46 3.834 0 5.288l-5.297 5.293c-.73.73-1.686 1.094-2.643 1.094z"/></svg>