<svg xmlns="http://www.w3.org/2000/svg" width="100" height="100" viewBox="0 0 100 100"><path fill="#71A8BE" d="M59.586 75.99C57.03 73.435 53.62 72.158 50 72.158s-7.03 1.488-9.586 3.832c-2.557 2.56-4.048 6.357-4.048 9.98 0 7.456 5.965 14.03 13.42 14.03H50c7.244 0 13.42-6.574 13.633-13.816 0-3.622-1.278-7.634-4.047-10.194zM50 91.115c-2.983 0-5.54-2.555-5.54-5.326 0-1.49.64-2.77 1.706-3.838 1.064-1.064 2.344-1.49 3.834-1.49 1.492 0 2.77.64 3.833 1.49 1.065 1.067 1.706 2.56 1.706 4.047-.22 2.56-2.77 5.115-5.54 5.115zM62.355 7.61C59.585 1.434 53.51-1.546 46.91-.055 40.516 1.435 37 7.61 37 14.217v1.276c0 2.343.11 5.113.323 7.67.64 11.502 1.12 22.793 1.758 34.298.216 5.965 4.498 10.65 10.46 10.65 5.97 0 10.46-4.685 10.46-10.86v-1.064c0-1.92.754-3.836.754-5.75.428-7.46 1.122-14.698 1.55-22.156.21-4.687.77-9.373.984-14.058.213-2.35-.08-4.69-.93-6.61zM44 14.327v-.75c0-2.982 1.83-5.324 4.172-5.965 2.557-.64 5.28.642 6.56 2.984.426.85.51 1.704.51 2.77-.214 4.688-.556 9.373-.77 14.272l-1.27 22.155C52.99 51.71 53 53.623 53 55.756v1.065c0 1.92-1.285 2.98-2.99 2.98-1.705 0-2.775-1.274-2.988-2.765-.638-11.505-1.617-23.06-2.255-34.564L44 14.326z"/></svg>