<svg xmlns="http://www.w3.org/2000/svg" width="100" height="100" viewBox="0 0 100 100"><path fill="#58585A" d="M99.918 48.78L90.682 23.4c-.154-.593-.55-1.102-1.088-1.395-.53-.29-1.115-.377-1.804-.15L71.068 28.42c-4.302-2.396-13.894-7.587-17.202-8.14-.607-.1-1.257-.152-1.93-.152-3.004 0-5.853 1.008-6.79 1.376-2 .24-10.914 1.438-17.176 4.454-4.966-2.597-8.973-5.52-9.433-5.86-.49-.367-1.163-.516-1.718-.412-.607.102-1.15.457-1.488.973L.37 43.396c-.662 1.007-.414 2.346.568 3.048l18.412 13.15c-.52 1.53-.474 3.06.14 4.452 1.057 2.41 3.505 3.827 5.078 4.52 1.25 4.46 4.26 5.138 5.97 5.138.34 0 .688-.026 1.04-.082 1.672 3.29 3.933 4 5.576 4 .63 0 1.265-.108 1.894-.32 1.08 1.095 2.77 2.306 5.11 2.598 2.234.278 3.513-.597 4.2-1.31.47-.49.78-1.04.982-1.56l2.49 1.75.123.08c.415.247 2.603 1.487 5 1.487.836 0 1.606-.15 2.284-.446.767-.33 1.796-1.003 2.536-2.37h.076c1.83 0 3.47-.467 4.74-1.352 1.26-.874 2.16-2.106 2.672-3.668 1.374-.185 3.14-.694 4.59-2.017 1.095-1.003 1.827-2.285 2.18-3.82 1.386-.1 3.13-.515 4.524-1.772 1.435-1.29 2.167-3.13 2.183-5.467l16.04-8.02c.937-.473 1.424-1.552 1.137-2.633zm-39.05 3.45c-.827.912-.758 2.328.154 3.158l10.725 9.73c-.105.916-.408 1.61-.9 2.064-.676.622-1.637.838-2.3.91L58.08 58.095c-.862-.824-2.33-.79-3.157.074-.85.892-.815 2.31.075 3.156l10.054 9.605c-.204.724-.533 1.237-1 1.563-.396.278-.914.454-1.538.525l-9.237-8.767c-.416-.394-.96-.61-1.535-.61-.61 0-1.202.254-1.623.697-.36.377-.57.86-.61 1.374-1.17-2.313-2.897-3.215-3.91-3.56-1.89-3.652-4.614-4.207-6.093-4.207-.2 0-.4.01-.605.028-1.212-3.19-3.468-3.687-4.75-3.687-1.406 0-2.746.597-3.748 1.207-1.387-1.34-2.853-2.02-4.364-2.02-1.597 0-3.11.773-4.41 2.246L5.285 44.054l12.506-19.01c1.97 1.338 5.336 3.5 9.176 5.42.644.322 1.444.306 2.07-.037 2.467-1.344 5.716-2.335 8.576-3.023-.42.42-.848.857-1.284 1.312-5.226 5.455-2.995 8.92-2.472 9.588 1.345 1.56 3.18 2.385 5.317 2.385 4.264 0 8.89-3.42 10.458-4.69l2.797-.31c2.766 8.243 11.96 11.9 14.226 12.686l11.583 11.58c-.077.744-.3 1.286-.665 1.617-.647.59-1.773.654-2.347.658l-11.2-10.153c-.875-.798-2.36-.724-3.156.152zm-10.605 15.5c-.02-.078-.042-.154-.063-.23l7.832 7.434c-.108.368-.282.742-.556.86-.136.058-.313.09-.528.09-.882 0-2.076-.506-2.61-.81l-4.332-3.037.357-3.924-.1-.384zm-4.904 7.256c-.023.16-.103.423-.13.465-.003 0-.244.05-.51.018-1.578-.197-2.598-1.353-2.977-1.864-.408-2.477.106-5.303 1.218-6.636.448-.536.81-.61 1.05-.614.123.01 1.184.158 1.82 2.167l-.523 6.35.05.117zM37.2 73.15l-.05.002c-.693 0-1.434-.948-2.04-2.605-.45-2.494 2.073-6.225 3.565-7.97.2-.074.5-.158.826-.158.443 0 .85.18 1.237.545-.435.314-.84.694-1.207 1.136-1.738 2.083-2.626 5.58-2.33 9.05zM23.715 60.685c.888-1.88 1.824-2.734 2.32-2.734.1 0 .42.044.975.51-.944 1.26-1.976 2.967-2.502 4.9-.422-.344-.725-.693-.896-1.037l-.034-.077c-.142-.328-.24-.77.136-1.56zm6.91.396l.982-.924c.716-.675 1.907-1.396 2.538-1.396.15 0 .482.296.755 1.368-1.372 1.685-3.965 5.33-4.265 9.098-.05.003-.1.004-.152.004-.87 0-1.47-.89-1.79-2.646l-.013-.077c-.35-1.91.856-3.996 1.945-5.427zm25.667-28.236c-.198-1.057-1.12-1.824-2.194-1.824-.077 0-.157.004-.247.013l-5.39.6c-.454.05-.88.238-1.232.544-1.185 1.048-5.21 4.042-8.058 4.042-.74 0-1.285-.198-1.743-.635-.045-.35.004-1.567 2.124-3.778 4.574-4.772 6.705-5.913 6.95-6.035l.097-.04c.282-.116 2.828-1.136 5.336-1.136.432 0 .833.03 1.194.09 2.082.348 10.116 4.442 16.618 8.12.538.304 1.123.4 1.834.166l15.465-6.133 8.052 21.414-14.83 7.413-10.832-10.832c-.268-.265-.584-.453-.93-.555-.44-.134-10.706-3.4-12.213-11.437z"/></svg>