<svg xmlns="http://www.w3.org/2000/svg" width="100" height="100" viewBox="0 0 100 100"><path fill="#58585A" d="M99.993 40.693c.02-4.45-3.597-8.09-8.062-8.115l-25.502-.015-.003-10.194c.007-.85-.32-1.65-.917-2.25-.595-.597-1.388-.925-2.257-.925H3.178c-.87 0-1.662.328-2.257.925-.597.6-.923 1.397-.917 2.248L0 32.56v37.41h.026c-.036.673.125 1.34.512 1.902.578.886 1.577 1.435 2.632 1.435l14.244-.07c1.412 4.53 5.613 7.563 10.375 7.563h.02c4.72 0 8.92-3.034 10.356-7.563l25.03-.272 5.365.03c1.417 4.533 5.614 7.682 10.36 7.686 4.73-.005 8.94-3.113 10.38-7.63l2.603.01c4.443-.01 8.076-3.65 8.094-8.12l-.007-24.25.003.004zM27.74 74.673c-2.538-.02-4.798-2.08-4.796-4.59.005-2.533 2.17-4.595 4.375-4.595h.233c2.527.012 4.703 2.066 4.708 4.576-.02 2.53-2.02 4.595-4.523 4.61h.002zm32.322-7.868H38.236c-1.36-4.635-5.595-8.037-10.447-8.037h-.005c-4.848 0-9.076 3.41-10.443 8.045L6.34 66.807v-41.27h53.735l-.013 41.268zm22.126 6.2c-.855.86-1.998 1.337-3.263 1.34-2.518-.003-4.567-2.058-4.57-4.58-.005-1.217.56-2.364 1.423-3.233.858-.858 2.193-1.336 3.287-1.348 1.207.012 2.25.488 3.104 1.35.86.87 1.335 2.027 1.33 3.265.004 1.204-.46 2.347-1.313 3.204zm11.666-7.707c.008 1.065-.873 1.892-1.955 1.905l-2.385-.08c-1.185-4.827-5.567-8.355-10.595-8.355h-.05c-4.986 0-9.34 3.493-10.53 8.31l-1.95.248.032-28.39h9.38v8.354c0 2.683 2.185 4.865 4.867 4.865h13.204l-.02 13.143zm.027-19.754H82.41v-6.61h9.504c1.1 0 1.966.64 1.977 1.738l-.01 4.872z"/><path fill="#CEC43E" d="M51.47 39.417H14.324c-1.657 0-3-1.343-3-3s1.343-3 3-3H51.47c1.656 0 3 1.343 3 3s-1.344 3-3 3zm0 10.603H14.324c-1.657 0-3-1.343-3-3s1.343-3 3-3H51.47c1.656 0 3 1.343 3 3s-1.344 3-3 3z"/></svg>