<svg xmlns="http://www.w3.org/2000/svg" width="100" height="100" viewBox="0 0 100 100"><path fill="#58585A" d="M97 34.7c-.277-1.376-1.483-2.366-2.888-2.366H81.525l.78-5.472c.248-1.748-1.147-3.36-2.913-3.36h-52.52c-1.466 0-2.71 1.078-2.916 2.528l-.9 6.305H8.734c-3.796 0-3.796 5.887 0 5.887h13.48l-.84 5.89H2.846C-.95 44.112-.95 50 2.846 50H20.53l-2.46 17.247c-.248 1.748 1.148 3.36 2.914 3.36h6.332c1.137 3.415 4.36 5.89 8.154 5.89 3.793 0 7.015-2.475 8.153-5.89h27.855c1.14 3.415 4.36 5.89 8.152 5.89s7.017-2.475 8.154-5.89h6.332c1.438 0 2.67-1.04 2.902-2.46L99.96 50.48c.063-.35.057-.71-.017-1.06L97 34.7zM35.465 70.608c-1.493 0-2.708-1.214-2.708-2.712 0-1.492 1.215-2.707 2.71-2.707 1.494 0 2.708 1.213 2.708 2.71 0 1.494-1.215 2.707-2.708 2.707h-.002zm35.483-5.89H43.446c-1.268-3.165-4.362-5.414-7.98-5.414s-6.713 2.245-7.98 5.416h-3.112l2.105-14.722h5.807c1.626 0 2.944-1.317 2.944-2.943 0-1.627-1.316-2.944-2.943-2.944H27.32l.84-5.886h15.905c1.625 0 2.944-1.318 2.944-2.943s-1.32-2.943-2.945-2.943H29.002l.42-2.944h46.574L70.95 64.717zm8.68 5.89c-1.493 0-2.71-1.214-2.71-2.71 0-1.492 1.214-2.707 2.712-2.707 1.49 0 2.707 1.214 2.707 2.708-.003 1.496-1.22 2.71-2.713 2.71h.003zm11.99-5.888h-4.012c-1.266-3.17-4.362-5.417-7.98-5.417-.684 0-1.348.09-1.988.244l3.045-21.324H91.7l.59 2.944H85.7c-1.544 0-2.827 1.193-2.936 2.734l-.42 5.89c-.058.814.226 1.617.782 2.217.555.598 1.338.938 2.154.938h8.3L91.616 64.72h.003z"/></svg>