<svg xmlns="http://www.w3.org/2000/svg" width="30" height="30" viewBox="0 0 30 30"><g fill="#DFDFDF"><path d="M7.487 16.455c2.737.08 4.313-2.233 3.84-5.83-.472-3.596-2.815-6.546-5.552-6.63-2.738-.08-4.575 2.672-4.102 6.27.473 3.595 3.076 6.107 5.814 6.19zM9.57 24.238c-.806-.26-1.693-.413-2.645-.424C3.95 23.782 1.315 25.17.1 27.1.486 28.762 1.972 30 3.75 30h10.383c.008-.136.018-.27.018-.408 0-.375-.045-.74-.13-1.096-.448-1.756-2.235-2.718-4.45-4.258zM7.43 22.598c-.807-.785-1.46-1.463-1.46-2.65 0-.705.225-1.377.54-1.98-.32.023-.648.04-.985.04-2.35 0-4.216-.803-5.524-2.113v8.117c1.56-.86 3.456-1.396 5.588-1.396.643-.002 1.232-.018 1.843-.018zM30 7.5V3.75C30 1.68 28.32 0 26.25 0H3.75C1.68 0 0 1.68 0 3.75v1.63c1.745-1.816 4.386-3.036 7.305-3.036h10.16l-2.27 2.383h-2.667c1.882 1.078 2.882 3.298 2.882 5.745 0 2.247-1.245 4.056-3.002 5.43-1.715 1.34-2.04 1.9-2.04 3.04 0 .973 2.05 2.422 2.99 3.128 3.282 2.46 3.946 4.01 3.946 7.088 0 .28-.028.562-.072.842h9.018c2.07 0 3.75-1.68 3.75-3.75V9.844h-4.688v4.688h-2.344V9.844H18.28V7.5h4.688V2.812h2.344V7.5H30z"/></g></svg>