<svg xmlns="http://www.w3.org/2000/svg" width="100" height="100" viewBox="0 0 100 100"><path fill="#58585A" stroke="#58585A" stroke-width="2" stroke-miterlimit="10" d="M12.077 46.23c-1.815 0-3.29-1.472-3.29-3.29 0-11.306 9.198-20.505 20.505-20.505h56.436c1.814 0 3.288 1.475 3.288 3.29 0 1.818-1.474 3.29-3.288 3.29H29.292c-7.68 0-13.927 6.248-13.927 13.927 0 1.82-1.473 3.29-3.29 3.29l.002-.003zm75.84-17.216c-.877 0-1.757-.35-2.406-1.048L71.624 13.03c-1.233-1.33-1.162-3.413.17-4.648 1.328-1.237 3.407-1.165 4.65.168l13.885 14.935c1.236 1.33 1.16 3.413-.166 4.65-.635.59-1.435.88-2.242.88zM74.03 43.948c-.803 0-1.607-.29-2.237-.877-1.328-1.237-1.406-3.32-.17-4.65L85.51 23.49c1.245-1.33 3.324-1.403 4.65-.17 1.33 1.236 1.406 3.32.17 4.647L76.44 42.898c-.65.697-1.528 1.048-2.41 1.05zm-3.325 33.617H14.27c-1.815 0-3.29-1.47-3.29-3.287 0-1.82 1.475-3.29 3.29-3.29h56.436c7.68 0 13.928-6.247 13.928-13.926 0-1.82 1.474-3.29 3.29-3.29s3.29 1.47 3.29 3.288c0 11.31-9.198 20.502-20.503 20.502l-.004.003zM25.965 92.5c-.883 0-1.762-.354-2.412-1.05L9.667 76.516c-1.234-1.325-1.16-3.41.168-4.648 1.326-1.236 3.41-1.162 4.65.17l13.886 14.93c1.236 1.327 1.16 3.41-.17 4.646-.63.59-1.435.884-2.235.884v.002zm-13.89-14.935c-.8 0-1.605-.29-2.24-.88-1.324-1.235-1.404-3.313-.165-4.647l13.89-14.935c1.24-1.332 3.323-1.4 4.65-.167 1.327 1.235 1.406 3.314.166 4.646l-13.89 14.934c-.65.7-1.53 1.05-2.41 1.05z"/></svg>