<svg xmlns="http://www.w3.org/2000/svg" width="100" height="100" viewBox="0 0 100 100"><path fill="#58585A" d="M44.89 83.2c-11.115 0-21.564-4.326-29.42-12.178-16.195-16.226-16.2-42.615-.016-58.84C23.324 4.327 33.778 0 44.892 0 56.008 0 66.45 4.32 74.31 12.17c16.22 16.226 16.21 42.63-.012 58.85-7.85 7.854-18.3 12.18-29.41 12.18zm.004-75.725c-9.12 0-17.7 3.55-24.15 9.992-13.28 13.307-13.276 34.968.013 48.273 6.44 6.44 15.012 9.99 24.132 9.99 9.113 0 17.682-3.55 24.123-9.99 13.31-13.308 13.316-34.97.01-48.283-6.445-6.436-15.01-9.982-24.13-9.982zM56.468 100c-10.22 0-20.448-3.857-28.282-11.585-4.442-4.413-7.72-9.61-9.748-15.476-.676-1.948.36-4.08 2.31-4.754 1.952-.677 4.078.36 4.753 2.31 1.657 4.774 4.327 9.02 7.94 12.606C46.3 95.78 67.07 95.662 79.765 82.824c12.7-12.844 12.585-33.636-.26-46.348-1.47-1.45-1.48-3.816-.032-5.283 1.45-1.47 3.815-1.48 5.287-.03 15.772 15.612 15.92 41.14.317 56.914C77.225 96.022 66.847 100 56.467 100zM42.023 56.202c-.525 0-1.06-.038-1.605-.122-2.58-.403-5.137-1.763-7.205-3.828-2.91-2.876-4.013-7.138-2.866-11.106.575-1.974 2.632-3.113 4.625-2.552 1.984.574 3.128 2.646 2.554 4.625-.388 1.34-.024 2.77.954 3.732.953.953 2.072 1.586 3.083 1.742.993.152 1.56-.234 1.917-.593 1.114-1.112 2.262-2.264-.793-5.32-1.46-1.46-1.46-3.824 0-5.284s3.824-1.46 5.283 0c5.215 5.215 5.518 11.157.803 15.883-1.842 1.85-4.196 2.82-6.75 2.82zm4.243-11.304c-.958 0-1.916-.367-2.646-1.1-5.035-5.056-5.337-11.037-.795-15.62 4.198-4.178 10.667-3.774 15.42.972 2.895 2.885 4.003 7.11 2.89 11.03-.565 1.985-2.618 3.15-4.616 2.573-1.987-.564-3.14-2.63-2.577-4.612.377-1.31-.004-2.723-.978-3.696-.308-.31-2.982-2.87-4.85-.983-.89.895-2.125 2.14.794 5.07 1.454 1.46 1.454 3.83-.01 5.284-.73.72-1.68 1.085-2.635 1.085zM30.04 60.195c-.954 0-1.912-.365-2.643-1.093-1.46-1.46-1.46-3.824 0-5.284l6.062-6.066c1.45-1.46 3.815-1.46 5.28 0 1.46 1.46 1.46 3.825 0 5.284l-6.06 6.066c-.73.728-1.686 1.093-2.643 1.093zM55.37 34.86c-.956 0-1.91-.363-2.64-1.092-1.462-1.46-1.462-3.83 0-5.283l5.3-5.298c1.463-1.463 3.826-1.453 5.284 0 1.46 1.46 1.46 3.832 0 5.285l-5.3 5.296c-.73.73-1.686 1.092-2.643 1.092z"/></svg>