<svg xmlns="http://www.w3.org/2000/svg" width="100" height="100" viewBox="0 0 100 100"><path fill="#58585A" d="M90.198 49.532c0 2.113-1.69 3.846-3.808 3.892-2.15.045-3.925-1.658-3.975-3.806-.195-8.49-3.6-16.47-9.6-22.46-6.197-6.2-14.43-9.613-23.196-9.613-8.76 0-16.99 3.413-23.185 9.612l-1.703 1.834c-1.46 1.58-3.924 1.666-5.505.204-1.57-1.47-1.662-3.925-.202-5.505l1.802-1.938C28.593 13.982 38.78 9.76 49.617 9.76c10.848 0 21.036 4.223 28.703 11.89 7.43 7.42 11.645 17.29 11.877 27.797v.087zm-49.64-23.174c0 2.148-1.744 3.894-3.893 3.893h-14.78c-1.075 0-2.1-.437-2.838-1.216-.73-.783-1.093-1.868-1.054-2.904l.863-14.78c.13-2.144 1.967-3.782 4.116-3.657 2.148.126 3.81 1.834 3.66 4.113l-.62 10.66h10.655c2.147 0 3.894 1.743 3.893 3.893l-.003-.003z"/><path fill="#71A8BE" d="M82.02 73.66c0 .942-.343 1.89-1.037 2.633l-1.78 1.937c-15.938 15.94-41.695 15.94-57.52.114C14.02 70.67 9.803 60.488 9.803 49.65c.083-2.406 1.714-4.018 3.904-4.01 2.15.002 3.883 1.747 3.883 3.892v.12c0 8.76 3.405 16.99 9.598 23.19 12.794 12.788 33.605 12.788 46.4 0l1.673-1.82c1.46-1.582 3.925-1.685 5.505-.23.832.772 1.256 1.816 1.256 2.868zM82.02 73.64c0 .075 0 .15-.01.227l-.862 14.78c-.122 2.143-1.966 3.783-4.116 3.658-2.146-.125-3.77-1.845-3.658-4.115l.63-10.658H63.338c-2.148 0-3.895-1.745-3.895-3.893 0-2.15 1.746-3.895 3.895-3.895h14.794c1.063 0 2.1.44 2.826 1.22.677.725 1.063 1.684 1.062 2.673z"/></svg>