<svg xmlns="http://www.w3.org/2000/svg" width="100" height="100" viewBox="0 0 100 100"><path fill="#DD584A" d="M58.846 54.954c-.668 0-1.34-.26-1.847-.77C44.77 41.887 26.184 23.234 25.082 22.25c-1.04-.932-1.187-2.54-.297-3.62.893-1.082 2.448-1.278 3.56-.435.73.555 17.992 17.883 32.34 32.323 1.017 1.017 1.01 2.666-.014 3.683-.498.504-1.166.756-1.83.756h.003zm-.552-17.804c-.667 0-1.33-.256-1.84-.764l-14.28-14.28c-1.018-1.017-1.018-2.665 0-3.68 1.018-1.018 2.667-1.018 3.684 0l14.28 14.277c1.017 1.017 1.017 2.666 0 3.683-.51.51-1.176.763-1.844.764z"/><path fill="#58585A" d="M85.048 83.337H14.184C7.99 83.337 0 78.627 0 73.622c0-4.68 2.872-6.95 8.536-6.95.915 0 1.88.045 2.863.09.922.043 1.863.086 2.783.086h70.87c.905 0 1.855-.043 2.806-.084 1.034-.047 2.06-.09 3.056-.09 6.025 0 9.086 2.268 9.086 6.743-.024 4.024-9.107 9.92-14.955 9.92zM8.536 71.88c-3.328 0-3.328.578-3.328 1.537.24 1.397 4.56 4.713 8.976 4.713h70.864c3.685 0 8.535-3.56 9.716-5.02-.104-.71-.69-1.23-3.852-1.23-.912 0-1.867.042-2.822.08-1.03.05-2.057.095-3.035.095h-70.87c-.997 0-2.02-.048-3.028-.094-.9-.04-1.784-.08-2.62-.08zm77.855-1.224c-1.436 0-2.602-1.167-2.602-2.604v-42.93c0-2.88-.127-3.25-3.445-3.25h-60.53c-3.6 0-3.6.338-3.6 2.967v43.205c0 1.438-1.168 2.604-2.604 2.604s-2.605-1.167-2.605-2.605V24.84c0-7.187 4.233-8.175 8.807-8.175h60.53c6.064 0 8.654 2.53 8.654 8.458v42.932c0 1.435-1.17 2.6-2.602 2.6zm-27.007 3.927H40.608c-1.437 0-2.603-1.166-2.603-2.603 0-1.438 1.167-2.604 2.603-2.604h18.774c1.437 0 2.604 1.167 2.604 2.604s-1.168 2.603-2.604 2.603z"/></svg>