<svg xmlns="http://www.w3.org/2000/svg" xmlns:xlink="http://www.w3.org/1999/xlink" width="100" height="68" viewBox="0 0 100 68"><path fill="#DB594A" d="M0 34l33.044 33.046.09-.045L100 34 33.133 1.006v-.004L33.04.954 0 34z"/><path fill="#DC5949" d="M33.133 1.002L33.04.954 0 34h33.133V1.002z"/><defs><path id="a" d="M33.133 66.997V34H0l33.044 33.046z"/></defs><clipPath id="b"><use xlink:href="#a" overflow="visible"/></clipPath><linearGradient id="c" gradientUnits="userSpaceOnUse" x1="14.102" y1="656.137" x2="15.988" y2="656.137" gradientTransform="scale(17.537) rotate(144.68 -96.763 -328.92)"><stop offset="0" stop-color="#B84435"/><stop offset=".464" stop-color="#DB594A"/><stop offset="1" stop-color="#DB594A"/></linearGradient><path clip-path="url(#b)" fill="url(#c)" d="M48.72 56L11.07 82.67l-26.658-37.628L22.06 18.37l26.66 37.627V56z"/><defs><path id="d" d="M100 34L33.133 1.006V34z"/></defs><clipPath id="e"><use xlink:href="#d" overflow="visible"/></clipPath><linearGradient id="f" gradientUnits="userSpaceOnUse" x1="57.563" y1="733.621" x2="59.447" y2="733.621" gradientTransform="matrix(0 -17.512 -17.512 0 12913.734 1041.938)"><stop offset="0" stop-color="#B84435"/><stop offset=".464" stop-color="#DB594A"/><stop offset="1" stop-color="#DB594A"/></linearGradient><path clip-path="url(#e)" fill="url(#f)" d="M100 34H33.133V1.006H100V34z"/><defs><path id="g" d="M100 34H33.133v33z"/></defs><clipPath id="h"><use xlink:href="#g" overflow="visible"/></clipPath><linearGradient id="i" gradientUnits="userSpaceOnUse" x1="47.984" y1="704.419" x2="49.87" y2="704.419" gradientTransform="scale(26.668) rotate(-126.7 202.535 -339.82)"><stop offset="0" stop-color="#B84435"/><stop offset=".464" stop-color="#DB594A"/><stop offset="1" stop-color="#DB594A"/></linearGradient><path clip-path="url(#h)" fill="url(#i)" d="M57.018 99.035l-39.69-53.252L76.12 1.958l39.688 53.255-58.79 43.82v.002z"/></svg>