<svg xmlns="http://www.w3.org/2000/svg" xmlns:xlink="http://www.w3.org/1999/xlink" width="100" height="68" viewBox="0 0 100 68"><path fill="#58595B" d="M.004 34l33.044 33.043.09-.048L100 34 33.137 1.01v-.005L33.045.96 0 34h.004z"/><defs><path id="a" d="M0 34h33.137V1l-.092-.043z"/></defs><clipPath id="b"><use xlink:href="#a" overflow="visible"/></clipPath><linearGradient id="c" gradientUnits="userSpaceOnUse" x1="-39.397" y1="723.291" x2="-37.511" y2="723.291" gradientTransform="scale(14.298) rotate(-142.9 103.018 -367.646)"><stop offset="0" stop-color="#717275"/><stop offset=".137" stop-color="#717275"/><stop offset=".713" stop-color="#58595B"/><stop offset="1" stop-color="#58595B"/></linearGradient><path clip-path="url(#b)" fill="url(#c)" d="M21.083 49.94L-15.89 21.977 12.06-14.98l36.976 27.96-27.952 36.96v-.002z"/><path fill="#58595B" d="M33.137 66.995V34H0l33.045 33.043.092-.048z"/><defs><path id="d" d="M33.137 34H100L33.137 1z"/></defs><clipPath id="e"><use xlink:href="#d" overflow="visible"/></clipPath><linearGradient id="f" gradientUnits="userSpaceOnUse" x1="52.763" y1="734.977" x2="54.647" y2="734.977" gradientTransform="matrix(0 17.512 17.512 0 -12804.344 -922.813)"><stop offset="0" stop-color="#717275"/><stop offset=".137" stop-color="#717275"/><stop offset=".713" stop-color="#58595B"/><stop offset="1" stop-color="#58595B"/></linearGradient><path clip-path="url(#e)" fill="url(#f)" d="M33.137 1.005H100V34H33.137V1.005z"/><defs><path id="g" d="M33.137 34v32.99L100 34z"/></defs><clipPath id="h"><use xlink:href="#g" overflow="visible"/></clipPath><linearGradient id="i" gradientUnits="userSpaceOnUse" x1="46.351" y1="705.79" x2="48.235" y2="705.79" gradientTransform="scale(26.702) rotate(52.316 -695.36 -397.907)"><stop offset="0" stop-color="#717275"/><stop offset=".137" stop-color="#717275"/><stop offset=".713" stop-color="#58595B"/><stop offset="1" stop-color="#58595B"/></linearGradient><path clip-path="url(#h)" fill="url(#i)" d="M75.014 1.654l40.946 53.01L58.122 99.34 17.175 46.33l57.84-44.673z"/></svg>