<svg xmlns="http://www.w3.org/2000/svg" xmlns:xlink="http://www.w3.org/1999/xlink" width="100" height="68" viewBox="0 0 100 68"><path fill="#8EC6DC" d="M.003 34.025l33.04 33.04.095-.045L100 34.025 33.138 1.03v-.003L33.042.98.002 34.026z"/><path fill="#BEDFE5" d="M33.134.982l-.092-.046-33.04 33.04h33.132V.98v.002z"/><defs><path id="a" d="M33.045 67.02l.093-.048V33.98H0z"/></defs><clipPath id="b"><use xlink:href="#a" overflow="visible"/></clipPath><linearGradient id="c" gradientUnits="userSpaceOnUse" x1="-13.08" y1="741.254" x2="-11.197" y2="741.254" gradientTransform="matrix(0 20.46 20.46 0 -15148.75 297.656)"><stop offset="0" stop-color="#8EC6DC"/><stop offset=".809" stop-color="#BEDFE5"/><stop offset="1" stop-color="#BEDFE5"/></linearGradient><path clip-path="url(#b)" fill="url(#c)" d="M.003 67.02V33.977H33.14V67.02H.004z"/><defs><path id="d" d="M33.134 33.98H100L33.134.982z"/></defs><clipPath id="e"><use xlink:href="#d" overflow="visible"/></clipPath><linearGradient id="f" gradientUnits="userSpaceOnUse" x1="35.748" y1="723.139" x2="37.633" y2="723.139" gradientTransform="matrix(35.488 0 0 -35.488 -1235.5 25680.188)"><stop offset="0" stop-color="#8EC6DC"/><stop offset=".809" stop-color="#BEDFE5"/><stop offset="1" stop-color="#BEDFE5"/></linearGradient><path clip-path="url(#e)" fill="url(#f)" d="M33.134 33.98V.982H100V33.98H33.134z"/><defs><path id="g" d="M33.134 66.972L100 33.98H33.134z"/></defs><clipPath id="h"><use xlink:href="#g" overflow="visible"/></clipPath><linearGradient id="i" gradientUnits="userSpaceOnUse" x1="18.348" y1="665.798" x2="20.232" y2="665.798" gradientTransform="scale(22.862) rotate(-123.896 188.73 -327.62)"><stop offset="0" stop-color="#8EC6DC"/><stop offset=".809" stop-color="#BEDFE5"/><stop offset="1" stop-color="#BEDFE5"/></linearGradient><path clip-path="url(#h)" fill="url(#i)" d="M53.936 97.924L17.866 44.24 79.212 3.028l36.064 53.683-61.34 41.22v-.004z"/></svg>