<svg xmlns="http://www.w3.org/2000/svg" width="100" height="100" viewBox="0 0 100 100"><path fill="#58585A" d="M24.473 58.893h18.612c-.33-1.656-.477-3.332-.44-5.026H24.472v5.026m0 6v5.028H48.48c-1.248-1.475-2.33-3.154-3.25-5.026H24.474m0 11.025v5.027h35.624V77.27c-.476-.142-.97-.306-1.484-.482v-.058c-.698-.252-1.377-.52-2.037-.81H24.473m19.16-28.053c.148-.578.332-1.153.552-1.73.44-1.152.936-2.25 1.487-3.296h-21.2v5.027h19.162m5.122.27c-.735 1.944-1.14 3.854-1.212 5.73-.11 1.693.054 3.37.495 5.025.293 1.334.753 2.65 1.376 3.948.33.72.696 1.405 1.102 2.053 1.25 1.983 2.772 3.656 4.57 5.027 1.542 1.188 3.32 2.145 5.34 2.865 1.947.685 3.875 1.1 5.783 1.243 1.73.072 3.452-.072 5.176-.433 1.322-.288 2.663-.738 4.022-1.352 4.88-2.232 8.26-5.855 10.13-10.863 1.872-4.973 1.69-9.873-.55-14.702-1.14-2.38-2.625-4.396-4.46-6.054l.055-.054c-.807-.684-1.69-1.315-2.644-1.893-.55-.396-1.157-.756-1.82-1.08l.554-1.46 2.972 1.08h.054c.624.18 1.23.145 1.817-.108.624-.29 1.065-.757 1.324-1.405.22-.615.182-1.227-.11-1.838-.258-.612-.717-1.026-1.378-1.242l-4.514-1.623c-.074-.036-.165-.072-.276-.108-.073-.036-.165-.072-.275-.108l-2.588-.918c-.368-.18-.754-.342-1.156-.486l-1.267-.434h-.166c-.035-.036-.073-.054-.11-.054-.584-.144-1.118-.09-1.597.162-.66.25-1.102.702-1.32 1.352-.258.612-.24 1.224.053 1.838.296.612.77 1.044 1.435 1.296l2.422.92-.606 1.514c-1.355-.324-2.697-.486-4.018-.486H66.21c-2.457.108-4.88.72-7.267 1.837-2.974 1.296-5.378 3.135-7.213 5.514-1.174 1.48-2.128 3.152-2.864 5.027-.036.07-.07.162-.107.27m5.612-.27c1.103-2.09 2.662-3.767 4.68-5.027.624-.396 1.285-.756 1.984-1.082 1.724-.792 3.448-1.224 5.175-1.296.367-.038.717-.056 1.046-.056 1.212 0 2.442.162 3.69.486.11.038.257.072.44.108.22.074.44.163.66.27l.11.056h.055l.11.054.222.108c1.76.65 3.32 1.57 4.68 2.758h-.057c1.323 1.224 2.404 2.738 3.25 4.54 1.54 3.28 1.8 6.633.77 10.054-.073.182-.147.38-.22.595-.073.216-.167.45-.275.702l-.058.107c-1.395 3.425-3.836 5.945-7.323 7.567-.66.29-1.303.523-1.93.702-1.725.543-3.45.738-5.175.595-1.32-.105-2.68-.413-4.073-.918-.33-.073-.642-.18-.937-.324l-1.103-.54c-1.247-.65-2.348-1.46-3.303-2.434-1.175-1.152-2.148-2.522-2.92-4.106-.292-.613-.512-1.245-.66-1.895-.55-1.656-.77-3.33-.66-5.026.11-1.368.404-2.72.88-4.053.262-.684.573-1.33.942-1.943M71.495 43c-.66-.216-1.303-.18-1.926.108-.59.288-1.03.74-1.323 1.353L63.73 56.136c-.07.144-.13.288-.166.433-.035.107-.09.216-.164.324-.258.65-.24 1.28.054 1.892.258.577.698 1.01 1.322 1.3.478.142.955.196 1.432.16.184-.036.366-.106.55-.215l9.526-4.164c.55-.287.992-.757 1.322-1.405.184-.61.146-1.223-.11-1.837-.294-.648-.753-1.08-1.376-1.295-.66-.29-1.303-.272-1.93.054l-3.907 1.73 2.645-6.92c.256-.648.238-1.262-.057-1.838-.292-.612-.73-1.044-1.318-1.296 0-.037-.02-.057-.057-.058M67.86 24.192c-1.32-.83-2.972-1.333-4.955-1.512v-.056h-2.808c-.294-2.016-1.21-3.765-2.754-5.243-1.25-1.223-2.643-2.053-4.185-2.485v-.216c0-2.668-.972-4.956-2.916-6.866-1.947-1.875-4.278-2.812-6.995-2.812h-3.303c-2.754-.036-5.103.884-7.048 2.758v.054c-1.946 1.91-2.9 4.2-2.864 6.864v.218c-1.578.432-2.992 1.242-4.24 2.432l-.055.054c-1.467 1.514-2.367 3.262-2.7 5.243-6.57 0-9.855 3.245-9.855 9.73v52.862c0 6.523 3.286 9.783 9.855 9.783h39.868v-.106c5.652-.468 8.48-3.693 8.48-9.677v-7.35c-1.724.32-3.448.468-5.177.433v6.917c0 3.063-1.52 4.648-4.568 4.757h-38.6c-3.156-.036-4.734-1.62-4.734-4.757V32.354c0-3.1 1.54-4.667 4.624-4.703.184 2.307 1.14 4.307 2.864 6 1.946 1.91 4.277 2.866 6.993 2.866H50.85c1.725-1.514 3.726-2.775 6.003-3.784h-.113c.698-.324 1.378-.594 2.038-.81.847-1.296 1.32-2.72 1.43-4.27h1.435c.77.035 1.45.16 2.037.377.66-1.623 1.817-2.793 3.47-3.514.035-.036.092-.072.164-.108.183-.072.367-.144.55-.218M46.608 11.38c.88.864 1.36 1.91 1.43 3.135H35.157c.036-1.226.495-2.27 1.377-3.135v-.054c.954-.864 2.09-1.296 3.413-1.296h3.303c1.32-.036 2.44.414 3.358 1.35m3.744 8.217h.22c1.213.036 2.26.486 3.14 1.352.92.9 1.395 2 1.433 3.296v2.486c-.038 1.296-.514 2.396-1.432 3.297l-.056.053c-.92.9-2.02 1.35-3.303 1.35H32.788c-1.323 0-2.44-.45-3.358-1.35-.954-.936-1.414-2.055-1.377-3.352v-2.485c0-1.26.44-2.36 1.323-3.297.036 0 .054-.018.054-.054.918-.83 1.964-1.262 3.138-1.298h17.784z"/></svg>