<svg xmlns="http://www.w3.org/2000/svg" width="100" height="100" viewBox="0 0 100 100"><path fill="#58585A" d="M50 84.234c-18.91 0-34.293-15.38-34.293-34.292S31.09 15.646 50 15.646c18.908 0 34.294 15.387 34.294 34.297 0 18.912-15.386 34.29-34.294 34.29zm0-62.795c-15.715 0-28.5 12.79-28.5 28.502 0 15.716 12.785 28.5 28.5 28.5s28.502-12.782 28.502-28.5C78.502 34.23 65.715 21.44 50 21.44zm-15.014 2.8c-.045 0-.09 0-.132-.004-1.6-.07-2.836-1.42-2.764-3.02l.698-15.68c.02-.48.162-.95.41-1.365.83-1.386 4.058-4.506 16.76-4.14.464.017.996.02 1.6.017 3.31-.013 8.5-.02 14.26 2.226 1.11.434 1.846 1.505 1.846 2.7V21.34c0 1.6-1.298 2.897-2.897 2.897-1.597 0-2.896-1.298-2.896-2.897V7.036c-4-1.208-7.537-1.172-10.303-1.197-.66 0-1.274 0-1.795-.017-7.033-.248-10.095.754-11.256 1.31l-.637 14.34c-.07 1.553-1.354 2.767-2.89 2.767h-.004zM51.98 100c-.698 0-1.426-.014-2.188-.033-.482-.02-1.03-.023-1.636-.018-3.247.077-8.48.003-14.222-2.23-1.117-.43-1.85-1.503-1.85-2.7V78.65c0-1.6 1.3-2.896 2.897-2.896 1.6 0 2.898 1.298 2.898 2.896v14.308c3.987 1.2 7.595 1.24 10.272 1.2.696-.006 1.3-.004 1.832.018 7.015.26 10.09-.76 11.25-1.314l.637-14.336c.07-1.6 1.58-2.864 3.02-2.765 1.6.073 2.835 1.422 2.765 3.022l-.697 15.676c-.02.484-.163.95-.41 1.367C65.768 97.12 62.805 100 51.98 100z"/><path fill="#DD584A" d="M34.304 61.26c-1.143 0-2.228-.68-2.686-1.81-.6-1.48.117-3.17 1.6-3.77l14.45-5.85V32.814c0-1.6 1.3-2.896 2.898-2.896 1.6 0 2.896 1.296 2.896 2.895V51.78c0 1.182-.716 2.243-1.81 2.686l-16.262 6.58c-.354.147-.724.215-1.086.214z"/></svg>