<svg xmlns="http://www.w3.org/2000/svg" width="100" height="100" viewBox="0 0 100 100"><path fill="#58585A" d="M87.936 60.44h-33.79c.057-.24.096-.484.096-.74V43.73c0-5.004-4.066-9.074-9.066-9.074H43.93v-10.82c0-9.78-7.953-17.73-17.733-17.73-9.78 0-17.73 7.952-17.73 17.73v10.85C3.747 34.997 0 38.93 0 43.73v28.547c0 5.002 4.065 9.072 9.065 9.072h6.757v.003c1.736 0 3.146-1.408 3.146-3.145s-1.41-3.146-3.146-3.146H9.065c-1.53 0-2.775-1.25-2.775-2.785V43.73c0-1.533 1.245-2.783 2.775-2.783h36.112c1.53 0 2.775 1.248 2.775 2.783V59.7c0 .256.04.5.097.74H33.96c-6.652 0-12.06 5.413-12.06 12.063v9.327c0 6.65 5.408 12.065 12.06 12.065h53.978C94.586 93.895 100 88.48 100 81.83v-9.328c0-6.648-5.414-12.063-12.064-12.063zM26.198 12.393c6.312 0 11.442 5.132 11.442 11.442v10.82H14.756v-10.82c0-6.312 5.132-11.442 11.442-11.442zm67.51 69.438c0 3.182-2.59 5.773-5.772 5.773H33.958c-3.18 0-5.77-2.594-5.77-5.773v-9.33c0-3.182 2.59-5.77 5.772-5.77v-.003h53.976c3.18 0 5.773 2.593 5.773 5.772v9.33z"/><circle fill="#CEC43E" cx="41.176" cy="77.17" r="4.395"/><circle fill="#CEC43E" cx="54.492" cy="77.17" r="4.395"/><circle fill="#CEC43E" cx="67.805" cy="77.167" r="4.397"/><path fill="#CEC43E" d="M81.122 72.777c2.425 0 4.394 1.964 4.394 4.39 0 2.43-1.967 4.397-4.394 4.397-2.433 0-4.396-1.97-4.396-4.397 0-2.426 1.963-4.39 4.396-4.39z"/></svg>