<svg xmlns="http://www.w3.org/2000/svg" width="100" height="100" viewBox="0 0 100 100"><path fill="#58585A" stroke="#58585A" stroke-width="2" stroke-linecap="round" stroke-miterlimit="3" d="M56.738 69.794c.12-.312.393-.86 1.025-1.812l.125-.19c.77-1.177 1.196-1.825 1.528-3.517.056-.27.385-.957.655-1.24.924-.938 1.897-4.133 1.267-6.03-.023-.067-.076-.192-.16-.36-.27-.54-.324-.773-.322-.877.145-2.035-.06-3.934-.6-5.644-.77-2.49-3.03-4.74-5.753-5.733-1.65-.603-3.136-.687-4.515-.687-1.36 0-2.844.083-4.485.688-2.76 1.004-4.97 3.2-5.767 5.725-.54 1.69-.74 3.59-.602 5.66.003.1-.05.332-.32.87-.082.17-.136.294-.164.376-.625 1.866.343 5.064 1.255 6.005.286.3.613.98.667 1.25.335 1.69.758 2.336 1.526 3.506l.173.26c.6.903.864 1.44.98 1.748C41.024 71.135 33 76.308 33 80.385c0 1.305-.003 3.488 2.77 4.98 2.49 1.334 7.01 1.96 14.23 1.96 7.216 0 11.736-.626 14.227-1.96C67.003 83.872 67 81.687 67 80.31c0-3.78-8.035-9.12-10.262-10.516zm5.965 12.727c-1.945 1.046-6.22 1.577-12.7 1.577-6.483 0-10.756-.53-12.703-1.576-1.072-.572-1.072-1.028-1.07-2.208 0-1.83 6.96-6.978 8.877-7.896.67-.293 1.152-.83 1.354-1.52.43-1.448-.467-3.084-1.525-4.676l-.134-.205c-.684-1.045-.846-1.29-1.06-2.365-.156-.795-.74-2.067-1.445-2.79-.32-.47-.768-2.25-.59-2.77.22-.44.733-1.468.65-2.544-.11-1.65.043-3.146.46-4.454.486-1.547 2.012-3.02 3.8-3.67 1.23-.453 2.342-.49 3.394-.49 1.033 0 2.15.037 3.385.49 1.785.652 3.306 2.123 3.785 3.67.413 1.308.573 2.847.46 4.443-.077 1.045.395 2.034.66 2.57.142.622-.284 2.292-.54 2.682-.767.8-1.348 2.067-1.505 2.862-.213 1.075-.356 1.298-1.063 2.372l-.156.24c-1.032 1.55-1.93 3.186-1.5 4.63.203.69.684 1.23 1.332 1.51 4.015 1.99 8.846 7.184 8.904 7.985.002 1.105.002 1.56-1.07 2.135zM89.74 38.778c.12-.313.396-.863 1.03-1.817l.13-.203c.77-1.172 1.19-1.82 1.524-3.512.05-.262.384-.955.647-1.23.924-.935 1.903-4.132 1.27-6.03-.02-.065-.073-.19-.157-.36-.29-.58-.326-.807-.324-.88.143-2.033-.06-3.933-.597-5.645-.79-2.523-2.996-4.718-5.76-5.733-1.652-.602-3.137-.685-4.516-.685-1.354 0-2.836.083-4.49.686-2.76 1.01-4.97 3.207-5.76 5.727-.536 1.69-.74 3.59-.604 5.657.006.1-.05.332-.316.872-.088.18-.145.312-.164.38-.625 1.87.346 5.068 1.257 5.998.284.295.612.983.668 1.248.333 1.7.76 2.35 1.532 3.526l.17.26c.593.892.857 1.42.975 1.73C74.028 40.11 66 45.286 66 49.362c0 1.307 0 3.492 2.77 4.982 2.49 1.34 7.014 1.96 14.23 1.96s11.74-.62 14.228-1.96c2.77-1.49 2.77-3.675 2.77-5.057 0-3.786-8.03-9.117-10.26-10.51h.002zM95.703 51.5c-1.946 1.047-6.22 1.577-12.7 1.577-6.483 0-10.756-.53-12.702-1.577-1.07-.575-1.07-1.034-1.07-2.213 0-1.83 6.958-6.974 8.878-7.895.67-.29 1.15-.83 1.355-1.517.43-1.44-.463-3.075-1.525-4.68L77.81 35c-.704-1.075-.852-1.298-1.064-2.387-.163-.79-.744-2.06-1.45-2.782-.316-.47-.768-2.245-.583-2.773.218-.44.728-1.466.646-2.537-.11-1.65.044-3.148.46-4.458.483-1.542 2.01-3.016 3.79-3.668 1.24-.45 2.353-.49 3.405-.49 1.032 0 2.146.04 3.383.49 1.78.654 3.307 2.128 3.79 3.67.41 1.306.57 2.844.452 4.456-.068 1.04.4 2.026.666 2.56.143.622-.287 2.29-.545 2.683-.767.802-1.347 2.074-1.5 2.86-.212 1.073-.376 1.32-1.06 2.363l-.172.262c-1.025 1.55-1.918 3.182-1.49 4.62.202.687.684 1.226 1.332 1.506 4.013 1.984 8.843 7.18 8.902 7.982 0 1.106 0 1.565-1.07 2.14v.004zM31.23 54.343C34 52.85 34 50.665 34 49.285c0-3.78-8.034-9.117-10.26-10.51.12-.313.394-.86 1.024-1.813l.115-.178c.776-1.18 1.204-1.833 1.54-3.533.053-.27.38-.954.652-1.235.92-.933 1.897-4.13 1.27-6.022-.024-.065-.078-.196-.164-.367-.272-.544-.324-.778-.32-.882.142-2.003-.067-3.956-.6-5.64-.772-2.485-3.032-4.737-5.76-5.738-1.646-.602-3.13-.686-4.51-.686-1.356 0-2.837.082-4.49.685-2.76 1.01-4.968 3.205-5.764 5.727-.536 1.688-.74 3.585-.604 5.66.003.1-.047.33-.313.866-.093.188-.15.33-.167.38-.625 1.868.34 5.063 1.253 6.003.285.296.615.98.668 1.248.337 1.695.76 2.343 1.53 3.52l.173.26c.592.896.857 1.427.975 1.736C8.025 40.114 0 45.278 0 49.36c0 1.307-.002 3.49 2.77 4.983 2.49 1.337 7.012 1.96 14.232 1.96 7.218 0 11.738-.623 14.228-1.96zM3.225 49.285c0-1.788 7.015-7 8.88-7.895.67-.29 1.152-.83 1.355-1.517.43-1.44-.462-3.076-1.526-4.68L11.807 35c-.703-1.075-.85-1.297-1.066-2.385-.16-.793-.745-2.062-1.445-2.778-.32-.47-.766-2.25-.58-2.79.234-.473.722-1.46.64-2.522-.108-1.653.045-3.153.46-4.458.488-1.543 2.013-3.018 3.793-3.67 1.24-.452 2.352-.49 3.402-.49 1.035 0 2.15.038 3.38.49 1.79.655 3.312 2.127 3.792 3.672.416 1.307.575 2.844.46 4.44-.076 1.046.394 2.035.66 2.57.142.624-.285 2.295-.54 2.683-.766.797-1.348 2.067-1.506 2.86-.213 1.084-.36 1.31-1.07 2.39l-.165.248c-1.02 1.55-1.91 3.18-1.482 4.616.205.688.687 1.225 1.333 1.505 4.015 1.99 8.845 7.184 8.905 7.984 0 1.104 0 1.562-1.072 2.137-1.945 1.048-6.22 1.578-12.698 1.578-6.483 0-10.76-.53-12.704-1.577-1.074-.574-1.074-1.033-1.073-2.214h-.002zm80.702 13.697c-3.587 3.42-9.323 6.295-16.15 8.098-.86.23-1.376 1.11-1.146 1.972.193.726.848 1.202 1.56 1.202.137 0 .274-.02.413-.055 7.45-1.97 13.52-5.04 17.553-8.886.646-.613.67-1.637.057-2.278-.615-.646-1.637-.67-2.28-.056l-.006.002zM32.225 71.08c-6.826-1.803-12.562-4.678-16.15-8.098-.644-.614-1.665-.59-2.28.055-.614.646-.59 1.665.056 2.28 4.033 3.845 10.103 6.915 17.553 8.885.14.034.277.052.413.052.715 0 1.367-.48 1.56-1.202.225-.86-.29-1.743-1.15-1.972zm-.095-33.14c10.933-2.915 24.808-2.915 35.74 0 .14.037.278.055.416.055.713 0 1.364-.476 1.557-1.198.23-.86-.282-1.744-1.142-1.974-5.813-1.55-12.104-2.337-18.697-2.337-6.595 0-12.886.787-18.702 2.337-.86.23-1.372 1.112-1.143 1.974.23.86 1.115 1.373 1.973 1.143z"/></svg>