<svg xmlns="http://www.w3.org/2000/svg" width="100" height="100" viewBox="0 0 100 100"><path fill="#58585A" d="M59.92 46.932l22.35-11.076c1.893 1.72 4.793 2.12 7.07.926 3.043-1.6 4.22-5.377 2.622-8.42-1.08-2.058-3.195-3.336-5.522-3.336-1 0-2 .248-2.893.715-2.2 1.16-3.493 3.54-3.296 6.012L57.77 42.896c-.362-.44-.753-.846-1.167-1.216l18.725-26.128c.986.073 1.953-.072 2.834-.44 3.172-1.327 4.674-4.986 3.35-8.157-.972-2.327-3.23-3.832-5.754-3.832-.825 0-1.632.163-2.398.483-1.537.64-2.73 1.843-3.363 3.382-.632 1.54-.627 3.235.015 4.77.277.667.674 1.278 1.182 1.823l-18.59 25.812M37.876 49.97l-26.58 8.63c-1.175-1.65-3.04-2.624-5.068-2.624C2.794 55.976 0 58.772 0 62.21s2.796 6.23 6.232 6.23c3.142 0 5.73-2.294 6.15-5.39l26.385-8.593c.53 1.256 1.29 2.42 2.23 3.402L29.713 74.3c-.355-.07-.716-.106-1.076-.106-2.433 0-4.548 1.56-5.262 3.885-.432 1.41-.29 2.9.4 4.2.69 1.304 1.846 2.258 3.254 2.69.53.16 1.075.244 1.623.244 2.436 0 4.553-1.566 5.27-3.897.444-1.443.26-3.005-.497-4.335l11.34-16.53c1.45.615 2.987.962 4.534.887L51.614 84c-2.807 1.135-4.667 3.864-4.667 6.915 0 4.113 3.348 7.46 7.462 7.46s7.46-3.348 7.46-7.462c0-3.466-2.385-6.458-5.724-7.253l-2.253-23.378M45.695 39.376L25.198 13.143c.79-1.214 1.207-2.608 1.207-4.056 0-4.115-3.348-7.462-7.462-7.462s-7.46 3.347-7.46 7.46c0 4.115 3.346 7.463 7.46 7.463.93 0 1.84-.172 2.71-.514L41.68 41.656"/><path fill="#DD584A" d="M73.128 74.763c-.47.88-.72 1.858-.72 2.853 0 3.347 2.724 6.068 6.07 6.068 3.348 0 6.07-2.722 6.07-6.068 0-3.348-2.723-6.07-6.07-6.07-.61 0-1.222.096-1.817.283h-.012c-.037 0-.07.003-.105.008l-16.948-17.61c.196-.495.357-1.016.484-1.554L52.6 39.392c-.346-.112-.676-.204-.995-.277L50.455 19.87c2.1-1.007 3.436-3.115 3.436-5.465 0-3.347-2.722-6.07-6.067-6.07s-6.068 2.724-6.068 6.07c0 2.612 1.686 4.927 4.143 5.748l1.13 18.887c-.457.087-.902.2-1.33.335l-4.02 2.28c-.884.784-1.63 1.685-2.224 2.685l-18.1-6.263c-.023-3.517-2.89-6.37-6.414-6.37-3.535 0-6.412 2.876-6.412 6.413 0 3.538 2.877 6.415 6.412 6.415 1.83 0 3.554-.787 4.778-2.172l18.257 6.312c-.06.458-.094.885-.098 1.294L53.894 60.28c1.17-.55 2.23-1.294 3.16-2.224l16.074 16.705"/><path fill="#DD584A" d="M60.08 52.674l26.736 4.567c.526 3.186 3.277 5.542 6.547 5.542 3.66 0 6.637-2.98 6.637-6.64 0-3.66-2.98-6.637-6.638-6.637-2.368 0-4.527 1.244-5.72 3.272L60.19 48.092c-.07-.396-.16-.783-.27-1.16"/><circle fill="#58585A" cx="49.153" cy="50.108" r="11.514"/></svg>