<svg xmlns="http://www.w3.org/2000/svg" width="30" height="30" viewBox="0 0 30 30"><path fill="#58585A" d="M27.778 0H2.214C.992 0 0 .97 0 2.162v25.673C0 29.03.992 30 2.214 30h25.564C29 30 30 29.03 30 27.835V2.162C30 .97 29 0 27.778 0zM8.898 25.564H4.445V11.248h4.452v14.316zM6.67 9.29c-1.426 0-2.58-1.155-2.58-2.58 0-1.423 1.154-2.58 2.58-2.58 1.422 0 2.58 1.157 2.58 2.58-.002 1.424-1.158 2.58-2.58 2.58zm18.89 16.274h-4.444v-6.962c0-1.66-.033-3.797-2.313-3.797-2.315 0-2.668 1.81-2.668 3.677v7.082h-4.45V11.248h4.27v1.955h.06c.595-1.125 2.047-2.312 4.212-2.312 4.5 0 5.333 2.967 5.333 6.823v7.852z"/></svg>