<?xml version="1.0" encoding="utf-8"?>
<!-- Generator: Adobe Illustrator 15.0.0, SVG Export Plug-In . SVG Version: 6.00 Build 0)  -->
<!DOCTYPE svg PUBLIC "-//W3C//DTD SVG 1.1//EN" "http://www.w3.org/Graphics/SVG/1.1/DTD/svg11.dtd">
<svg version="1.1" id="Layer_1" xmlns="http://www.w3.org/2000/svg" xmlns:xlink="http://www.w3.org/1999/xlink" x="0px" y="0px"
	 width="30px" height="30px" viewBox="0 0 30 30" enable-background="new 0 0 30 30" xml:space="preserve">
<g>
	<path fill="#DFDFDF" d="M7.487,16.455c2.737,0.081,4.313-2.233,3.84-5.83c-0.472-3.596-2.815-6.546-5.552-6.629
		C3.037,3.915,1.2,6.667,1.673,10.264C2.146,13.86,4.749,16.372,7.487,16.455z"/>
	<path fill="#DFDFDF" d="M9.57,24.238c-0.806-0.261-1.693-0.413-2.645-0.424c-2.974-0.032-5.611,1.355-6.825,3.286
		C0.486,28.762,1.972,30,3.75,30h10.383c0.008-0.136,0.018-0.271,0.018-0.408c0-0.375-0.046-0.741-0.13-1.096
		C13.572,26.74,11.785,25.778,9.57,24.238z"/>
	<path fill="#DFDFDF" d="M7.431,22.598c-0.808-0.785-1.461-1.463-1.461-2.65c0-0.705,0.225-1.377,0.54-1.98
		c-0.321,0.023-0.648,0.041-0.985,0.041c-2.349,0-4.216-0.804-5.524-2.114v8.117c1.559-0.86,3.455-1.396,5.587-1.396
		C6.231,22.614,6.82,22.598,7.431,22.598z"/>
	<path fill="#DFDFDF" d="M30,7.5V3.75C30,1.679,28.321,0,26.25,0H3.75C1.679,0,0,1.679,0,3.75v1.629
		c1.745-1.815,4.386-3.035,7.305-3.035c2.657,0,10.161,0,10.161,0l-2.271,2.383h-2.667c1.882,1.078,2.882,3.298,2.882,5.745
		c0,2.247-1.245,4.056-3.002,5.43c-1.715,1.34-2.041,1.901-2.041,3.041c0,0.972,2.05,2.421,2.992,3.127
		c3.281,2.461,3.945,4.01,3.945,7.088c0,0.281-0.028,0.562-0.072,0.842h9.018c2.071,0,3.75-1.679,3.75-3.75V9.844h-4.688v4.688
		h-2.344V9.844h-4.688V7.5h4.688V2.812h2.344V7.5H30z"/>
</g>
</svg>
