<svg xmlns="http://www.w3.org/2000/svg" width="100" height="100" viewBox="0 0 100 100"><path d="M73.067 34.82c-1.73-1.73-4.54-1.73-6.27 0L49.982 51.63 39.82 41.466c-1.73-1.73-4.536-1.73-6.266 0-1.73 1.73-1.73 4.537 0 6.267L46.847 61.03c.865.862 2 1.3 3.135 1.3s2.27-.437 3.136-1.3l19.94-19.94c1.74-1.733 1.74-4.54.01-6.27zm10.357-5.39l5.814-5.806-6.27-6.267-5.833 5.832C69.708 17.183 60.27 13.574 50 13.574c-23.827 0-43.214 19.383-43.214 43.21S26.173 100 50 100c23.827 0 43.214-19.388 43.214-43.214 0-10.37-3.67-19.898-9.79-27.355zM50 91.14c-18.94 0-34.348-15.412-34.348-34.352C15.652 37.848 31.06 22.44 50 22.44c18.94 0 34.352 15.408 34.352 34.348C84.352 75.728 68.94 91.14 50 91.14zm-5.54-80.062h11.085c3.056 0 5.537-2.48 5.537-5.54S58.602 0 55.545 0H44.46c-3.06 0-5.54 2.477-5.54 5.537s2.477 5.54 5.537 5.54z" fill="#58585A"/></svg>