<svg xmlns="http://www.w3.org/2000/svg" width="100" height="100" viewBox="0 0 100 100"><path fill="#58585A" d="M60.104 55.85c.414-.624.623-1.452.623-2.282v-21.14c0-2.484-1.97-4.455-4.457-4.455l-28.083-.102v-9.325c0-.83-.726-1.555-1.555-1.555-.414 0-.83.207-1.036.414L.416 42.584c-.312.312-.312.726-.416 1.245 0 .413.207.827.31 1.14l25.182 25.18c.31.31.622.413 1.036.413.83 0 1.554-.725 1.554-1.554V57.816h29.014c1.35-.104 2.385-.933 3.006-1.97"/><path fill="#71A8BE" d="M84.868 72.116L98.96 58.022l.208-.207c.416-.62.625-1.244.73-1.97.103-.102 0-.206.103-.31 0-.208-.103-.31-.103-.518-.104-.727-.31-1.35-.727-1.764l-.207-.207-14.09-14.09-.417-.415-9.43-9.43c-.62-.622-1.658-1.036-2.486-1.038-.932-.104-1.867.416-2.486 1.037-.62.62-1.037 1.66-1.037 2.487v8.91c0 1.245.932 2.178 2.072 2.072.206 0 .52-.106.726-.105.725-.31 1.348-1.14 1.348-1.97l-.21-7.67 22.59 22.59-13.78 13.782-8.81 8.81v-7.462c0-.62-.204-1.035-.622-1.45-.412-.415-.826-.622-1.445-.62l-28.81-.002h-2.9c-1.245 0-2.178.934-2.073 2.072.104 1.14 1.037 2.073 2.072 2.073H68.81v6.84c0 1.036.412 1.865 1.035 2.487.727.727 1.555 1.14 2.484 1.036.83 0 1.866-.414 2.49-1.035l9.43-9.43.52-.52.1.11h-.002z"/></svg>