<svg xmlns="http://www.w3.org/2000/svg" width="100" height="100" viewBox="0 0 100 100"><path fill="#58585A" d="M46.555 61.33h-30.67C7.13 61.33 0 54.21 0 45.45V18.094C0 9.336 7.127 2.208 15.885 2.208h19.582c2.033 0 3.685 1.65 3.685 3.685S37.5 9.578 35.467 9.578H15.885c-4.692 0-8.515 3.82-8.515 8.515V45.45c0 4.693 3.823 8.513 8.515 8.513h30.67c4.69 0 8.515-3.82 8.515-8.512V33.183c0-2.035 1.652-3.685 3.685-3.685 2.033 0 3.683 1.65 3.683 3.685v12.27c0 8.754-7.125 15.878-15.883 15.878z"/><path fill="#58585A" d="M65.795 79.653h-30.67c-8.755 0-15.882-7.127-15.882-15.886v-6.12c0-2.035 1.652-3.685 3.685-3.685s3.685 1.65 3.685 3.686v6.12c0 4.694 3.817 8.515 8.512 8.515h30.67c4.69 0 8.512-3.82 8.512-8.516V36.41c0-4.693-3.82-8.513-8.513-8.513-2.032 0-3.685-1.65-3.685-3.684 0-2.034 1.65-3.685 3.684-3.685 8.755 0 15.88 7.124 15.88 15.882v27.356c.007 8.76-7.12 15.887-15.88 15.887z"/><path fill="#58585A" d="M84.115 97.97H53.448c-8.758 0-15.885-7.12-15.885-15.88V75.97c0-2.032 1.65-3.685 3.682-3.685 2.036 0 3.685 1.652 3.685 3.685v6.123c0 4.693 3.823 8.513 8.52 8.513h30.666c4.692 0 8.515-3.82 8.515-8.512V54.73c0-4.692-3.82-8.513-8.514-8.513h-6.123c-2.033 0-3.682-1.65-3.682-3.685s1.65-3.685 3.683-3.685h6.123C92.87 38.847 100 45.973 100 54.73v27.36c0 8.756-7.13 15.88-15.885 15.88zM31.98 43.325c-1.085 0-2.16-.474-2.887-1.387L19.07 29.348c-1.27-1.593-1.002-3.91.587-5.18 1.595-1.266 3.91-1 5.178.59l10.023 12.59c1.266 1.59 1 3.91-.587 5.177-.677.538-1.49.8-2.29.8z"/><path fill="#58585A" d="M31.977 43.324c-.423 0-.852-.072-1.268-.226-1.908-.697-2.892-2.808-2.196-4.717.273-.757 6.983-18.74 27.288-35.506 1.568-1.294 3.894-1.074 5.19.496 1.292 1.57 1.073 3.892-.498 5.188-18.67 15.407-25 32.18-25.063 32.348-.54 1.49-1.954 2.418-3.453 2.418z"/></svg>