<svg xmlns="http://www.w3.org/2000/svg" width="100" height="100" viewBox="0 0 100 100"><path fill="#58585A" d="M78.946 21.052C74.98 8.852 63.508 0 50 0 36.49 0 25.025 8.852 21.054 21.052 8.854 25.02 0 36.488 0 50c0 13.51 8.854 24.977 21.054 28.948C25.024 91.148 36.494 100 50 100c13.508 0 24.975-8.852 28.946-21.052C91.146 74.98 100 63.508 100 50c0-13.508-8.854-24.977-21.054-28.948zM50 4.475c10.55 0 19.633 6.337 23.695 15.393-1.36-.186-2.736-.317-4.146-.317-7.44 0-14.253 2.69-19.554 7.145-5.294-4.45-12.112-7.143-19.55-7.143-1.41 0-2.786.132-4.145.318C30.368 10.812 39.453 4.475 50 4.475zm25.97 25.97c0 6.192-2.183 11.877-5.812 16.35-3.097-2.75-6.74-4.884-10.764-6.196-1.308-4.02-3.436-7.66-6.18-10.76 4.46-3.63 10.145-5.815 16.34-5.815 1.98 0 3.905.24 5.76.667.412 1.854.656 3.774.656 5.753zm-.667 44.867c-1.852.423-3.77.67-5.75.67-6.188 0-11.88-2.186-16.346-5.814 2.747-3.1 4.882-6.738 6.19-10.758 4.022-1.312 7.66-3.448 10.756-6.195 3.634 4.468 5.812 10.152 5.812 16.347.005 1.967-.24 3.887-.662 5.75zM24.03 69.55c0-6.19 2.184-11.875 5.813-16.343 3.097 2.747 6.74 4.88 10.76 6.19 1.312 4.02 3.443 7.66 6.19 10.758-4.47 3.634-10.154 5.816-16.345 5.816-1.98 0-3.898-.242-5.75-.665-.423-1.855-.667-3.775-.667-5.754zm.664-44.858c1.855-.42 3.775-.667 5.753-.667 6.195 0 11.88 2.186 16.346 5.816-2.748 3.1-4.88 6.74-6.19 10.76-4.023 1.31-7.664 3.446-10.765 6.194-3.63-4.47-5.812-10.156-5.812-16.348.005-1.978.25-3.898.668-5.753zM54.14 39.414c-1.355-.186-2.733-.317-4.14-.317s-2.784.13-4.14.317c1.058-2.36 2.46-4.53 4.14-6.454 1.68 1.925 3.083 4.096 4.14 6.454zM56.42 50c0 1.98-.247 3.898-.674 5.757-1.848.42-3.77.663-5.753.663-1.98 0-3.9-.244-5.753-.67-.42-1.852-.663-3.77-.663-5.75 0-1.982.244-3.9.667-5.758 1.85-.422 3.77-.667 5.75-.667 1.982 0 3.906.244 5.753.667.426 1.86.673 3.776.673 5.758zm4.158-4.147c2.364 1.06 4.536 2.463 6.46 4.144-1.928 1.68-4.096 3.086-6.46 4.143.186-1.355.316-2.733.316-4.143 0-1.403-.126-2.78-.316-4.144zm-21.16 8.293c-2.36-1.057-4.533-2.467-6.46-4.146 1.928-1.68 4.1-3.083 6.46-4.144-.186 1.36-.313 2.737-.313 4.144s.127 2.787.313 4.146zm6.44 6.437c1.358.19 2.736.312 4.142.312s2.787-.127 4.146-.312c-1.057 2.36-2.46 4.532-4.146 6.456-1.68-1.926-3.083-4.098-4.143-6.458zM4.478 50c0-10.55 6.336-19.634 15.39-23.694-.185 1.36-.316 2.733-.316 4.144 0 7.438 2.69 14.26 7.138 19.55-4.448 5.29-7.137 12.113-7.137 19.55 0 1.41.13 2.788.317 4.147C10.815 69.634 4.478 60.55 4.478 50zM50 95.52c-10.55 0-19.63-6.332-23.692-15.388 1.36.186 2.733.316 4.14.316 7.44 0 14.257-2.688 19.552-7.142 5.29 4.445 12.115 7.142 19.553 7.142 1.406 0 2.783-.13 4.143-.316C69.63 89.188 60.55 95.522 50 95.522zm30.13-21.823c.187-1.36.317-2.736.317-4.147 0-7.437-2.688-14.256-7.142-19.55 4.445-5.295 7.142-12.113 7.142-19.55 0-1.41-.13-2.784-.316-4.144C89.188 30.366 95.52 39.45 95.52 50s-6.334 19.634-15.39 23.697z"/></svg>