<svg xmlns="http://www.w3.org/2000/svg" width="100" height="100" viewBox="0 0 100 100"><path fill="#71A8BE" d="M41.81 40.957c.926 3.717 2.232 7.358 3.885 10.828l1.35 2.875c1.635 3.455 3.633 6.77 5.94 9.863.15.185.298.376.436.584-.082-.146-.017-.076.428-.335 3.437-2.01 6.116-3.078 10.375-2.86.862.032 1.666.426 2.234 1.075l11.538 13.2c1.144 1.312 1.014 3.304-.302 4.453-1.305 1.15-3.3 1.014-4.452-.302l-10.598-12.12c-2.016.103-3.435.74-5.6 2.008-3.88 2.29-7.37.374-8.774-1.465-.003-.008-.34-.45-.348-.46-2.553-3.424-4.768-7.103-6.58-10.942l-1.352-2.865c-1.828-3.84-3.278-7.882-4.3-12-.005-.01-.133-.564-.137-.57-.537-2.243.195-6.15 4.412-7.722 2.43-.907 3.84-1.623 5.24-3.226l-.748-16.226-5.15-2.016c-2.816.633-11.775 3.697-11.762 17.044.008 8.8 2.278 18.032 6.744 27.437l1.355 2.85c4.454 9.404 10.16 16.997 16.967 22.57 5.71 4.676 11.453 5.903 17.066 3.66 1.613-.64 3.46.145 4.103 1.76.65 1.62-.14 3.456-1.76 4.103-2.172.868-4.84 1.542-7.855 1.542l.003.002c-4.526 0-9.86-1.52-15.555-6.186-7.536-6.17-13.817-14.495-18.673-24.744l-1.357-2.85c-4.87-10.256-7.343-20.4-7.35-30.137-.02-16.69 11.754-22.64 17.983-23.457.533-.064 1.064 0 1.56.195l7.892 3.093c1.16.452 1.946 1.55 2.002 2.795l.897 19.46c.032.73-.186 1.443-.62 2.03-2.548 3.422-5.05 4.823-8.772 6.212-.423.155-.486.3-.477.333l.12.514z"/><path fill="#58585A" d="M8.507 95c-.897 0-1.795-.34-2.48-1.027-1.37-1.37-1.37-3.59 0-4.96L89.01 6.03c1.37-1.373 3.59-1.373 4.96 0 1.373 1.368 1.373 3.59 0 4.96L10.988 93.973C10.303 94.66 9.406 95 8.508 95z"/></svg>