<svg xmlns="http://www.w3.org/2000/svg" xmlns:xlink="http://www.w3.org/1999/xlink" width="400" height="112" viewBox="0 0 400 112"><path fill="#58595B" d="M59.085 56l17.417 17.417.048-.024L111.795 56 76.55 38.61v-.003l-.05-.024L59.085 56z"/><path fill="#DB594A" d="M52.71 56L35.293 38.582l-.048.024L0 56l35.245 17.39v.003l.05.024L52.71 56z"/><g fill="#fff"><path d="M119.953 87.34l6.073-34.095h-4.463c-.95.072-1.097-.147-.95-1.023l.583-3.806c.22-.878.44-1.098 1.39-1.098h4.464l1.243-7.097c1.098-5.997 2.854-12.217 13.097-12.217 2.927 0 5.927.73 7.83 1.683.877.44.95.732.584 1.536l-1.39 3.367c-.366.803-.658.95-1.538.585-1.097-.586-2.706-1.1-4.535-1.1-4.46 0-5.266 2.636-6.144 7.902l-.95 5.342h8.778c.95 0 1.097.22.95 1.097l-.583 3.806c-.22.877-.44 1.097-1.39 1.024h-8.78l-6.292 35.558c-1.023 6-2.853 12.218-13.097 12.218-2.925 0-5.925-.73-7.83-1.682-.875-.437-.95-.73-.582-1.536l1.244-3.145c.366-.806.66-.95 1.537-.587 1.096.585 2.78 1.17 4.61 1.17 4.463 0 5.267-2.633 6.145-7.9m36.802-2.93c-8.633 0-13.828-4.976-13.828-14.562 0-13.17 7.167-23.336 20.63-23.336 5.487 0 14.56 2.122 14.56 14.486 0 13.9-7.755 23.413-21.364 23.413m5.56-31.534c-9.146 0-10.902 10.534-10.902 16.973 0 4.756 1.61 8.487 6.584 8.487 9.073 0 11.487-11.047 11.487-17.193 0-5.853-2.487-8.268-7.17-8.268M218.365 47.318c.95 0 1.098.22.95 1.097l-4.975 28.022c-.294 1.463.22 2.05 1.39 2.05.586 0 1.244-.22 1.977-.587.877-.365 1.17-.29 1.61.513l.657 1.17c.438.806.366 1.1-.365 1.685-2.197 1.608-5.123 3.146-8.05 3.146-4.536 0-5.78-2.27-5.708-5.562-3.658 4.316-8.122 5.562-12.438 5.562-7.39 0-10.682-4.17-9.22-12.438L187.56 53.1l-3.072.074c-.953.073-1.1-.146-.953-1.025l.66-3.733c.146-.876.44-1.097 1.39-1.097h10.097c.95 0 1.097.222.95 1.098l-3.658 20.414c-.952 5.193-1.097 8.854 4.68 8.854 4.61 0 8.854-3.586 9.513-7.17l3.95-22.098c.147-.876.44-1.097 1.39-1.097h5.855zm31.172-.804c1.17 0 2.56.146 3.877.438.88.293 1.098.513.88 1.464l-1.685 9.658c-.148.877-.44 1.097-1.393 1.097h-4.17c-.95 0-1.097-.22-.95-1.095l.658-3.878c-.512-.073-1.024-.146-1.463-.146-5.415 0-7.9 4.465-8.853 9.95l-3.22 18.438c-.147.88-.44 1.097-1.39 1.097h-5.78c-.95 0-1.098-.218-.95-1.097l5.046-29.193H227c-.95.074-1.098-.146-.95-1.023l.658-3.804c.146-.878.438-1.098 1.392-1.098h9.29c.952 0 1.1.22.952 1.098l-1.025 6c2.635-4.536 6.585-7.902 12.22-7.902M271.124 28.954c.95 0 1.097.22.95 1.097l-5.047 29.195h1.826c5.636 0 9.513-3.805 11.635-10.828.218-.878.51-1.098 1.463-1.098h5.635c.88 0 1.025.22.805 1.097-1.756 6.293-6.364 10.975-12.292 12.072 4.17.51 6.073 2.56 6.877 8.706l.88 7.314c.22 1.9.656 2.634 1.83 2.634.585 0 1.39-.146 2.41-.658.88-.365 1.173-.293 1.538.584l.512 1.1c.366.805.293 1.098-.438 1.607-1.755 1.244-4.683 2.636-7.462 2.636-4.463 0-5.707-2.343-6.292-6.22l-1.17-7.9c-.587-4.023-1.244-5.415-6.294-5.415H266l-3.146 17.562c-.146.875-.438 1.097-1.39 1.097h-5.778c-.95 0-1.098-.222-.95-1.097l8.34-47.56h-3.22c-.953.073-1.1-.146-.953-1.023l.66-3.806c.146-.875.438-1.095 1.39-1.095h10.17zm35.706 18.364c.954 0 1.1.22.954 1.097l-4.978 27.877c-.293 1.537 0 2.27 1.17 2.27.732 0 1.39-.223 2.196-.587.878-.365 1.17-.293 1.537.512l.583 1.173c.438.804.365 1.096-.366 1.682-1.83 1.464-4.9 3.146-7.976 3.146-4.754 0-6.22-2.633-5.485-6.95l4.17-24.29h-3.146c-.95.072-1.1-.147-.95-1.023l.73-3.807c.145-.876.437-1.097 1.39-1.097h10.17zm-7.9-11.047c0-3.29 2.854-5.63 5.56-5.63 3.44 0 5.05 2.266 5.05 4.827 0 3.438-2.563 5.634-5.708 5.634-3.075 0-4.902-2.195-4.902-4.83M327.537 53.317l-3.072 17.193c-.293 1.684-.438 3.074-.438 4.244 0 2.487.804 3.805 3.438 3.805 1.83 0 3.293-.367 4.393-.808.804-.29 1.098-.218 1.462.66l.658 2.485c.292.88.146 1.172-.658 1.537-2.27 1.024-5.562 1.977-8.928 1.977-7.242 0-8.925-3.29-8.925-7.462 0-1.903.365-4.024.73-6l3.22-17.634h-4.098c-.95.074-1.1-.146-.95-1.023l.583-3.88c.22-.874.438-1.095 1.39-1.095h4.098l1.684-9.877c.22-.878.438-1.098 1.39-1.098h5.854c.95 0 1.097.22.95 1.098l-1.684 9.877h7.317c.95 0 1.1.22.95 1.097l-.656 3.88c-.147.877-.44 1.097-1.39 1.022h-7.32zm24.44 31.096c-10.39 0-14.484-5.854-14.484-14.414 0-11.196 6.51-23.487 20.19-23.487 7.684 0 11.415 4.17 11.415 9.73-.073 9.586-9.584 12.585-18.364 12.585-1.608 0-3.22-.147-4.682-.294-.074.586-.074 1.022-.074 1.608 0 4.61 2.414 8.123 8.122 8.123 3.73 0 6.292-.95 8.853-2.488.805-.44 1.097-.367 1.537.437l1.244 2.27c.512.805.438 1.097-.293 1.683-3.73 2.706-8.633 4.243-13.46 4.243m-5.343-21.29c.732.145 1.684.292 2.78.292 5.34 0 11.268-1.83 11.268-6.806 0-2.562-1.976-3.806-4.683-3.806-5.34 0-8.485 4.83-9.364 10.318M390.17 74.17c0-3.072-2.706-4.098-6.51-5.34-4.756-1.537-10.243-3.074-10.243-10.536 0-7.61 6.22-11.78 14.486-11.78 8.56 0 12.437 4.39 12.07 10.39 0 .95-.218 1.17-1.17 1.17h-4.17c-.95 0-1.17-.22-1.17-1.17-.074-2.854-1.536-4.756-6.293-4.756-3.22 0-6 1.098-6 4.316 0 2.854 2.927 3.95 6.73 5.27 4.83 1.683 10.243 3.73 10.243 10.607 0 8.123-6.438 12.074-15.292 12.074-7.387 0-12.874-2.78-12.947-10.39 0-.95.22-1.172 1.098-1.172h4.098c.952 0 1.172.223 1.317 1.173.367 3.072 1.83 4.9 7.024 4.9 3.295.002 6.732-.875 6.732-4.753"/></g><defs><path id="a" d="M59.084 56H76.55V38.606l-.05-.024z"/></defs><clipPath id="b"><use xlink:href="#a" overflow="visible"/></clipPath><linearGradient id="c" gradientUnits="userSpaceOnUse" x1="-204.192" y1="-474.327" x2="-203.199" y2="-474.327" gradientTransform="scale(14.298) rotate(-142.9 -19.285 -270.458)"><stop offset="0" stop-color="#717275"/><stop offset=".137" stop-color="#717275"/><stop offset=".713" stop-color="#58595B"/><stop offset="1" stop-color="#58595B"/></linearGradient><path clip-path="url(#b)" fill="url(#c)" d="M70.195 64.402l-19.49-14.74 14.735-19.48 19.49 14.74z"/><path fill="#58595B" d="M76.55 73.393V56H59.084L76.5 73.417z"/><defs><path id="d" d="M76.55 56h35.245L76.55 38.606z"/></defs><clipPath id="e"><use xlink:href="#d" overflow="visible"/></clipPath><linearGradient id="f" gradientUnits="userSpaceOnUse" x1="-154.796" y1="-481.978" x2="-153.803" y2="-481.978" gradientTransform="rotate(90 -5547.914 -2798.475) scale(17.512)"><stop offset="0" stop-color="#717275"/><stop offset=".137" stop-color="#717275"/><stop offset=".713" stop-color="#58595B"/><stop offset="1" stop-color="#58595B"/></linearGradient><path clip-path="url(#e)" fill="url(#f)" d="M76.55 38.607h35.246V56H76.55z"/><defs><path id="g" d="M76.55 56v17.39L111.796 56z"/></defs><clipPath id="h"><use xlink:href="#g" overflow="visible"/></clipPath><linearGradient id="i" gradientUnits="userSpaceOnUse" x1="-158.051" y1="-466.624" x2="-157.058" y2="-466.624" gradientTransform="rotate(52.316 -14804.045 -1823.914) scale(26.702)"><stop offset="0" stop-color="#717275"/><stop offset=".137" stop-color="#717275"/><stop offset=".713" stop-color="#58595B"/><stop offset="1" stop-color="#58595B"/></linearGradient><path clip-path="url(#h)" fill="url(#i)" d="M98.625 38.948l21.584 27.945L89.72 90.44 68.137 62.5z"/><path fill="#DC5949" d="M35.245 73.393l.05.024L52.71 56H35.246z"/><defs><path id="j" d="M35.245 38.607V56H52.71L35.293 38.582z"/></defs><clipPath id="k"><use xlink:href="#j" overflow="visible"/></clipPath><linearGradient id="l" gradientUnits="userSpaceOnUse" x1="-173.208" y1="-441.476" x2="-172.214" y2="-441.476" gradientTransform="rotate(-35.32 10741.992 -8668.8) scale(17.537)"><stop offset="0" stop-color="#B84435"/><stop offset=".464" stop-color="#DB594A"/><stop offset="1" stop-color="#DB594A"/></linearGradient><path clip-path="url(#k)" fill="url(#l)" d="M27.03 44.405l19.843-14.06 14.053 19.833-19.843 14.06z"/><defs><path id="m" d="M0 56l35.245 17.39V56z"/></defs><clipPath id="n"><use xlink:href="#m" overflow="visible"/></clipPath><linearGradient id="o" gradientUnits="userSpaceOnUse" x1="-154.802" y1="-482.009" x2="-153.809" y2="-482.009" gradientTransform="rotate(90 -5595.203 -2828.264) scale(17.512)"><stop offset="0" stop-color="#B84435"/><stop offset=".464" stop-color="#DB594A"/><stop offset="1" stop-color="#DB594A"/></linearGradient><path clip-path="url(#n)" fill="url(#o)" d="M0 56h35.245v17.39H0z"/><defs><path id="p" d="M0 56h35.245V38.606z"/></defs><clipPath id="q"><use xlink:href="#p" overflow="visible"/></clipPath><linearGradient id="r" gradientUnits="userSpaceOnUse" x1="-158.053" y1="-466.923" x2="-157.059" y2="-466.923" gradientTransform="rotate(53.3 -14550.353 -1986.933) scale(26.668)"><stop offset="0" stop-color="#B84435"/><stop offset=".464" stop-color="#DB594A"/><stop offset="1" stop-color="#DB594A"/></linearGradient><path clip-path="url(#q)" fill="url(#r)" d="M22.657 21.72l20.92 28.068-30.99 23.1-20.92-28.07z"/><path fill="#8EC6DC" d="M55.872 59.188L38.456 76.604l.024.048 17.392 35.244 17.392-35.244h.002l.024-.048-17.417-17.416z"/><path fill="#E9D559" d="M55.874 52.813L73.29 35.396l-.024-.048L55.874.103 38.482 35.347h-.002l-.024.05 17.417 17.416z"/><path fill="#BEDFE5" d="M73.29 76.652l.025-.048-17.417-17.416v17.464z"/><defs><path id="s" d="M38.48 76.604l.025.048h17.392V59.188z"/></defs><clipPath id="t"><use xlink:href="#s" overflow="visible"/></clipPath><linearGradient id="u" gradientUnits="userSpaceOnUse" x1="-187.758" y1="-483.365" x2="-186.765" y2="-483.365" gradientTransform="rotate(180 -1891.69 -4910.622) scale(20.46)"><stop offset="0" stop-color="#8EC6DC"/><stop offset=".809" stop-color="#BEDFE5"/><stop offset="1" stop-color="#BEDFE5"/></linearGradient><path clip-path="url(#t)" fill="url(#u)" d="M38.48 59.188h17.417v17.467H38.48z"/><defs><path id="v" d="M55.897 76.652v35.244L73.29 76.652z"/></defs><clipPath id="w"><use xlink:href="#v" overflow="visible"/></clipPath><linearGradient id="x" gradientUnits="userSpaceOnUse" x1="-164.786" y1="-474.142" x2="-163.793" y2="-474.142" gradientTransform="rotate(90 -11343.095 -5418.57) scale(35.488)"><stop offset="0" stop-color="#8EC6DC"/><stop offset=".809" stop-color="#BEDFE5"/><stop offset="1" stop-color="#BEDFE5"/></linearGradient><path clip-path="url(#w)" fill="url(#x)" d="M55.897 76.652H73.29v35.244H55.897z"/><defs><path id="y" d="M38.505 76.652l17.392 35.244V76.652z"/></defs><clipPath id="z"><use xlink:href="#y" overflow="visible"/></clipPath><linearGradient id="A" gradientUnits="userSpaceOnUse" x1="-173.065" y1="-447.371" x2="-172.072" y2="-447.371" gradientTransform="scale(22.862) rotate(-33.896 655.337 -508.76)"><stop offset="0" stop-color="#8EC6DC"/><stop offset=".809" stop-color="#BEDFE5"/><stop offset="1" stop-color="#BEDFE5"/></linearGradient><path clip-path="url(#z)" fill="url(#A)" d="M22.19 87.615l28.298-19.01 21.724 32.333-28.297 19.01z"/><path fill="#E9D559" d="M38.505 35.347l-.025.05 17.417 17.416V35.347z"/><defs><path id="B" d="M55.897 35.347v17.466l17.417-17.417-.024-.05z"/></defs><clipPath id="C"><use xlink:href="#B" overflow="visible"/></clipPath><linearGradient id="D" gradientUnits="userSpaceOnUse" x1="-201.078" y1="-489.339" x2="-200.084" y2="-489.339" gradientTransform="rotate(-168.89 -924.12 -3170.734) scale(12.537)"><stop offset="0" stop-color="#E9D559"/><stop offset=".086" stop-color="#E9D559"/><stop offset=".988" stop-color="#F0EB5B"/><stop offset="1" stop-color="#F0EB5B"/></linearGradient><path clip-path="url(#C)" fill="url(#D)" d="M72.667 56.107l-20.073-3.943 3.95-20.11 20.074 3.942z"/><defs><path id="E" d="M38.505 35.347h17.392V.103z"/></defs><clipPath id="F"><use xlink:href="#E" overflow="visible"/></clipPath><linearGradient id="G" gradientUnits="userSpaceOnUse" x1="-158.02" y1="-447.871" x2="-157.028" y2="-447.871" gradientTransform="matrix(17.645 1.038 -1.038 17.645 2368.83 8084.26)"><stop offset="0" stop-color="#E9D559"/><stop offset=".086" stop-color="#E9D559"/><stop offset=".988" stop-color="#F0EB5B"/><stop offset="1" stop-color="#F0EB5B"/></linearGradient><path clip-path="url(#F)" fill="url(#G)" d="M38.565-.918L57.963.224l-2.126 36.143-19.398-1.14z"/><defs><path id="H" d="M55.897 35.347H73.29L55.897.103z"/></defs><clipPath id="I"><use xlink:href="#H" overflow="visible"/></clipPath><linearGradient id="J" gradientUnits="userSpaceOnUse" x1="-164.77" y1="-474.142" x2="-163.777" y2="-474.142" gradientTransform="rotate(90 -11304.55 -5457.117) scale(35.488)"><stop offset="0" stop-color="#E9D559"/><stop offset=".086" stop-color="#E9D559"/><stop offset=".988" stop-color="#F0EB5B"/><stop offset="1" stop-color="#F0EB5B"/></linearGradient><path clip-path="url(#I)" fill="url(#J)" d="M55.897.103H73.29v35.244H55.897z"/></svg>