<?xml version="1.0" encoding="utf-8"?>
<!-- Generator: Adobe Illustrator 18.0.0, SVG Export Plug-In . SVG Version: 6.00 Build 0)  -->
<!DOCTYPE svg PUBLIC "-//W3C//DTD SVG 1.1//EN" "http://www.w3.org/Graphics/SVG/1.1/DTD/svg11.dtd">
<svg version="1.1" xmlns="http://www.w3.org/2000/svg" xmlns:xlink="http://www.w3.org/1999/xlink" x="0px" y="0px"
	 viewBox="0 0 247 222.2" enable-background="new 0 0 247 222.2" xml:space="preserve">
<g id="Home">
	<path fill="none" stroke-linecap="round" stroke-linejoin="round" stroke-miterlimit="10" d="
		M245,220.2c0,0-86.1,0-90,0c-3.8,0-5.1-3.4-5.1-8c0-4.6,0-75.9,0-80.7s-2.5-7.1-7.1-7.1c-4.6,0-39.3,0-42.4,0
		c-3.1,0-5.8,1.6-5.8,5.8s0,78.5,0,83.7s-2.1,6.3-6.3,6.3H2"/>
	<path fill="none" stroke-linecap="round" stroke-linejoin="round" stroke-miterlimit="10" d="
		M27.7,220.2c0,0,0-113.6,0-115.5c0-1.9-1.5-3.4-3.4-3.4s-16.4,0-16.4,0S109.5,10.3,114.2,5.5s11.8-4.6,16.4,0
		c4.6,4.6,43.1,38.1,43.1,38.1s0-14.9,0-18.3s1.1-4.6,4.6-4.6s14.5,0,18.7,0s4.4,1.9,4.4,4.4s0,43.3,0,43.3l36.8,32.8
		c0,0-14.5,0-16.4,0s-3.6,1.5-3.6,3.6s0,115.3,0,115.3"/>
</g>
</svg>
