<?xml version="1.0" encoding="utf-8"?>
<!-- Generator: Adobe Illustrator 19.0.0, SVG Export Plug-In . SVG Version: 6.00 Build 0)  -->
<svg version="1.1" id="Layer_1" xmlns="http://www.w3.org/2000/svg" xmlns:xlink="http://www.w3.org/1999/xlink" x="0px" y="0px"
	 viewBox="0 0 512 512" enable-background="new 0 0 512 512" xml:space="preserve">
<path fill="#008269" d="M379.9,151.4l-31-77.4H163.1l-31,77.4H60.8c-16.2,0-29.4,13.2-29.4,29.4v227.4c0,16.4,13.3,29.7,29.7,29.7
	h389.8c16.4,0,29.7-13.3,29.7-29.7V180.9c0-16.2-13.2-29.4-29.4-29.4H379.9z"/>
<circle fill="#424A60" stroke="#2B313D" stroke-width="2" stroke-linecap="round" stroke-miterlimit="10" cx="256" cy="274.7" r="131.7"/>
<circle fill="#DD4747" cx="256" cy="275.4" r="85.2"/>
<rect x="77.9" y="112.7" fill="#38454F" width="31" height="38.7"/>
<circle fill="#FDD835" cx="426.4" cy="205.7" r="23.2"/>
<path fill="#EF5350" d="M170.8,275.4c-1.7,27.8,28.9,67,66.9,83c-18-16.3-33.2-53-33.1-74c0.1-35.3,13-72.3,59.8-94.1
	C225.7,190.2,173.7,228.9,170.8,275.4z"/>
<path fill="#EF5350" d="M307.1,207.3c0.7,14.4-4.6,26.5-11.8,37.6c0,0.3-0.1,0.7-0.1,1c5.6,2.2,9.6,7.7,9.6,14.2
	c0,8.4-6.8,15.2-15.2,15.2c-5,0-9.3-2.4-12.1-6c-6.2,8.5-11.3,17-13.1,26.3c-4.7,24.7,13.2,48.8,21.3,57.1
	c27.3-14.1,55.5-49.6,55.5-77.4C341.2,247.5,327.8,222.9,307.1,207.3z"/>
<path fill="#ED8F3E" d="M289.6,244.9c1.8,0,3.6,0.3,5.2,0.9c0.2-0.3,0.4-0.6,0.6-0.9c0.1-0.8,0.1-1.5,0.1-2.3
	c0-12.8-10.4-23.2-23.2-23.2c-12.8,0-23.2,10.4-23.2,23.2c0,12.8,10.4,23.2,23.2,23.2c1.1,0,2.1-0.1,3.2-0.2c-0.7-1.7-1-3.6-1-5.5
	C274.3,251.7,281.1,244.9,289.6,244.9z"/>
<path fill="#855F55" d="M295.2,245.9c0-0.3,0.1-0.7,0.1-1c-0.2,0.3-0.4,0.6-0.6,0.9C294.9,245.8,295,245.9,295.2,245.9z"/>
<path fill="#855F55" d="M275.3,265.6c0.5,1.3,1.2,2.6,2.1,3.7c1.3-1.8,2.7-3.6,4-5.4C279.5,264.7,277.5,265.3,275.3,265.6z"/>
<path fill="#8F665A" d="M289.6,275.4c8.4,0,15.2-6.8,15.2-15.2c0-6.4-4-11.9-9.6-14.2c-1.2,8.1-6.5,14.8-13.7,18
	c-1.4,1.8-2.7,3.6-4,5.4C280.2,273,284.6,275.4,289.6,275.4z"/>
<path fill="#8E8A4F" d="M294.8,245.8c-1.6-0.6-3.4-0.9-5.2-0.9c-8.4,0-15.2,6.8-15.2,15.2c0,1.9,0.4,3.8,1,5.5
	c2.1-0.3,4.2-0.9,6.1-1.7C285.9,258,290.6,252.1,294.8,245.8z"/>
<path fill="#948D52" d="M281.5,263.9c7.2-3.2,12.6-9.9,13.7-18c-0.1-0.1-0.3-0.1-0.4-0.2C290.6,252.1,285.9,258,281.5,263.9z"/>
<path fill="#556080" d="M256,368.3c-51.2,0-92.9-41.7-92.9-92.9s41.7-92.9,92.9-92.9s92.9,41.7,92.9,92.9S307.3,368.3,256,368.3z
	 M256,197.9c-42.7,0-77.4,34.7-77.4,77.4s34.7,77.4,77.4,77.4s77.4-34.7,77.4-77.4S298.7,197.9,256,197.9z"/>
</svg>
