<?xml version="1.0" encoding="utf-8"?>
<!-- Generator: Adobe Illustrator 19.0.0, SVG Export Plug-In . SVG Version: 6.00 Build 0)  -->
<svg version="1.1" id="Layer_3" xmlns="http://www.w3.org/2000/svg" xmlns:xlink="http://www.w3.org/1999/xlink" x="0px" y="0px"
	 viewBox="0 0 512 512" style="enable-background:new 0 0 512 512;" xml:space="preserve">
<style type="text/css">
	.st0{fill:#096856;}
	.st1{fill:#008269;}
	.st2{fill:#0C5144;}
	.st3{fill:#FDD835;}
	.st4{fill:#EF5350;}
</style>
<polygon class="st0" points="333.1,445.1 175.3,445.1 195.1,355.6 313.4,355.6 "/>
<path class="st1" d="M459.5,85.5c0,0,0.2,0.1,0.2,0.1v243.2h-411V85.7c0,0,0.1-0.1,0.2-0.1H459.5L459.5,85.5z M484.2,207.2v-128
	c0-10.8-9.7-20.4-20.5-20.4l0,0h-419c-10.8,0-20.5,9.6-20.5,20.4v128v0v128c0,10.8,9.6,20.4,20.5,20.4h419l0,0
	c10.8,0,20.5-9.6,20.5-20.4V207.2L484.2,207.2z"/>
<path class="st2" d="M159.6,434.9h189.3c2.2,0,3.9,1.8,3.9,3.9v10.4c0,2.2-1.8,3.9-3.9,3.9H159.6c-2.2,0-3.9-1.8-3.9-3.9v-10.4
	C155.6,436.7,157.4,434.9,159.6,434.9z"/>
<rect x="48.8" y="85.6" class="st3" width="411" height="243.2"/>
<path class="st4" d="M253.9,145.6c-26.8,0-48.6,21.8-48.6,48.6s21.8,48.6,48.6,48.6s48.6-21.8,48.6-48.6S280.7,145.6,253.9,145.6z
	 M254.8,230c-25,0-32.5-19.7-32.5-19.7h62.6C284.8,210.4,278.3,230.1,254.8,230z"/>
<path class="st4" d="M319.3,287.1c-1.8-9.7-7-18.5-14.4-25.7c-6.8-6.5-15.4-10.4-25.4-12.5c-6.4,4.5-16.2,6.1-26.5,6.1
	c-10.2,0-18.8-1.8-24.3-6.3c-8.6,1.8-16.2,4.9-22.5,10.3c-8.9,7.6-15,17.3-17.1,28.1H319.3z"/>
</svg>
