<?xml version="1.0" encoding="utf-8"?>
<!-- Generator: Adobe Illustrator 19.0.0, SVG Export Plug-In . SVG Version: 6.00 Build 0)  -->
<svg version="1.1" id="Layer_1" xmlns="http://www.w3.org/2000/svg" xmlns:xlink="http://www.w3.org/1999/xlink" x="0px" y="0px"
	 viewBox="0 0 512 512" style="enable-background:new 0 0 512 512;" xml:space="preserve">
<path fill="#117F6A" d="M289.3,370c1-18.2,13-33.9,30.3-39.8c9-3.1,17.1-8,24-14.8c30.7-30.7,22.6-88.4-17.9-128.9s-98.3-48.6-129-17.9
	c-6.8,6.8-11.7,15-14.8,24c-5.9,17.3-21.6,29.2-39.8,30.3c-26.9,1.5-52.4,11.9-72,31.4c-46,46-41.3,125.3,10.6,177.2
	s131.2,56.6,177.2,10.5C277.4,422.4,287.8,396.8,289.3,370z"/>
<path fill="#036855" d="M289.3,370c1-18.2,13-33.9,30.3-39.8c9-3.1,17.1-8,24-14.8c30.7-30.7,22.6-88.4-17.9-128.9l-245,245l0,0
	c51.8,51.9,131.2,56.6,177.2,10.5C277.4,422.4,287.8,396.8,289.3,370z"/>
<path fill="#FDD835" d="M424.1,50.3l37.5,37.5L289.8,259.7l-37.5-37.5L424.1,50.3z"/>
<path fill="#F4BD34" d="M442.9,68.8l19,19L290,259.6l-19-19L442.9,68.8z"/>
<path fill="#117F6A" d="M461.7,107.5c15.8-15.8,15.8-41.5,0-57.3s-41.5-15.8-57.3,0L382,72.6c-4.9,4.9-4.9,12.8,0,17.8l39.5,39.5
	c4.9,4.9,12.8,4.9,17.8,0L461.7,107.5z"/>
<path fill="#036855" d="M461.7,50.3l-59.8,59.8l19.7,19.7c4.9,4.9,12.8,4.9,17.8,0l22.4-22.4C477.6,91.7,477.6,66,461.7,50.3z"/>
<path fill="#424A60" d="M247.3,309.1c-24.5,0-44.5-19.9-44.5-44.5s19.9-44.5,44.5-44.5s44.5,19.9,44.5,44.5S271.9,309.1,247.3,309.1z"/>
<path fill="#556080" d="M247.3,294.3c-16.3,0-29.7-13.3-29.7-29.7s13.3-29.7,29.7-29.7s29.7,13.3,29.7,29.7S263.7,294.3,247.3,294.3z"/>
<path fill="#F4BD34" d="M383,91.3l37.5,37.5L407,142.4l-37.5-37.5L383,91.3z"/>
</svg>
