<?xml version="1.0" encoding="utf-8"?>
<!-- Generator: Adobe Illustrator 19.0.0, SVG Export Plug-In . SVG Version: 6.00 Build 0)  -->
<svg version="1.1" xmlns="http://www.w3.org/2000/svg" xmlns:xlink="http://www.w3.org/1999/xlink" x="0px" y="0px"
	 viewBox="0 0 512 512" style="enable-background:new 0 0 512 512;" xml:space="preserve">
<style type="text/css">
	.st0{display:none;}
	.st1{display:inline;fill:#096856;}
	.st2{display:inline;fill:#008269;}
	.st3{display:inline;fill:#0C5144;}
	.st4{display:inline;fill:#EF5350;}
	.st5{display:inline;fill:#FDD835;}
	.st6{display:inline;fill:#424A60;}
	.st7{fill:#0A5B4C;}
	.st8{fill:#096856;}
	.st9{fill:#09493D;}
	.st10{fill:#EF5350;}
	.st11{fill:#424A60;}
	.st12{fill:#FDD835;}
</style>
<g id="Layer_3_copy" class="st0">
	<polygon class="st1" points="182,497.8 24.2,497.8 44,408.3 162.3,408.3 	"/>
	<path class="st2" d="M459.5,85.5l0.2,0.1v243.2h-411V85.7c0,0,0.1-0.1,0.2-0.1L459.5,85.5L459.5,85.5z M484.2,207.2v-128
		c0-10.8-9.7-20.4-20.5-20.4l0,0h-419c-10.8,0-20.5,9.6-20.5,20.4v128l0,0v128c0,10.8,9.6,20.4,20.5,20.4h419l0,0
		c10.8,0,20.5-9.6,20.5-20.4V207.2L484.2,207.2z"/>
	<path class="st3" d="M159.6,434.9h189.3c2.2,0,3.9,1.8,3.9,3.9v10.4c0,2.2-1.8,3.9-3.9,3.9H159.6c-2.2,0-3.9-1.8-3.9-3.9v-10.4
		C155.6,436.7,157.4,434.9,159.6,434.9z"/>
	<path class="st4" d="M253.9,145.6c-26.8,0-48.6,21.8-48.6,48.6s21.8,48.6,48.6,48.6s48.6-21.8,48.6-48.6S280.7,145.6,253.9,145.6z
		 M254.8,230c-25,0-32.5-19.7-32.5-19.7h62.6C284.8,210.4,278.3,230.1,254.8,230z"/>
	<path class="st4" d="M205.3,408.1c-1.8-9.7-7-18.5-14.4-25.7c-6.8-6.5-15.4-10.4-25.4-12.5c-6.4,4.5-16.2,6.1-26.5,6.1
		c-10.2,0-18.8-1.8-24.3-6.3c-8.6,1.8-16.2,4.9-22.5,10.3c-8.9,7.6-15,17.3-17.1,28.1H205.3z"/>
	<polygon class="st5" points="326,550.8 168.2,550.8 188,461.3 306.3,461.3 	"/>
	<polygon class="st6" points="516.8,534.6 359,534.6 378.8,445.1 497.1,445.1 	"/>
</g>
<g id="Layer_3">
	<polygon class="st7" points="333.1,445.1 175.3,445.1 195.1,355.6 313.4,355.6 	"/>
	<path class="st8" d="M484.2,207.2v-128c0-10.8-9.7-20.4-20.5-20.4l0,0h-419c-10.8,0-20.5,9.6-20.5,20.4v128l0,0v128
		c0,10.8,9.6,20.4,20.5,20.4h419l0,0c10.8,0,20.5-9.6,20.5-20.4V207.2L484.2,207.2z"/>
	<path class="st9" d="M159.6,434.9h189.3c2.2,0,3.9,1.8,3.9,3.9v10.4c0,2.2-1.8,3.9-3.9,3.9H159.6c-2.2,0-3.9-1.8-3.9-3.9v-10.4
		C155.6,436.7,157.4,434.9,159.6,434.9z"/>
	<rect x="48.7" y="85.6" class="st10" width="411" height="243.2"/>
	<circle class="st11" cx="255.5" cy="209.1" r="104"/>
	<g>
		<path class="st12" d="M255.3,152.5c-21.4,0-38.9,17.4-38.9,38.9s17.4,38.9,38.9,38.9s38.9-17.4,38.9-38.9S276.7,152.5,255.3,152.5
			z M256,220c-20,0-26-15.8-26-15.8h50.1C280,204.3,274.8,220.1,256,220z"/>
		<path class="st12" d="M307.6,265.7c-1.4-7.8-5.6-14.8-11.5-20.6c-5.4-5.2-12.3-8.3-20.3-10c-5.1,3.6-13,4.9-21.2,4.9
			c-8.2,0-15-1.4-19.4-5c-6.9,1.4-13,3.9-18,8.2c-7.1,6.1-12,13.8-13.7,22.5H307.6z"/>
	</g>
</g>
</svg>
