<?xml version="1.0" encoding="utf-8"?>
<!-- Generator: Adobe Illustrator 19.0.0, SVG Export Plug-In . SVG Version: 6.00 Build 0)  -->
<svg version="1.1" id="Layer_1" xmlns="http://www.w3.org/2000/svg" xmlns:xlink="http://www.w3.org/1999/xlink" x="0px" y="0px"
	 viewBox="0 0 512 512" enable-background="new 0 0 512 512" xml:space="preserve">
<path fill="#FDD835" d="M295.2,390.1c1.2-21.4,15.3-39.9,35.6-46.8c10.6-3.6,20.1-9.4,28.2-17.4c36.1-36.1,26.6-104-21.1-151.7
	S222.2,117,186.1,153.1c-8,8-13.8,17.6-17.4,28.2c-6.9,20.3-25.4,34.4-46.8,35.6c-31.6,1.8-61.7,14-84.7,37
	C-16.9,308-11.4,401.3,49.7,462.4s154.4,66.6,208.5,12.4C281.2,451.8,293.4,421.7,295.2,390.1z"/>
<path fill="#E5AB1A" d="M295.2,390.1c1.2-21.4,15.3-39.9,35.6-46.8c10.6-3.6,20.1-9.4,28.2-17.4c36.1-36.1,26.6-104-21.1-151.7
	L49.7,462.4l0,0c61,61,154.4,66.6,208.5,12.4C281.2,451.8,293.4,421.7,295.2,390.1z"/>
<rect x="343.6" y="-5.8" transform="matrix(0.7071 0.7071 -0.7071 0.7071 206.766 -224.9186)" fill="#844D00" width="62.5" height="285.9"/>
<rect x="370.1" y="5.1" transform="matrix(0.7071 0.7071 -0.7071 0.7071 217.7116 -229.4495)" fill="#704100" width="31.5" height="285.9"/>
<path fill="#FDD835" d="M498,81.3c18.6-18.6,18.6-48.8,0-67.4s-48.8-18.6-67.4,0l-26.3,26.3c-5.8,5.8-5.8,15.1,0,20.9l46.5,46.5
	c5.8,5.8,15.1,5.8,20.9,0L498,81.3z"/>
<path fill="#E5AB1A" d="M498,14l-70.4,70.4l23.2,23.2c5.8,5.8,15.1,5.8,20.9,0L498,81.3C516.7,62.7,516.7,32.5,498,14z"/>
<circle fill="#3E3D41" cx="245.8" cy="266.2" r="52.2"/>
<rect x="388.4" y="81" transform="matrix(0.7071 0.7071 -0.7071 0.7071 188.2032 -269.7106)" fill="#704100" width="62.5" height="22.6"/>
</svg>
