<svg class="grid" xmlns="http://www.w3.org/2000/svg" viewBox="0 127.4 595.2 587">
	<path class="box4" d="M570.5 466.4H372c-13.6 0-24.8 11.2-24.8 24.8v198.4c0 13.6 11.2 24.8 24.8 24.8h198.4c13.6 0 24.8-11.2 24.8-24.8V491.2c.1-13.6-11.1-24.8-24.7-24.8zm-24.8 198.4H396.9V516h148.8v148.8z"/>
	<path class="box1" d="M223.2 127.4H24.8C11.2 127.4 0 138.6 0 152.2v198.4c0 13.6 11.2 24.8 24.8 24.8h198.4c13.6 0 24.8-11.2 24.8-24.8V152.2c0-13.6-11.1-24.8-24.8-24.8zm-24.8 198.5H49.6V177h148.8v148.9z"/>
	<path class="box2" d="M570.5 127.4H372c-13.6 0-24.8 11.2-24.8 24.8v198.4c0 13.6 11.2 24.8 24.8 24.8h198.4c13.6 0 24.8-11.2 24.8-24.8V152.2c.1-13.6-11.1-24.8-24.7-24.8zm-24.8 198.5H396.9V177h148.8v148.9z"/>
	<path class="box3" d="M223.2 466.4H24.8C11.2 466.4 0 477.6 0 491.2v198.4c0 13.6 11.2 24.8 24.8 24.8h198.4c13.6 0 24.8-11.2 24.8-24.8V491.2c0-13.6-11.1-24.8-24.8-24.8zm-24.8 198.4H49.6V516h148.8v148.8z"/>
</svg>