<?xml version="1.0" encoding="utf-8"?>
<!-- Generator: Adobe Illustrator 18.0.0, SVG Export Plug-In . SVG Version: 6.00 Build 0)  -->
<!DOCTYPE svg PUBLIC "-//W3C//DTD SVG 1.1//EN" "http://www.w3.org/Graphics/SVG/1.1/DTD/svg11.dtd">
<svg version="1.1" id="Layer_3" xmlns="http://www.w3.org/2000/svg" xmlns:xlink="http://www.w3.org/1999/xlink" x="0px" y="0px"
	 viewBox="-307.6 481.7 615.2 620.7" enable-background="new -307.6 481.7 615.2 620.7" xml:space="preserve">
<g>
	<path d="M47.9,875.2h-337.5c-9.9,0-18-8.1-18-18V499.7c0-9.9,8.1-18,18-18H47.9c9.9,0,18,8.1,18,18v357.6
		C65.9,867.1,57.8,875.2,47.9,875.2z M-277.6,845.2H35.9V511.7h-313.5V845.2z"/>
</g>
<g>
	<path d="M289.6,724.6H107.5c-9.9,0-18-8.1-18-18v-207c0-9.9,8.1-18,18-18h182.1c9.9,0,18,8.1,18,18v207
		C307.6,716.6,299.5,724.6,289.6,724.6z M119.5,694.6h158.1v-183H119.5V694.6z"/>
</g>
<g>
	<path d="M289.6,1102H107.5c-9.9,0-18-8.1-18-18V761.7c0-9.9,8.1-18,18-18h182.1c9.9,0,18,8.1,18,18V1084
		C307.6,1093.9,299.5,1102,289.6,1102z M119.5,1072h158.1V773.7H119.5V1072z"/>
</g>
<g>
	<path d="M47.9,1102.3h-337.5c-9.9,0-18-8.1-18-18V910.2c0-9.9,8.1-18,18-18H47.9c9.9,0,18,8.1,18,18v174.2
		C65.9,1094.3,57.8,1102.3,47.9,1102.3z M-277.6,1072.3H35.9V922.2h-313.5V1072.3z"/>
</g>
</svg>
