<?xml version="1.0" encoding="utf-8"?>
<!-- Generator: Adobe Illustrator 18.0.0, SVG Export Plug-In . SVG Version: 6.00 Build 0)  -->
<!DOCTYPE svg PUBLIC "-//W3C//DTD SVG 1.1//EN" "http://www.w3.org/Graphics/SVG/1.1/DTD/svg11.dtd">
<svg version="1.1" id="Layer_1" xmlns="http://www.w3.org/2000/svg" xmlns:xlink="http://www.w3.org/1999/xlink" x="0px" y="0px"
	 viewBox="-306 524.2 612 535.6" enable-background="new -306 524.2 612 535.6" xml:space="preserve">
<path id="screen" d="M260,524.2H-260c-28.1,0-46,17.9-46,46v342.4c0,28.1,17.9,46,46,46h169.3l-31.2,68.8
	c-3.2,7.1-2.6,15.4,1.6,21.9c4.2,6.6,11.5,10.5,19.3,10.5h202c0,0,0,0,0,0c12.7,0,23-10.3,23-23c0-3.8-0.9-7.4-2.6-10.6l-30.7-67.7
	H260c28.1,0,46-17.9,46-46V570.2C306,542.1,288.1,524.2,260,524.2z M270.1,917.6c0,2.8-2.3,5.1-5.1,5.1H-265c-2.8,0-5.1-2.3-5.1-5.1
	V565.2c0-2.8,2.3-5.1,5.1-5.1H265c2.8,0,5.1,2.3,5.1,5.1L270.1,917.6L270.1,917.6z"/>
<g id="brush">
	<path d="M103.5,742.7c-2.8,3.7-5.4,7.4-8,10.9c-1.2,1.7-1.9,3.5-2.1,5.2c0,0.4,0,0.8,0,1.1c0.1,2,1.1,3.4,2.8,4
		c2.9,1,5.7,2.5,8.3,4.6c3.3,2.6,5.8,6,7.3,9.9c0.7,1.8,2.3,2.7,4.4,2.5c2.1-0.2,4.3-1.5,6.1-3.5c3.4-3.7,6.8-7.6,10.3-11.6
		c10.4-12.2,30.8-37.1,40.8-49.6c17.2-21.5,32.1-43,43.8-61.1c8.2-12.8,22.2-35.9,23.4-46.6c0.2-2-0.3-3.6-1.5-4.6
		c-1.2-1-2.9-1.2-4.8-0.5c-7,2.3-20.1,12.7-37.1,29.3c-16.1,15.8-35.2,36.2-53.9,59.3C133.2,704.7,113.3,730,103.5,742.7z"/>
	<path d="M104.9,807.6c1.4-9.7-1.6-18.7-8.5-26.2c-8.3-9-17.9-12.7-27.6-10.7c-9.6,2-19.1,9.5-26,20.8c-5.9,9.7-8.5,18.4-10.8,26
		c-2.4,8.1-4.8,15.7-10.4,22.6c-1.2,1.4-1.9,3.1-2.1,4.7c-0.2,1.1-0.1,2.3,0.3,3.4c0.8,2.6,3.1,4.3,6,4.6c21.8,2,42.4-2.8,57.9-13.8
		C95.5,830.6,103.3,819.1,104.9,807.6z"/>
</g>
<path d="M-40.7,836.4l-4.6,20.3c-23.9-2.2-89-11.7-103.1-50.5l4.9,0.4l2.5-33.4l-6.6-0.5c5.2-11.8,15.4-21.2,26.1-30.9
	c11.5-10.5,23.3-21.3,29-35.8l9.9,1l3.4-33.4l-11.5-1.2c-5.1-20-20.7-36.1-46.6-47.9c-16.6-7.6-33.3-11.5-42.6-13.2l4-17.4
	l-47.2-10.8l-10.8,47.2l47.2,10.8l3.5-15.3c8.4,1.6,24.2,5.1,39.7,12.2c19,8.7,31.3,19.7,36.6,32.7l-5.6-0.6l-3.4,33.4l7.8,0.8
	c-5,9.6-14,17.8-23.4,26.4c-12.7,11.6-25.8,23.6-31.6,40.8l-11.3-0.8l-2.5,33.4l12.6,0.9c5.6,23.1,24.2,40.9,55.1,52.8
	c9,3.5,18.3,6.1,27.1,8.1c12.9,2.9,24.8,4.5,33.4,5.4l-2.8,12.3l47.2,10.8l10.8-47.2L-40.7,836.4z M-193.8,629.9l-29.1-6.6l6.6-29.1
	l29.1,6.6L-193.8,629.9z M-89.5,681.9l-1.5,14.8l-14.8-1.5l1.5-14.8L-89.5,681.9z M-165.9,780.7l14.9,1.1l-1.1,14.9l-14.9-1.1
	L-165.9,780.7z M-11.3,883.3l-29.1-6.6l6.6-29.1l29.1,6.6L-11.3,883.3z"/>
</svg>
