<svg xmlns="http://www.w3.org/2000/svg" viewBox="-15 175.3 635.3 639"><path fill="#1B2737" d="M262.5 464.1H-3.8c-6.2 0-11.2-5.1-11.2-11.2V186.6c0-6.2 5.1-11.2 11.2-11.2h266.2c6.2 0 11.2 5.1 11.2 11.2v266.2c.1 6.2-4.9 11.3-11.1 11.3zM609 464.1H342.8c-6.2 0-11.2-5.1-11.2-11.2V186.6c0-6.2 5.1-11.2 11.2-11.2H609c6.2 0 11.2 5.1 11.2 11.2v266.2c.1 6.2-5 11.3-11.2 11.3zM262.5 814.4H-3.8c-6.2 0-11.2-5.1-11.2-11.2V536.9c0-6.2 5.1-11.2 11.2-11.2h266.2c6.2 0 11.2 5.1 11.2 11.2v266.2c.1 6.2-4.9 11.3-11.1 11.3zM609 814.4H342.8c-6.2 0-11.2-5.1-11.2-11.2V536.9c0-6.2 5.1-11.2 11.2-11.2H609c6.2 0 11.2 5.1 11.2 11.2v266.2c.1 6.2-5 11.3-11.2 11.3z"/></svg>