<svg xmlns="http://www.w3.org/2000/svg" viewBox="0 0 416 416" fill="#FFF"><path d="M271.6 163.65h-11.2c-4.4 0-8 3.6-8 8s3.6 8 8 8h11.2c4.4 0 8-3.6 8-8s-3.6-8-8-8z"/><path d="M408 355.25h-44v-175.6h24c7.2 0 13.2-4.8 15.2-11.6 2-7.2-.8-14.4-7.2-18l-170.8-99.6c-12.4-7.6-28.4-7.6-40.8 0l-170.8 99.6c-6.4 3.6-9.6 10.8-7.6 17.6 2 7.2 8 12 15.6 12H44v175.6H8c-4.4 0-8 3.6-8 8s3.6 8 8 8h400c4.4 0 8-3.6 8-8s-3.6-8-8-8zm-108 0h-48v-120c0-4.4 3.6-8 8-8h32c4.4 0 8 3.6 8 8v120zm48-183.6c0 .8 0 1.2.4 1.6 0 .4-.4 1.2-.4 1.6v180h-32v-119.6c0-13.2-10.8-24-24-24h-32c-13.2 0-24 10.8-24 24v120H60v-175.6h164.4c4.4 0 8-3.6 8-8s-3.6-8-8-8H22l170.4-99.6c7.6-4.4 17.2-4.4 24.8 0l170.8 99.6h-32c-4.4 0-8 3.6-8 8z"/><path d="M148 211.25c-22 0-40 18-40 40s18 40 40 40 40-18 40-40-18-40-40-40zm0 64c-13.2 0-24-10.8-24-24s10.8-24 24-24 24 10.8 24 24-10.8 24-24 24z"/></svg>