<svg xmlns="http://www.w3.org/2000/svg" viewBox="444 204 392 392"><path class="social-icon" d="M770.2 204H509.8c-36.2 0-65.8 29.6-65.8 65.8v260.3c0 36.2 29.6 65.8 65.8 65.8h260.3c36.2 0 65.8-29.6 65.8-65.8V269.8c.1-36.2-29.5-65.8-65.7-65.8zM591 522.5h-49V351h49v171.5zm-24.5-196c-13.5 0-24.5-11-24.5-24.5s11-24.5 24.5-24.5 24.5 11 24.5 24.5-11 24.5-24.5 24.5zm196 196h-49v-98c0-13.5-11-24.5-24.5-24.5s-24.5 11-24.5 24.5v98h-49V351h49v30.4c10.1-13.9 25.6-30.4 42.9-30.4 30.4 0 55.1 27.4 55.1 61.2v110.3z"/></svg>