<svg xmlns="http://www.w3.org/2000/svg" viewBox="444 239.8 392 320.5"><path fill="#0A0A0A" d="M836 277.7c-14.4 6.4-29.9 10.8-46.2 12.7 16.6-10 29.4-25.9 35.4-44.8-15.5 9.3-32.7 16-51.1 19.6-14.7-15.7-35.6-25.5-58.7-25.5-44.4 0-80.4 36.2-80.4 80.9 0 6.3.7 12.5 2.1 18.4-66.8-3.4-126.1-35.6-165.8-84.5-6.9 12-10.9 25.8-10.9 40.7 0 28.1 14.2 52.8 35.8 67.3-13.2-.4-25.6-4.1-36.4-10.1v1c0 39.2 27.7 71.9 64.5 79.3-6.8 1.9-13.9 2.8-21.2 2.8-5.2 0-10.2-.5-15.1-1.5 10.2 32.1 39.9 55.5 75.1 56.2-27.5 21.7-62.2 34.6-99.9 34.6-6.5 0-12.9-.4-19.2-1.1 35.6 23 77.9 36.3 123.3 36.3 147.9 0 228.8-123.3 228.8-230.2 0-3.5-.1-7-.2-10.5 15.7-11.1 29.3-25.4 40.1-41.6z"/></svg>