<svg xmlns="http://www.w3.org/2000/svg" viewBox="444 204 392 392"><path fill="#0A0A0A" d="M737.1 290.6c-2.6 3.8-24.7 33.4-76.8 52.9-24-44.1-50.6-80.3-54.7-85.8 11-2.7 22.5-4.1 34.3-4.1 37.3.1 71.3 14.1 97.2 37zm-86.9 110.9c-75.6 24.4-115.8 91-119.1 96.7-23.4-26-37.7-60.3-37.7-97.9 0-1.5 0-3 .1-4.5 6.4.1 77.4 1 150.6-20.8 4.2 8.2 8.2 16.5 11.9 24.9-1.9.4-3.9 1-5.8 1.6zM640 204c-108.2 0-196 87.8-196 196s87.8 196 196 196 196-87.8 196-196-87.8-196-196-196zm0 367.5c-94.6 0-171.5-76.9-171.5-171.5S545.4 228.5 640 228.5 811.5 305.4 811.5 400 734.6 571.5 640 571.5zm41.3-184.9c-3-7.1-6.3-14.2-9.7-21.2 54.2-22.1 78.7-53.6 81.8-57.8 20.4 24.9 32.8 56.7 33.1 91.3-4.8-1-53.3-10.8-102-4.7-1.1-2.6-2.1-5.1-3.2-7.6zM632 352.4c-68.5 18.2-128.9 17.9-135.4 17.8 9.5-45.5 40.1-83.2 81.1-102.6 3.9 5.3 30.1 41.6 54.3 84.8zm33 71.9c.3-.1.6-.2 1-.3 20.6 53.4 29.1 98.2 31.3 111.1-17.6 7.5-36.9 11.6-57.2 11.6-33.9 0-65.1-11.6-89.9-30.9 2.5-5.4 32.2-62.7 114.8-91.5zm28.4-7.1c45.9-7.3 86.2 4.7 91.2 6.3-6.5 40.8-29.9 76-62.8 98.2-1.5-9-9.3-51.8-28.4-104.5z"/></svg>