<?xml version="1.0" encoding="utf-8"?>
<!-- Generator: Adobe Illustrator 21.0.0, SVG Export Plug-In . SVG Version: 6.00 Build 0)  -->
<svg version="1.1" id="Layer_1" xmlns="http://www.w3.org/2000/svg" xmlns:xlink="http://www.w3.org/1999/xlink" x="0px" y="0px"
	 viewBox="0 0 512 512" style="enable-background:new 0 0 512 512;" xml:space="preserve">
<style type="text/css">
	.st0{fill:#4ACFD9;}
	.st1{fill:#365558;}
	.st2{fill:#6D6D6D;}
	.st3{fill:#444444;}
	.st4{fill:#BFBFBF;}
	.st5{fill:#E2E2E2;}
	.st6{fill:#999999;}
	.st7{fill:#FF8C29;}
	.st8{fill:#FD6A33;}
	.st9{fill:#F0353D;}
</style>
<path class="st0" d="M350.6,511.4H161.4l82.8-167h23.7L350.6,511.4z"/>
<path class="st1" d="M247.7,436.9v-44.5c0-4.6,3.7-8.3,8.3-8.3c4.6,0,8.3,3.7,8.3,8.3v44.5c0,4.6-3.7,8.3-8.3,8.3
	S247.7,441.5,247.7,436.9z M411.8,495.3H264.3v-25c0-4.6-3.7-8.3-8.3-8.3s-8.3,3.7-8.3,8.3v25H100.2c-4.6,0-8.3,3.7-8.3,8.3
	s3.7,8.3,8.3,8.3h311.7c4.6,0,8.3-3.7,8.3-8.3S416.4,495.3,411.8,495.3z"/>
<path class="st2" d="M333.9,111.3H178.1V33.4h155.8L333.9,111.3L333.9,111.3z"/>
<path class="st3" d="M333.9,111.3h-44.5V33.4h44.5V111.3z"/>
<path class="st4" d="M356.2,122.4v66.8c0,12.3-10,22.3-22.3,22.3v22.3H178.1v-22.3c-12.3,0-22.3-10-22.3-22.3v-66.8
	c0-12.3,10-22.3,22.3-22.3h155.8C346.2,100.2,356.2,110.1,356.2,122.4z"/>
<path class="st5" d="M233.7,211.5h-44.5V100.2h44.5V211.5z"/>
<path class="st6" d="M378.4,11.1v22.3c0,6.1-5,11.1-11.1,11.1H144.7c-6.1,0-11.1-5-11.1-11.1V11.1c0-6.1,5-11.1,11.1-11.1h222.6
	C373.5,0,378.4,5,378.4,11.1z M333.9,100.2h-44.5v111.3h44.5c12.3,0,22.3-10,22.3-22.3v-66.8C356.2,110.1,346.2,100.2,333.9,100.2z"
	/>
<path class="st4" d="M289.4,44.5H144.7c-6.1,0-11.1-5-11.1-11.1V11.1c0-6.1,5-11.1,11.1-11.1h144.7L289.4,44.5L289.4,44.5z"/>
<path class="st7" d="M322.8,233.7V256l-50.7,101.3c-3.1,6.1-9.3,10-16.1,10c-6.8,0-13.1-3.9-16.1-10L189.2,256v-22.3H322.8z"/>
<path class="st8" d="M333.9,211.5v33.4c0,6.1-5,11.1-11.1,11.1l-50.7,101.3c-3.1,6.1-9.3,10-16.1,10c-6.8,0-13.1-3.9-16.1-10
	l-0.6-1.2L289.4,256H189.2c-6.1,0-11.1-5-11.1-11.1v-33.4L333.9,211.5L333.9,211.5z"/>
<path class="st9" d="M333.9,211.5v33.4c0,6.1-5,11.1-11.1,11.1h-33.4v-44.5L333.9,211.5L333.9,211.5z"/>
</svg>
