<?xml version="1.0" encoding="iso-8859-1"?>
<!-- Generator: Adobe Illustrator 19.0.0, SVG Export Plug-In . SVG Version: 6.00 Build 0)  -->
<svg version="1.1" id="Layer_1" xmlns="http://www.w3.org/2000/svg" xmlns:xlink="http://www.w3.org/1999/xlink" x="0px" y="0px"
	 viewBox="0 0 511.998 511.998" style="enable-background:new 0 0 511.998 511.998;" xml:space="preserve">
<path style="fill:#73A1FB;" d="M427.685,198.465c-48.81,0-80.495,38.242-90.906,50.809c-0.076,0.092-0.153,0.185-0.23,0.277
	c-0.067-0.082-0.134-0.163-0.2-0.243c-10.378-12.575-41.952-50.842-91.158-50.842c-32.38,0-57.349,16.317-74.269,48.512
	c-14.417-25.884-35.691-38.999-63.292-38.999c-23.102,0-35.444,6.137-42.36,11.507c1.38-8.607,3.545-21.846,6.478-39.05h93.748
	c2.318,0,4.197-1.878,4.197-4.197V138.19c0-2.318-1.878-4.197-4.197-4.197H33.871c-2.04,0-3.784,1.465-4.135,3.475L7.48,264.931
	c-0.213,1.22,0.124,2.474,0.922,3.423c0.799,0.948,1.974,1.497,3.213,1.497h42.603c1.539,0,2.954-0.843,3.688-2.196
	c0.086-0.158,8.827-15.773,31.922-15.773c24.519,0,37.347,19.156,37.347,38.079c0,20.171-15.973,42.729-37.347,42.729
	c-21.037,0-33.957-17.994-33.957-30.893c0-2.318-1.878-4.197-4.197-4.197H4.197c-2.318,0-4.197,1.878-4.197,4.197
	c0,8.256,3.228,26.651,15.325,43.235c10.972,15.043,32.803,32.973,74.502,32.973c48.007,0,72.801-27.515,81.589-44.364
	c9.461,16.48,33.621,44.364,73.773,44.364c49.09,0,78.527-34.677,89.612-47.73c0.623-0.735,1.281-1.509,1.873-2.192
	c0.797,0.826,1.722,1.811,2.592,2.736c12.12,12.906,44.314,47.186,88.417,47.186c52.778,0,84.315-45.84,84.315-90.157
	c0-22.135-7.286-43.985-19.988-59.949C476.689,208.643,454.444,198.465,427.685,198.465z M428.056,324.215
	c-23.408,0-49.442-26.914-57.221-35.587c7.779-8.672,33.814-35.587,57.221-35.587c30.681,0,31.571,35.222,31.571,35.593
	C459.627,288.991,458.739,324.215,428.056,324.215z M245.456,324.215c-30.683,0-31.573-35.222-31.573-35.585v-0.008h0.002
	c0-0.356,0.881-35.578,31.571-35.578c23.307,0,49.402,26.906,57.213,35.587C294.865,297.302,268.766,324.215,245.456,324.215z"/>
<g>
</g>
<g>
</g>
<g>
</g>
<g>
</g>
<g>
</g>
<g>
</g>
<g>
</g>
<g>
</g>
<g>
</g>
<g>
</g>
<g>
</g>
<g>
</g>
<g>
</g>
<g>
</g>
<g>
</g>
</svg>
