<svg id="Layer_1" xmlns="http://www.w3.org/2000/svg" viewBox="42 -41.3 595.3 595.3"><style>.st0{display:none}.st1,.st2{display:inline;fill:#28aae2}.st2{fill:#fff}.st3{fill:#ea4c89}.st3,.st4{display:inline}.st5{fill:#fff}.st6{fill:#047cb7}.st7{display:inline;fill:#3c5a98}.st8{fill:#0099e5}</style><g id="twitter" class="st0"><path class="st1" d="M69.6-268.1C-95.4-268.1-228-237-228 29.5S-95.4 327.1 69.6 327.1 367.2 296 367.2 29.5 234.7-268.1 69.6-268.1z"/><path class="st2" d="M226.6-40.8v9.5c0 97.4-74.4 211.1-211.1 211.1-41.9 0-81.2-12.2-113.6-33.8 5.4 0 12.2 1.4 17.6 1.4 35.2 0 66.3-12.2 92-31.1-32.5 0-59.5-21.6-69-51.4 4.1 1.4 9.5 1.4 13.5 1.4 6.8 0 13.5-1.4 18.9-2.7-33.8-6.8-59.5-36.5-59.5-73.1v-1.4c9.5 5.4 21.6 9.5 33.8 9.5-20.3-13.5-32.5-36.5-32.5-62.2 0-13.5 4.1-25.7 9.5-37.9 36.5 44.6 90.6 74.4 152.9 77.1-1.4-5.4-1.4-10.8-1.4-16.2 0-40.6 33.8-74.4 74.4-74.4 21.6 0 40.6 9.5 54.1 23 16.2-2.7 32.5-9.5 47.4-17.6C248.2-92 236-77.1 221.1-69c14.9-1.4 29.8-5.4 41.9-12.2-9.4 16-21.5 29.6-36.4 40.4z"/></g><g id="dribbble" class="st0"><path class="st3" d="M69.6-267.1C-95.4-267.1-228-236-228 30.5S-95.4 328.1 69.6 328.1 367.2 297 367.2 30.5 234.7-267.1 69.6-267.1z"/><g id="Dribbble" class="st4"><path class="st5" d="M69.7-153.1c-101.4 0-183.5 82.2-183.5 183.5s82.2 183.5 183.5 183.5 183.5-82.2 183.5-183.5S171-153.1 69.7-153.1zm120.4 88.9c19.7 25.1 31.8 56.3 32.8 90.4-41.2-7.2-76.7-7.4-107.4-2.6-3.9-8.9-7.9-17.6-12-26 32.9-13.5 62.4-33.3 86.6-61.8zm-21.1-22C147.4-60 120.3-41.9 89.6-29.6c-19.7-36.4-39.9-66.8-56-88.9 11.6-2.8 23.7-4.3 36.1-4.3 37.8-.1 72.5 13.8 99.3 36.6zM3.8-107.9c15.6 20.8 36.4 51 56.7 88.1C17.4-8-30.7-4.8-79.5-4.6c10.7-45.7 41.9-83.6 83.3-103.3zM-83.6 30.4l.1-5h.8c54.6 0 108.9-3.6 157.5-17.9 3.6 7.4 7.2 14.9 10.7 22.7C21.5 49-18.4 91.1-45.7 131.1-69.3 104.3-83.6 69-83.6 30.4zm60.2 121.8c25.9-39 61.9-77.5 120.6-93.7 13.7 35.1 24.9 73.5 30.8 113.7-18 7.5-37.7 11.6-58.4 11.6-34.9 0-67.2-11.8-93-31.6zm179.7 4.7C150 120.1 139.7 85 127.4 52.5c26.8-3.4 57.7-2.6 93.4 4-7.2 41.5-31.1 77.4-64.5 100.4z"/></g></g><g id="linkedin" class="st0"><g class="st4"><path class="st6" d="M69.6-144.9c-165 0-297.6 31.1-297.6 297.6S-95.4 450.3 69.6 450.3s297.6-31.1 297.6-297.6S234.7-144.9 69.6-144.9zm13.6 265.2z"/></g><g class="st4"><path class="st5" d="M-64.3 91.9H.6v194.8h-64.9zm32.5-32.5c-32.5 0-32.5-12.2-32.5-31.1 0-17.6 0-33.8 32.5-33.8S.7 8 .7 27C.6 45.9.6 59.4-31.8 59.4zm259.7 227.3H163v-97.4c0-27.1-5.4-52.8-28.4-52.8-17.6 0-28.4 12.2-33.8 24.4a49.5 49.5 0 0 0-2.7 16.2v109.6H33.2s1.4-175.9 0-194.8h64.9v25.7c8.1-13.5 24.4-32.5 59.5-32.5 43.3 0 70.4 27.1 70.4 87.9l-.1 113.7z"/></g></g><g id="facebook" class="st0"><path class="st7" d="M69.6-144.9c-165 0-297.6 31.1-297.6 297.6S-95.4 450.3 69.6 450.3s297.6-31.1 297.6-297.6S234.7-144.9 69.6-144.9z"/><path class="st2" d="M264.5 90.5h-40.6c-6.8 0-24.4 0-24.4 17.6v44.6h63.6l-1.4 63.6h-62.2v234.1h-85.2V216.3H72.4v-63.6h41.9V98.6c0-36.5 17.6-94.7 85.2-94.7h63.6v86.6h1.4z"/></g><g id="_x35_00px"><path class="st8" d="M339.6-41.2C174.6-41.2 42-10.1 42 256.4S174.6 554 339.6 554s297.6-31.1 297.6-297.6S504.8-41.2 339.6-41.2z"/><path id="XMLID_458_" class="st5" d="M495.5 199.5c-41.5 0-68.4 32.5-77.3 43.2-.1.1-.1.2-.2.2l-.2-.2c-8.8-10.7-35.7-43.2-77.5-43.2-27.5 0-48.7 13.9-63.1 41.2-12.3-22-30.3-33.1-53.8-33.1-19.6 0-30.1 5.2-36 9.8 1.2-7.3 3-18.6 5.5-33.2h79.7c2 0 3.6-1.6 3.6-3.6v-32.3c0-2-1.6-3.6-3.6-3.6H160.8c-1.7 0-3.2 1.2-3.5 3L138.4 256c-.2 1 .1 2.1.8 2.9.7.8 1.7 1.3 2.7 1.3h36.2c1.3 0 2.5-.7 3.1-1.9.1-.1 7.5-13.4 27.1-13.4 20.8 0 31.7 16.3 31.7 32.4 0 17.1-13.6 36.3-31.7 36.3-17.9 0-28.9-15.3-28.9-26.3 0-2-1.6-3.6-3.6-3.6h-40.2c-2 0-3.6 1.6-3.6 3.6 0 7 2.7 22.7 13 36.7 9.3 12.8 27.9 28 63.3 28 40.8 0 61.9-23.4 69.4-37.7 8 14 28.6 37.7 62.7 37.7 41.7 0 66.7-29.5 76.2-40.6.5-.6 1.1-1.3 1.6-1.9.7.7 1.5 1.5 2.2 2.3 10.3 11 37.7 40.1 75.2 40.1 44.9 0 71.7-39 71.7-76.6 0-18.8-6.2-37.4-17-51-13.1-16.2-32-24.8-54.8-24.8zm.3 106.8c-19.9 0-42-22.9-48.6-30.2 6.6-7.4 28.7-30.2 48.6-30.2 26.1 0 26.8 29.9 26.8 30.3.1.2-.7 30.1-26.8 30.1zm-155.2 0c-26.1 0-26.8-29.9-26.8-30.2 0-.3.7-30.2 26.8-30.2 19.8 0 42 22.9 48.6 30.2-6.6 7.4-28.7 30.2-48.6 30.2z"/></g></svg>