<svg id="Layer_1" xmlns="http://www.w3.org/2000/svg" viewBox="-501 303.7 595.3 595.3"><style>.st0{fill:#28aae2}.st1{fill:#fff}.st2{fill:#ea4c89}.st3{display:none}.st4{display:inline}.st5{fill:#047cb7}.st6,.st7{display:inline;fill:#3c5a98}.st7{fill:#fff}</style><g id="twitter"><path class="st0" d="M-203.4 303.8c-165 0-297.6 31.1-297.6 297.6S-368.4 899-203.4 899 94.2 867.9 94.2 601.4-38.3 303.8-203.4 303.8z"/><path class="st1" d="M-46.4 531.1v9.5c0 97.4-74.4 211.1-211.1 211.1-41.9 0-81.2-12.2-113.6-33.8 5.4 0 12.2 1.4 17.6 1.4 35.2 0 66.3-12.2 92-31.1-32.5 0-59.5-21.6-69-51.4 4.1 1.4 9.5 1.4 13.5 1.4 6.8 0 13.5-1.4 18.9-2.7-33.8-6.8-59.5-36.5-59.5-73.1V561c9.5 5.4 21.6 9.5 33.8 9.5-20.3-13.5-32.5-36.5-32.5-62.2 0-13.5 4.1-25.7 9.5-37.9 36.5 44.6 90.6 74.4 152.9 77.1-1.4-5.4-1.4-10.8-1.4-16.2 0-40.6 33.8-74.4 74.4-74.4 21.6 0 40.6 9.5 54.1 23 16.2-2.7 32.5-9.5 47.4-17.6-5.4 17.6-17.6 32.5-32.5 40.6 14.9-1.4 29.8-5.4 41.9-12.2-9.4 16-21.5 29.6-36.4 40.4z"/></g><g id="dribbble"><path class="st2" d="M-203.4 304.8c-165 0-297.6 31.1-297.6 297.6S-368.4 900-203.4 900 94.2 868.9 94.2 602.4-38.3 304.8-203.4 304.8z"/><path class="st1" d="M-203.3 418.8c-101.4 0-183.5 82.2-183.5 183.5s82.2 183.5 183.5 183.5 183.5-82.2 183.5-183.5-82.2-183.5-183.5-183.5zm120.4 88.9c19.7 25.1 31.8 56.3 32.8 90.4-41.2-7.2-76.7-7.4-107.4-2.6-3.9-8.9-7.9-17.6-12-26 32.9-13.5 62.4-33.3 86.6-61.8zm-21.1-22c-21.6 26.2-48.7 44.3-79.4 56.6-19.7-36.4-39.9-66.8-56-88.9 11.6-2.8 23.7-4.3 36.1-4.3 37.8-.1 72.5 13.8 99.3 36.6zM-269.2 464c15.6 20.8 36.4 51 56.7 88.1-43.1 11.8-91.2 15-140 15.2 10.7-45.7 41.9-83.6 83.3-103.3zm-87.4 138.3l.1-5h.8c54.6 0 108.9-3.6 157.5-17.9 3.6 7.4 7.2 14.9 10.7 22.7-64 18.8-103.9 60.9-131.2 100.9-23.6-26.8-37.9-62.1-37.9-100.7zm60.2 121.8c25.9-39 61.9-77.5 120.6-93.7 13.7 35.1 24.9 73.5 30.8 113.7-18 7.5-37.7 11.6-58.4 11.6-34.9 0-67.2-11.8-93-31.6zm179.7 4.7c-6.3-36.8-16.6-71.9-28.9-104.4 26.8-3.4 57.7-2.6 93.4 4-7.2 41.5-31.1 77.4-64.5 100.4z" id="Dribbble"/></g><g id="linkedin" class="st3"><g class="st4"><path class="st5" d="M-203.4 427c-165 0-297.6 31.1-297.6 297.6s132.6 297.6 297.6 297.6S94.2 991.1 94.2 724.6-38.3 427-203.4 427zm13.6 265.2z"/></g><g class="st4"><path class="st1" d="M-337.3 663.8h64.9v194.8h-64.9zm32.5-32.5c-32.5 0-32.5-12.2-32.5-31.1 0-17.6 0-33.8 32.5-33.8s32.5 13.5 32.5 32.5c-.1 18.9-.1 32.4-32.5 32.4zm259.7 227.3H-110v-97.4c0-27.1-5.4-52.8-28.4-52.8-17.6 0-28.4 12.2-33.8 24.4a49.5 49.5 0 0 0-2.7 16.2v109.6h-64.9s1.4-175.9 0-194.8h64.9v25.7c8.1-13.5 24.4-32.5 59.5-32.5 43.3 0 70.4 27.1 70.4 87.9l-.1 113.7z"/></g></g><g id="facebook" class="st3"><path class="st6" d="M-203.4 427c-165 0-297.6 31.1-297.6 297.6s132.6 297.6 297.6 297.6S94.2 991.1 94.2 724.6-38.3 427-203.4 427z"/><path class="st7" d="M-8.5 662.4h-40.6c-6.8 0-24.4 0-24.4 17.6v44.6h63.6l-1.4 63.6h-62.2v234.1h-85.2V788.2h-41.9v-63.6h41.9v-54.1c0-36.5 17.6-94.7 85.2-94.7h63.6v86.6h1.4z"/></g></svg>