<svg xmlns="http://www.w3.org/2000/svg" viewBox="0 246.6 595.2 595.2"><path fill="#DD4B38" d="M297.6 246.6C132.6 246.6 0 277.7 0 544.2s132.6 297.6 297.6 297.6 297.6-31.1 297.6-297.6-132.5-297.6-297.6-297.6z"/><path fill="#FFF" d="M158.6 557.4c0-26 4.4-49.6 13.3-70.6 8.8-21.1 20.7-39.1 35.6-54.2 14.9-15 32.3-26.6 52.3-34.8 19.9-8.2 41-12.3 63.3-12.3 19.7 0 37.6 3.2 53.6 9.5s29.7 15.2 40.9 26.7 19.9 25.3 25.9 41.3c6.1 16 9.1 33.7 9.1 52.8 0 16.9-2.5 31.8-7.4 44.5-4.9 12.8-11.3 23.4-19.1 32-7.8 8.6-16.5 15-26.1 19.3-9.6 4.3-19.1 6.4-28.4 6.4-10.9 0-20.1-2.4-27.7-7.2-7.6-4.8-12.3-12-14-21.6h-.9c-5.8 7.6-12.9 13.8-21.2 18.6-8.3 4.8-16.5 7.2-24.6 7.2-13.9 0-25.3-4.9-34.3-14.6-9-9.7-13.4-23.3-13.4-40.7 0-10.9 1.8-21.7 5.5-32.4s8.8-20.4 15.3-29c6.6-8.6 14.4-15.6 23.5-21s19.2-8.1 30.3-8.1c13.1 0 23 6.2 29.5 18.6h.8l4.9-15.5H373l-16.3 79.9c-6.3 25.5 0 38.3 18.9 38.3 5.8 0 11.6-1.7 17.4-5.1 5.8-3.4 11-8.3 15.5-14.6 4.5-6.3 8.2-14 11-22.9 2.8-9 4.2-19.1 4.2-30.5 0-14.4-2.1-27.9-6.2-40.5-4.2-12.6-10.5-23.7-18.9-33.1-8.5-9.5-19.3-17-32.4-22.5-13.1-5.6-28.7-8.3-46.6-8.3-16.7 0-32.8 3.4-48.5 10.2-15.7 6.8-29.5 16.5-41.7 29-12.1 12.5-21.9 27.5-29.4 45.1s-11.2 37.2-11.2 58.9c0 18.7 2.9 35.1 8.7 49.2 5.8 14.1 13.8 25.9 23.9 35.4 10.1 9.5 22 16.6 35.6 21.4 13.6 4.8 28.2 7.2 43.6 7.2 10.6 0 21.1-1.5 31.4-4.4 10.4-2.9 19.7-6.6 28-11.2l10.2 24.2c-22.2 12.6-46.6 18.9-73.1 18.9-18.7 0-36.4-2.9-53.2-8.7-16.8-5.8-31.5-14.6-44.1-26.3-12.6-11.7-22.7-26.3-30.1-43.6-7.4-17.4-11.1-37.6-11.1-60.9zm110.6-.4c0 10.4 2.1 17.9 6.2 22.5 4.2 4.7 9.8 7 16.9 7 4.5 0 9.2-1.5 14-4.5 4.8-3 10.1-8.1 15.9-15.2l9.8-55.7c-5.6-8.8-12.5-13.3-20.8-13.3-6.6 0-12.4 1.9-17.6 5.7-5.2 3.8-9.6 8.6-13.3 14.4-3.7 5.8-6.4 12.2-8.3 19.1-1.9 7.1-2.8 13.7-2.8 20z"/></svg>