<svg xmlns="http://www.w3.org/2000/svg" viewBox="0 0 595.3 841.9">
	<g fill="#047CB7">
		<path d="M297.6 369.9C132.6 369.9 0 401 0 667.5s132.6 297.6 297.6 297.6S595.2 934 595.2 667.5 462.8 369.9 297.6 369.9zM311.2 635.1z"/>
	</g>
	<g fill="#FFF">
		<path d="M163.7 606.7h64.9v194.8h-64.9zM196.2 574.2c-32.5 0-32.5-12.2-32.5-31.1 0-17.6 0-33.8 32.5-33.8s32.5 13.5 32.5 32.5c-.1 18.9-.1 32.4-32.5 32.4zM456 801.6h-64.9v-97.4c0-27.1-5.4-52.8-28.4-52.8-17.6 0-28.4 12.2-33.8 24.4-1.4 4.1-2.7 9.5-2.7 16.2v109.6h-64.9s1.4-175.9 0-194.8h64.9v25.7c8.1-13.5 24.4-32.5 59.5-32.5 43.3 0 70.4 27.1 70.4 87.9l-.1 113.7z"/>
	</g>
</svg>