<svg xmlns="http://www.w3.org/2000/svg" viewBox="0 123.3 595.3 595.3">
	<g>
		<path fill="#28AAE2" d="M297.6 123.3C132.6 123.3 0 154.4 0 420.9s132.6 297.6 297.6 297.6 297.6-31.1 297.6-297.6-132.5-297.6-297.6-297.6z"/>
		<path fill="#FFF" d="M454.6 350.6v9.5c0 97.4-74.4 211.1-211.1 211.1-41.9 0-81.2-12.2-113.6-33.8 5.4 0 12.2 1.4 17.6 1.4 35.2 0 66.3-12.2 92-31.1-32.5 0-59.5-21.6-69-51.4 4.1 1.4 9.5 1.4 13.5 1.4 6.8 0 13.5-1.4 18.9-2.7-33.8-6.8-59.5-36.5-59.5-73.1v-1.4c9.5 5.4 21.6 9.5 33.8 9.5-20.3-13.5-32.5-36.5-32.5-62.2 0-13.5 4.1-25.7 9.5-37.9 36.5 44.6 90.6 74.4 152.9 77.1-1.4-5.4-1.4-10.8-1.4-16.2 0-40.6 33.8-74.4 74.4-74.4 21.6 0 40.6 9.5 54.1 23 16.2-2.7 32.5-9.5 47.4-17.6-5.4 17.6-17.6 32.5-32.5 40.6 14.9-1.4 29.8-5.4 41.9-12.2-9.4 16-21.5 29.6-36.4 40.4z"/>
	</g>
</svg>