<?xml version="1.0" encoding="utf-8"?>
<!-- Generator: Adobe Illustrator 18.0.0, SVG Export Plug-In . SVG Version: 6.00 Build 0)  -->
<!DOCTYPE svg PUBLIC "-//W3C//DTD SVG 1.1//EN" "http://www.w3.org/Graphics/SVG/1.1/DTD/svg11.dtd">
<svg version="1.1" xmlns="http://www.w3.org/2000/svg" xmlns:xlink="http://www.w3.org/1999/xlink" x="0px" y="0px"
	 viewBox="0 0 929.1 550.6" enable-background="new 0 0 929.1 550.6" xml:space="preserve">
<g id="Layer_1">
	<rect x="-177.4" y="-139" display="none" fill="#29ABE2" stroke="#000000" stroke-miterlimit="10" width="1280" height="800"/>
	<g>
		<path fill="#ECEFF1" d="M919.1,550.6H10c-5.5,0-10-4.5-10-10V10C0,4.5,4.5,0,10,0h909.1c5.5,0,10,4.5,10,10v530.6
			C929.1,546.1,924.6,550.6,919.1,550.6z"/>
		<ellipse fill="#D84141" cx="19.2" cy="17.1" rx="5.2" ry="5.8"/>
		<ellipse fill="#FFC12F" cx="35.2" cy="17.1" rx="5.2" ry="5.8"/>
		<ellipse fill="#29CA42" cx="51.2" cy="17.1" rx="5.2" ry="5.8"/>
		<rect x="0" y="33" fill="#27303C" width="929.1" height="517.5"/>
	</g>
	<path display="none" opacity="0.69" fill="#C6C6C6" d="M594.1,455H335c-1.1,0-2-0.9-2-2v-21c0-1.1,0.9-2,2-2h259.1c1.1,0,2,0.9,2,2
		v21C596.1,454.1,595.2,455,594.1,455z"/>
	<path display="none" opacity="0.55" fill="#707070" d="M603.3,489.5H325.8c-1.1,0-2-0.9-2-2v-6.8c0-1.1,0.9-2,2-2h277.5
		c1.1,0,2,0.9,2,2v6.8C605.3,488.6,604.4,489.5,603.3,489.5z"/>
	<path display="none" opacity="0.55" fill="#707070" d="M591.4,513.2H337.7c-1.1,0-2-0.9-2-2V505c0-1.1,0.9-2,2-2h253.7
		c1.1,0,2,0.9,2,2v6.2C593.4,512.3,592.5,513.2,591.4,513.2z"/>
</g>
<g id="Layer_2" display="none">
	<g display="inline">
		<polygon id="Bridge_2_" fill="#CCCCCC" points="479.2,381.2 448,343.3 449.9,318.4 481.3,356.5 		"/>
		<polyline id="wht-Shadow_4_" fill="#BBBBBB" points="476,350.1 483.2,358.7 479.2,381.2 		"/>
		<polyline id="wht-Shadow_1_" fill="#BBBBBB" points="454.4,351.1 446,340.8 449.9,318.4 		"/>
		<path id="R-Wing_2_" fill="#E5E5E5" d="M479.2,381.2c0,0,6.1-3.4,10.4-6.3s8.5-6.7,8.5-6.7s1.9-9.9,1.9-18.5s-1.9-18.5-1.9-18.5
			s-4.5-3.8-8.5-6.7c-4-2.9-10.4-6.3-10.4-6.3s1.9,24.6,1.9,31.4C481.1,356.6,479.2,381.2,479.2,381.2z"/>
		<path id="L-Wing_2_" fill="#E5E5E5" d="M449.9,381.2c0,0-6.1-3.4-10.4-6.3s-8.5-6.7-8.5-6.7s-1.9-9.9-1.9-18.5s1.9-18.5,1.9-18.5
			s4.5-3.8,8.5-6.7c4-2.9,10.4-6.3,10.4-6.3S448,343,448,349.8C448,356.6,449.9,381.2,449.9,381.2z"/>
	</g>
</g>
</svg>
