<?xml version="1.0" encoding="utf-8"?>
<!-- Generator: Adobe Illustrator 18.0.0, SVG Export Plug-In . SVG Version: 6.00 Build 0)  -->
<!DOCTYPE svg PUBLIC "-//W3C//DTD SVG 1.1//EN" "http://www.w3.org/Graphics/SVG/1.1/DTD/svg11.dtd">
<svg version="1.1" xmlns="http://www.w3.org/2000/svg" xmlns:xlink="http://www.w3.org/1999/xlink" x="0px" y="0px"
	 viewBox="0 0 255 128" enable-background="new 0 0 255 128" xml:space="preserve">
<g id="Layer_1">
</g>
<g id="Layer_2">
	<path fill="#FCFCFC" d="M255,81.5c0-25.7-20.8-46.5-46.5-46.5c-2.4,0-4.8,0.2-7.2,0.6C190.9,14.5,169.1,0,144,0
		c-21.1,0-39.9,10.3-51.5,26.1C91.6,26,90.8,26,90,26c-18.5,0-34.8,9.9-43.7,24.7C43.9,50.2,41.5,50,39,50C17.5,50,0,67.5,0,89
		c0,21.5,17.5,39,39,39h175v-0.3C237.1,124.9,255,105.3,255,81.5z"/>
</g>
</svg>
