<?xml version="1.0" encoding="utf-8"?>
<!-- Generator: Adobe Illustrator 18.0.0, SVG Export Plug-In . SVG Version: 6.00 Build 0)  -->
<!DOCTYPE svg PUBLIC "-//W3C//DTD SVG 1.1//EN" "http://www.w3.org/Graphics/SVG/1.1/DTD/svg11.dtd">
<svg version="1.1" id="dribble" xmlns="http://www.w3.org/2000/svg" xmlns:xlink="http://www.w3.org/1999/xlink" x="0px" y="0px"
	 viewBox="444 204 392 392" enable-background="new 444 204 392 392" xml:space="preserve">
<path fill="#0A0A0A" d="M737.1,290.6c-2.6,3.8-24.7,33.4-76.8,52.9c-24-44.1-50.6-80.3-54.7-85.8c11-2.7,22.5-4.1,34.3-4.1
	C677.2,253.7,711.2,267.7,737.1,290.6L737.1,290.6z M650.2,401.5c-75.6,24.4-115.8,91-119.1,96.7c-23.4-26-37.7-60.3-37.7-97.9
	c0-1.5,0-3,0.1-4.5c6.4,0.1,77.4,1,150.6-20.8c4.2,8.2,8.2,16.5,11.9,24.9C654.1,400.3,652.1,400.9,650.2,401.5z M640,204
	c-108.2,0-196,87.8-196,196s87.8,196,196,196s196-87.8,196-196S748.2,204,640,204z M640,571.5c-94.6,0-171.5-76.9-171.5-171.5
	S545.4,228.5,640,228.5S811.5,305.4,811.5,400S734.6,571.5,640,571.5z M681.3,386.6c-3-7.1-6.3-14.2-9.7-21.2
	c54.2-22.1,78.7-53.6,81.8-57.8c20.4,24.9,32.8,56.7,33.1,91.3c-4.8-1-53.3-10.8-102-4.7C683.4,391.6,682.4,389.1,681.3,386.6
	L681.3,386.6z M632,352.4c-68.5,18.2-128.9,17.9-135.4,17.8c9.5-45.5,40.1-83.2,81.1-102.6C581.6,272.9,607.8,309.2,632,352.4
	L632,352.4z M665,424.3c0.3-0.1,0.6-0.2,1-0.3c20.6,53.4,29.1,98.2,31.3,111.1c-17.6,7.5-36.9,11.6-57.2,11.6
	c-33.9,0-65.1-11.6-89.9-30.9C552.7,510.4,582.4,453.1,665,424.3L665,424.3z M693.4,417.2c45.9-7.3,86.2,4.7,91.2,6.3
	c-6.5,40.8-29.9,76-62.8,98.2C720.3,512.7,712.5,469.9,693.4,417.2L693.4,417.2z"/>
</svg>
