<?xml version="1.0" encoding="utf-8"?>
<!-- Generator: Adobe Illustrator 18.0.0, SVG Export Plug-In . SVG Version: 6.00 Build 0)  -->
<!DOCTYPE svg PUBLIC "-//W3C//DTD SVG 1.1//EN" "http://www.w3.org/Graphics/SVG/1.1/DTD/svg11.dtd">
<svg version="1.1" id="facebook-square" xmlns="http://www.w3.org/2000/svg" xmlns:xlink="http://www.w3.org/1999/xlink" x="0px"
	 y="0px" viewBox="444 204 392 392" enable-background="new 444 204 392 392" xml:space="preserve">
<path fill="#0A0A0A" d="M770.7,204H509.3c-35.9,0-65.3,29.4-65.3,65.3v261.3c0,36,29.4,65.3,65.3,65.3h261.3
	c35.9,0,65.3-29.4,65.3-65.3V269.3C836,233.4,806.6,204,770.7,204L770.7,204z M777.3,400h-63.8v171.5H640V400h-35.4v-56.1H640v-36.4
	c0-49.5,21.4-79,79.6-79h67.1v60.7h-54.8c-16.3,0-18.3,8.5-18.3,24.3l-0.1,30.4H787L777.3,400L777.3,400L777.3,400z"/>
</svg>
