<?xml version="1.0" encoding="utf-8"?>
<!-- Generator: Adobe Illustrator 18.0.0, SVG Export Plug-In . SVG Version: 6.00 Build 0)  -->
<!DOCTYPE svg PUBLIC "-//W3C//DTD SVG 1.1//EN" "http://www.w3.org/Graphics/SVG/1.1/DTD/svg11.dtd">
<svg version="1.1" id="Layer_1" xmlns="http://www.w3.org/2000/svg" xmlns:xlink="http://www.w3.org/1999/xlink" x="0px" y="0px"
	 viewBox="-15 93.9 635 639" enable-background="new -15 93.9 635 639" xml:space="preserve">
<path fill="#1B2737" d="M281,401.9H-3c-6.6,0-12-5.4-12-12v-284c0-6.6,5.4-12,12-12h284c6.6,0,12,5.4,12,12v284
	C293,396.5,287.6,401.9,281,401.9z"/>
<path fill="#1B2737" d="M608,401.9H324c-6.6,0-12-5.4-12-12v-284c0-6.6,5.4-12,12-12h284c6.6,0,12,5.4,12,12v284
	C620,396.5,614.6,401.9,608,401.9z"/>
<path fill="#1B2737" d="M281,732.9H-3c-6.6,0-12-5.4-12-12v-284c0-6.6,5.4-12,12-12h284c6.6,0,12,5.4,12,12v284
	C293,727.5,287.6,732.9,281,732.9z"/>
<path fill="#1B2737" d="M608,732.9H324c-6.6,0-12-5.4-12-12v-284c0-6.6,5.4-12,12-12h284c6.6,0,12,5.4,12,12v284
	C620,727.5,614.6,732.9,608,732.9z"/>
</svg>
