<?xml version="1.0" encoding="utf-8"?>
<!-- Generator: Adobe Illustrator 18.0.0, SVG Export Plug-In . SVG Version: 6.00 Build 0)  -->
<!DOCTYPE svg PUBLIC "-//W3C//DTD SVG 1.1//EN" "http://www.w3.org/Graphics/SVG/1.1/DTD/svg11.dtd">
<svg version="1.1" id="Layer_1" xmlns="http://www.w3.org/2000/svg" xmlns:xlink="http://www.w3.org/1999/xlink" x="0px" y="0px"
	 viewBox="-15 175.3 635.3 639" enable-background="new -15 175.3 635.3 639" xml:space="preserve">
<path fill="#1B2737" d="M262.5,464.1H-3.8c-6.2,0-11.2-5.1-11.2-11.2V186.6c0-6.2,5.1-11.2,11.2-11.2h266.2
	c6.2,0,11.2,5.1,11.2,11.2v266.2C273.7,459,268.7,464.1,262.5,464.1z"/>
<path fill="#1B2737" d="M609,464.1H342.8c-6.2,0-11.2-5.1-11.2-11.2V186.6c0-6.2,5.1-11.2,11.2-11.2H609c6.2,0,11.2,5.1,11.2,11.2
	v266.2C620.3,459,615.2,464.1,609,464.1z"/>
<path fill="#1B2737" d="M262.5,814.4H-3.8c-6.2,0-11.2-5.1-11.2-11.2V536.9c0-6.2,5.1-11.2,11.2-11.2h266.2
	c6.2,0,11.2,5.1,11.2,11.2v266.2C273.7,809.3,268.7,814.4,262.5,814.4z"/>
<path fill="#1B2737" d="M609,814.4H342.8c-6.2,0-11.2-5.1-11.2-11.2V536.9c0-6.2,5.1-11.2,11.2-11.2H609c6.2,0,11.2,5.1,11.2,11.2
	v266.2C620.3,809.3,615.2,814.4,609,814.4z"/>
</svg>
