<?xml version="1.0" encoding="utf-8"?>
<!-- Generator: Adobe Illustrator 18.0.0, SVG Export Plug-In . SVG Version: 6.00 Build 0)  -->
<!DOCTYPE svg PUBLIC "-//W3C//DTD SVG 1.1//EN" "http://www.w3.org/Graphics/SVG/1.1/DTD/svg11.dtd">
<svg version="1.1" xmlns="http://www.w3.org/2000/svg" xmlns:xlink="http://www.w3.org/1999/xlink" x="0px" y="0px"
	 viewBox="0 127.4 595.2 587" enable-background="new 0 127.4 595.2 587" xml:space="preserve">
<g id="Layer_1">
	<path id="box1" d="M570.5,466.4H372c-13.6,0-24.8,11.2-24.8,24.8v198.4c0,13.6,11.2,24.8,24.8,24.8h198.4
		c13.6,0,24.8-11.2,24.8-24.8V491.2C595.3,477.6,584.1,466.4,570.5,466.4z M545.7,664.8H396.9V516h148.8V664.8z"/>
</g>
<g id="Layer_4">
	<path id="box4" d="M223.2,127.4H24.8C11.2,127.4,0,138.6,0,152.2v198.4c0,13.6,11.2,24.8,24.8,24.8h198.4
		c13.6,0,24.8-11.2,24.8-24.8V152.2C248,138.6,236.9,127.4,223.2,127.4z M198.4,325.9H49.6V177h148.8V325.9z"/>
</g>
<g id="Layer_3">
	<path id="box3" d="M570.5,127.4H372c-13.6,0-24.8,11.2-24.8,24.8v198.4c0,13.6,11.2,24.8,24.8,24.8h198.4
		c13.6,0,24.8-11.2,24.8-24.8V152.2C595.3,138.6,584.1,127.4,570.5,127.4z M545.7,325.9H396.9V177h148.8V325.9z"/>
</g>
<g id="Layer_2">
	<path id="box2" d="M223.2,466.4H24.8C11.2,466.4,0,477.6,0,491.2v198.4c0,13.6,11.2,24.8,24.8,24.8h198.4
		c13.6,0,24.8-11.2,24.8-24.8V491.2C248,477.6,236.9,466.4,223.2,466.4z M198.4,664.8H49.6V516h148.8V664.8z"/>
</g>
</svg>
