<?xml version="1.0" encoding="utf-8"?>
<!-- Generator: Adobe Illustrator 18.0.0, SVG Export Plug-In . SVG Version: 6.00 Build 0)  -->
<!DOCTYPE svg PUBLIC "-//W3C//DTD SVG 1.1//EN" "http://www.w3.org/Graphics/SVG/1.1/DTD/svg11.dtd">
<svg version="1.1" id="linkedin" xmlns="http://www.w3.org/2000/svg" xmlns:xlink="http://www.w3.org/1999/xlink" x="0px" y="0px"
	 viewBox="444 204 392 392" enable-background="new 444 204 392 392" xml:space="preserve">
<path fill="#0A0A0A" d="M770.2,204H509.8c-36.2,0-65.8,29.6-65.8,65.8v260.3c0,36.2,29.6,65.8,65.8,65.8h260.3
	c36.2,0,65.8-29.6,65.8-65.8V269.8C836,233.6,806.4,204,770.2,204z M591,522.5h-49V351h49V522.5z M566.5,326.5
	c-13.5,0-24.5-11-24.5-24.5s11-24.5,24.5-24.5s24.5,11,24.5,24.5S580,326.5,566.5,326.5z M762.5,522.5h-49v-98
	c0-13.5-11-24.5-24.5-24.5s-24.5,11-24.5,24.5v98h-49V351h49v30.4c10.1-13.9,25.6-30.4,42.9-30.4c30.4,0,55.1,27.4,55.1,61.2
	L762.5,522.5L762.5,522.5z"/>
</svg>
