<?xml version="1.0" encoding="utf-8"?>
<!-- Generator: Adobe Illustrator 18.0.0, SVG Export Plug-In . SVG Version: 6.00 Build 0)  -->
<!DOCTYPE svg PUBLIC "-//W3C//DTD SVG 1.1//EN" "http://www.w3.org/Graphics/SVG/1.1/DTD/svg11.dtd">
<svg version="1.1" id="mail" xmlns="http://www.w3.org/2000/svg" xmlns:xlink="http://www.w3.org/1999/xlink" x="0px" y="0px"
	 viewBox="444 204 392 392" enable-background="new 444 204 392 392" xml:space="preserve">
<path fill="#0A0A0A" d="M640,204c-108.2,0-196,87.8-196,196s87.8,196,196,196s196-87.8,196-196S748.2,204,640,204z M542,302h196
	c3.5,0,6.9,0.8,10,2.2l-108,126l-108-126C535.1,302.7,538.5,302,542,302L542,302z M517.5,473.5v-147c0-0.5,0-1,0.1-1.5l71.8,83.8
	l-71,71.1C517.8,477.8,517.5,475.7,517.5,473.5L517.5,473.5z M738,498H542c-2.2,0-4.3-0.3-6.3-0.8l69.7-69.7l34.6,40.4l34.6-40.4
	l69.7,69.7C742.3,497.7,740.2,498,738,498L738,498z M762.5,473.5c0,2.2-0.3,4.3-0.8,6.3l-71-71.1l71.8-83.8c0,0.5,0.1,1,0.1,1.5
	L762.5,473.5L762.5,473.5z"/>
</svg>
