<?xml version="1.0" encoding="utf-8"?>
<!-- Generator: Adobe Illustrator 18.0.0, SVG Export Plug-In . SVG Version: 6.00 Build 0)  -->
<!DOCTYPE svg PUBLIC "-//W3C//DTD SVG 1.1//EN" "http://www.w3.org/Graphics/SVG/1.1/DTD/svg11.dtd">
<svg version="1.1" id="twitter" xmlns="http://www.w3.org/2000/svg" xmlns:xlink="http://www.w3.org/1999/xlink" x="0px" y="0px"
	 viewBox="444 239.8 392 320.5" enable-background="new 444 239.8 392 320.5" xml:space="preserve">
<path fill="#0A0A0A" d="M836,277.7c-14.4,6.4-29.9,10.8-46.2,12.7c16.6-10,29.4-25.9,35.4-44.8c-15.5,9.3-32.7,16-51.1,19.6
	c-14.7-15.7-35.6-25.5-58.7-25.5c-44.4,0-80.4,36.2-80.4,80.9c0,6.3,0.7,12.5,2.1,18.4c-66.8-3.4-126.1-35.6-165.8-84.5
	c-6.9,12-10.9,25.8-10.9,40.7c0,28.1,14.2,52.8,35.8,67.3c-13.2-0.4-25.6-4.1-36.4-10.1c0,0.3,0,0.7,0,1c0,39.2,27.7,71.9,64.5,79.3
	c-6.8,1.9-13.9,2.8-21.2,2.8c-5.2,0-10.2-0.5-15.1-1.5c10.2,32.1,39.9,55.5,75.1,56.2c-27.5,21.7-62.2,34.6-99.9,34.6
	c-6.5,0-12.9-0.4-19.2-1.1c35.6,23,77.9,36.3,123.3,36.3c147.9,0,228.8-123.3,228.8-230.2c0-3.5-0.1-7-0.2-10.5
	C811.6,308.2,825.2,293.9,836,277.7z"/>
</svg>
