<?xml version="1.0" encoding="UTF-8"?>
<svg viewBox="0 0 1194 657" version="1.1" xmlns="http://www.w3.org/2000/svg">
    <defs></defs>
    <g id="Assets" stroke="none" stroke-width="1" fill="none" fill-rule="evenodd">
        <g id="fin" fill="#000000">
            <path d="M645.864583,410.488281 C652.592048,405.240859 655.955729,401.069894 655.955729,397.97526 C655.955729,394.880627 654.879351,393.333333 652.726563,393.333333 C647.075493,393.333333 634.697144,403.424378 615.591146,423.606771 C629.046074,420.108489 639.137119,415.735703 645.864583,410.488281 Z M331.828125,411.09375 C343.668462,410.017356 356.854094,409.54644 371.385417,409.68099 C385.916739,409.815539 407.982491,412.035569 437.583333,416.341146 C444.579896,403.693513 448.078125,392.52609 448.078125,382.838542 C448.078125,366.692628 438.121627,358.619792 418.208333,358.619792 C401.793321,358.619792 385.916743,363.530767 370.578125,373.352865 C355.239507,383.174962 342.322969,395.755132 331.828125,411.09375 Z M226.072917,486.979167 C226.072917,496.397617 229.974787,503.999537 237.778646,509.785156 C245.582504,515.570775 257.489937,518.463542 273.501302,518.463542 C289.512667,518.463542 306.936538,515.09986 325.773438,508.372396 C313.125805,498.684847 306.802083,485.364668 306.802083,468.411458 C306.802083,451.458249 311.914879,434.236199 322.140625,416.744792 C292.539783,421.050369 269.128558,430.199583 251.90625,444.192708 C234.683942,458.185834 226.072917,472.447844 226.072917,486.979167 Z M434.354167,421.184896 C401.255043,416.61022 378.24746,414.322917 365.330729,414.322917 C352.413998,414.322917 340.035649,414.861106 328.195313,415.9375 C317.43137,433.698005 312.049479,451.054603 312.049479,468.007812 C312.049479,484.961022 318.507748,497.743013 331.424479,506.354167 C353.221463,497.743013 373.269006,485.566485 391.567708,469.824219 C409.866411,454.081953 424.128421,437.869007 434.354167,421.184896 Z M447.270833,423.203125 C436.237792,440.156335 420.764857,456.571101 400.851563,472.447917 C380.938268,488.324732 359.410706,500.568533 336.268229,509.179688 C347.30127,515.099856 361.294186,518.059896 378.247396,518.059896 C403.273563,518.059896 427.895712,510.659796 452.114583,495.859375 C476.333454,481.058954 501.897435,460.06958 528.807292,432.890625 C505.126618,431.276034 477.94807,428.046899 447.270833,423.203125 Z M471.085937,317.044271 C471.085937,333.728382 484.002475,342.070312 509.835937,342.070312 C527.058246,342.070312 546.096684,334.80476 566.951823,320.273438 C587.806962,305.742115 605.499927,287.847329 620.03125,266.588542 C634.562573,245.329755 641.828125,225.685854 641.828125,207.65625 C641.828125,204.427067 641.289936,200.121555 640.213542,194.739583 C614.918276,195.546879 588.748833,203.283347 561.704427,217.949219 C534.660021,232.615091 512.79609,249.366225 496.111979,268.203125 C479.427868,287.040025 471.085937,303.320244 471.085937,317.044271 Z M824.679688,159.21875 C856.971516,143.072836 887.513745,135 916.307292,135 C935.41329,135 950.078942,138.161861 960.304688,144.485677 C970.530433,150.809493 975.643229,158.680508 975.643229,168.098958 C975.643229,182.630281 965.013995,195.95046 943.755208,208.059896 C922.496421,220.169331 893.837854,226.223958 857.778646,226.223958 C837.327155,226.223958 801.470308,220.976615 750.207031,210.481771 C698.943754,199.986927 664.297833,194.605036 646.268229,194.335938 C647.075525,198.372416 647.479167,202.408834 647.479167,206.445312 C647.479167,225.551311 640.146341,246.137042 625.480469,268.203125 C610.814597,290.269208 592.314348,308.904004 569.979167,324.108073 C547.643986,339.312142 526.385518,346.914062 506.203125,346.914062 C492.479098,346.914062 482.118959,343.886749 475.122396,337.832031 C468.125833,331.777313 464.627604,323.368109 464.627604,312.604167 C464.627604,301.840224 468.731296,289.798244 476.938802,276.477865 C485.146308,263.157485 496.448279,250.375495 510.845052,238.13151 C525.241825,225.887526 543.742074,215.258292 566.346354,206.24349 C588.950634,197.228688 613.034594,191.914071 638.598958,190.299479 C629.449607,165.81151 600.925587,153.567708 553.026042,153.567708 C539.571113,153.567708 525.376377,155.855012 510.441406,160.429688 C495.506436,165.004363 482.118983,170.655348 470.278646,177.382812 C446.328873,190.568642 427.761351,202.677896 414.575521,213.710938 L406.098958,220.572917 L403.677083,215.729167 C408.251759,211.154491 417.266426,204.158033 430.721354,194.739583 C444.176283,185.321133 456.621905,177.651939 468.058594,171.731771 C479.495283,165.811602 493.420925,160.429712 509.835938,155.585938 C526.25095,150.742163 542.127527,148.320312 557.466146,148.320312 C606.980282,148.320312 636.177039,162.178681 645.057292,189.895833 C648.555573,189.626735 652.322896,189.492188 656.359375,189.492188 C680.578246,189.492188 717.175102,193.999521 766.151042,203.014323 C815.126981,212.029125 847.956514,216.536458 864.640625,216.536458 C896.125157,216.536458 921.487317,211.692757 940.727865,202.005208 C959.968412,192.31766 969.588542,181.688426 969.588542,170.117188 C969.588542,162.313329 964.677566,155.922334 954.855469,150.94401 C945.033371,145.965687 929.291341,143.476562 907.628906,143.476562 C885.966472,143.476562 859.258839,150.069379 827.505208,163.255208 L824.679688,159.21875 Z M533.247396,428.450521 C544.818634,416.610184 560.358843,399.791776 579.86849,377.994792 C599.378136,356.197808 615.994723,338.1012 629.71875,323.704427 C643.442777,309.307654 659.184807,294.171086 676.945312,278.294271 C712.735422,246.002443 748.390447,226.627636 783.911458,220.169271 L784.315104,222.591146 C768.438289,226.627624 750.610776,236.315027 730.832031,251.653646 C711.053287,266.992264 693.091227,283.339757 676.945312,300.696615 C660.799398,318.053472 640.550035,339.850129 616.196615,366.08724 C591.843194,392.32435 571.190189,413.380997 554.236979,429.257812 L559.484375,429.257812 C573.746599,429.257812 586.394042,428.450529 597.427083,426.835938 C608.460125,414.726502 618.214801,405.442741 626.691406,398.984375 C635.168011,392.526009 643.442668,389.296875 651.515625,389.296875 C659.588582,389.296875 663.625,391.315084 663.625,395.351562 C663.625,400.195337 658.781298,406.048143 649.09375,412.910156 C639.406202,419.77217 626.624211,425.221334 610.747396,429.257812 C585.183032,455.898571 567.960982,469.21875 559.080729,469.21875 C558.004335,469.21875 557.466146,468.949655 557.466146,468.411458 C557.466146,467.335064 558.811618,465.989591 561.502604,464.375 C568.768265,458.72393 579.128405,448.094696 592.583333,432.486979 C585.317672,433.563373 577.244836,434.101562 568.364583,434.101562 C559.484331,434.101562 553.160609,433.967015 549.393229,433.697917 C486.155066,492.630503 428.299742,522.096354 375.825521,522.096354 C356.988621,522.096354 341.78478,518.463578 330.213542,511.197917 C308.416558,518.732677 288.705383,522.5 271.079427,522.5 C253.453471,522.5 240.200565,519.001771 231.320312,512.005208 C222.44006,505.008646 218,496.263073 218,485.768229 C218,469.891414 227.418309,454.620299 246.255208,439.954427 C265.092108,425.288555 291.463372,415.93752 325.369792,411.901042 C336.402833,394.947832 350.395749,381.02219 367.348958,370.123698 C384.302168,359.225206 402.466049,353.776042 421.841146,353.776042 C449.020101,353.776042 462.609375,363.463445 462.609375,382.838542 C462.609375,393.064287 458.572957,404.769899 450.5,417.955729 C494.093968,424.414095 521.676157,427.912324 533.247396,428.450521 Z M731.215469,408.671875 C726.909892,412.170156 722.940748,413.919271 719.307917,413.919271 C715.675086,413.919271 713.858698,412.439251 713.858698,409.479167 C713.858698,406.519082 716.011454,403.088127 720.317031,399.186198 C724.622609,395.284269 728.591753,393.333333 732.224584,393.333333 C735.857414,393.333333 737.673802,394.813353 737.673802,397.773438 C737.673802,401.540817 735.521046,405.173594 731.215469,408.671875 Z M703.363906,441.367187 C667.0356,474.197213 648.871719,494.782944 648.871719,503.125 C648.871719,505.815986 650.688107,507.161458 654.320938,507.161458 C657.953768,507.161458 663.402933,505.546891 670.668594,502.317708 C677.934255,499.088526 684.392524,495.792118 690.043594,492.428385 C695.694664,489.064653 702.489301,484.893688 710.427709,479.915365 C718.366116,474.937041 722.604355,472.313369 723.142552,472.044271 L723.949844,478.098958 C711.57131,486.171915 697.443847,494.244751 681.567031,502.317708 C665.690216,510.390665 653.648236,514.427083 645.440729,514.427083 C637.233223,514.427083 633.129531,511.063402 633.129531,504.335938 C633.129531,498.684868 637.973233,490.141116 647.660781,478.704427 C657.34833,467.267738 667.035733,457.243967 676.723281,448.632812 L691.254531,435.716146 C692.600024,434.639752 695.156422,434.23611 698.923802,434.505208 C702.691182,434.774307 704.574844,436.11978 704.574844,438.541667 C704.574844,439.618061 704.171202,440.559892 703.363906,441.367187 Z M827.868438,440.761719 C827.868438,446.816437 823.562925,455.629282 814.951771,467.200521 C845.629008,445.941734 870.251158,435.3125 888.818959,435.3125 C896.08462,435.3125 899.717396,438.407087 899.717396,444.596354 C899.717396,450.785621 897.026451,457.176616 891.64448,463.769531 C886.262508,470.362446 880.342428,476.080705 873.884063,480.924479 C856.661755,493.303013 848.05073,501.106755 848.05073,504.335938 C848.05073,506.219627 849.598023,507.161458 852.692657,507.161458 C855.78729,507.161458 860.96736,505.546891 868.233021,502.317708 C875.498683,499.088526 881.956951,495.792118 887.608021,492.428385 C893.259091,489.064653 900.053728,484.893688 907.992136,479.915365 C915.930544,474.937041 920.168782,472.313369 920.70698,472.044271 L921.514271,478.098958 C885.185965,502.317829 859.756531,514.427083 845.225209,514.427083 C838.228646,514.427083 834.730417,511.063402 834.730417,504.335938 C834.730417,499.761262 837.623183,494.312098 843.408802,487.988281 C849.194422,481.664465 855.450869,475.811659 862.178334,470.429688 C880.746135,456.436562 890.029896,447.152801 890.029896,442.578125 C890.029896,441.232632 888.549876,440.559896 885.589792,440.559896 C875.633145,440.559896 860.832946,445.941786 841.18875,456.705729 C821.544555,467.469672 799.747898,484.960816 775.798125,509.179688 C774.183534,510.794279 771.15622,511.601562 766.716094,511.601562 C762.275968,511.601562 760.055938,510.390637 760.055938,507.96875 C760.055938,507.161454 769.339699,497.204957 787.9075,478.098958 C806.475302,458.99296 815.759063,446.614612 815.759063,440.963542 C815.759063,439.618049 814.884506,438.945312 813.135365,438.945312 C811.386224,438.945312 807.753448,440.694427 802.236927,444.192708 C796.720407,447.69099 788.243929,453.274701 776.80724,460.94401 C765.370551,468.61332 755.615874,475.004315 747.542917,480.117188 L746.33198,474.466146 C750.368458,471.77516 755.884896,468.007837 762.881459,463.164062 C769.878021,458.320288 775.663554,454.351144 780.23823,451.25651 C784.812905,448.161877 789.791154,444.865469 795.173125,441.367188 C805.667969,434.908822 813.740805,431.679688 819.391875,431.679688 C825.042945,431.679688 827.868438,434.707001 827.868438,440.761719 Z" id="Fin"></path>
        </g>
    </g>
</svg>
